<svg width="444" height="445" viewBox="0 0 444 445" fill="none" xmlns="http://www.w3.org/2000/svg">
<path opacity="0.5" d="M443.5 222.397C443.5 344.948 344.33 444.293 222 444.293C99.6698 444.293 0.5 344.948 0.5 222.397C0.5 99.8457 99.6698 0.5 222 0.5C344.33 0.5 443.5 99.8457 443.5 222.397Z" stroke="white"/>
<path opacity="0.5" d="M416.527 227.155C416.527 332.326 331.329 417.583 226.232 417.583C121.135 417.583 35.936 332.326 35.936 227.155C35.936 121.985 121.135 36.7275 226.232 36.7275C331.329 36.7275 416.527 121.985 416.527 227.155Z" stroke="white"/>
<path opacity="0.5" d="M416.527 200.978C416.527 306.148 331.329 391.406 226.232 391.406C121.135 391.406 35.936 306.148 35.936 200.978C35.936 95.807 121.135 10.5498 226.232 10.5498C331.329 10.5498 416.527 95.807 416.527 200.978Z" stroke="white"/>
<path fill-rule="evenodd" clip-rule="evenodd" d="M282.378 206.251C285.046 208.83 287.18 211.942 288.78 215.321H288.781C293.137 225.393 289.917 237.545 284.957 247.334C284.862 247.57 284.643 247.58 284.485 247.472C284.419 247.599 284.354 247.725 284.288 247.852C283.23 247.378 282.142 246.897 281.072 246.424H281.071L281.07 246.423L281.065 246.421C278.824 245.429 276.66 244.473 274.998 243.688H274.997C274.278 243.348 273.485 243.065 272.596 242.977C272.444 242.977 272.296 242.987 272.154 243.007L268.861 241.286V241.287C268.268 240.891 267.721 240.968 267.083 241.287C266.805 241.433 266.534 241.589 266.271 241.755L264.059 240.219V240.22C263.526 239.864 263.081 239.331 263.081 238.619C262.014 234.707 259.524 231.239 256.056 229.015C254.805 228.098 253.437 227.337 251.997 226.732C252.198 215.001 251.938 203.192 250.365 191.845C231.958 189.267 212.84 188.377 194.61 192.29C193.291 202.101 192.638 214.762 193.272 227.646C192.472 228.078 191.701 228.564 190.964 229.104C187.496 231.327 185.006 234.795 183.939 238.708C183.939 239.063 183.761 239.419 183.584 239.686L183.521 239.749C183.471 239.799 183.43 239.841 183.388 239.88C183.187 240.07 182.957 240.228 181.639 241.141L181.635 241.143L181.631 241.146C181.369 241.327 181.064 241.538 180.707 241.785C180.429 241.608 180.143 241.443 179.849 241.288V241.287C179.343 240.951 178.728 240.908 178.159 241.287L174.87 243.006C174.726 242.986 174.578 242.976 174.425 242.976C173.536 243.065 172.743 243.348 172.024 243.687C170.497 244.408 168.178 245.683 165.68 247.091C166.435 241.915 166.977 237.776 165.621 231.595C164.415 226.098 161.712 220.745 158.241 216.655C157.017 215.214 155.809 213.743 154.773 212.209C150.739 206.243 151.483 198.337 154.595 192.113C159.28 182.743 169.59 175.247 178.604 172.639C181.654 171.757 184.436 171.471 187.28 171.178C191.619 170.731 196.101 170.269 201.902 167.659C206.291 165.586 208.583 163.932 210.842 162.301C212.201 161.32 213.547 160.349 215.329 159.3C219.33 157.049 225.699 155.595 230.091 155.032C237.293 153.965 244.763 153.342 251.877 155.121C262.008 157.687 270.6 165.346 271.173 175.662C271.256 177.56 270.975 179.419 270.694 181.276C270.37 183.421 270.046 185.562 270.284 187.755C270.961 194.297 275.645 199.186 280.032 203.766C280.833 204.602 281.623 205.428 282.378 206.251ZM264.504 256.226C265.749 257.672 268.592 260.86 271.646 264.159C267.025 267.822 261.552 270.191 254.975 270.696C255.703 270.073 256.052 269.363 255.878 268.32V268.319C255.024 262.767 252.981 256.603 250.457 251.554C244.566 249.606 237.13 247.934 231.104 246.829C238.332 246.614 244.868 246.638 251.344 247.067L251.376 246.232C251.414 245.273 251.452 244.312 251.489 243.348V243.348C251.971 243.922 252.45 244.492 252.944 245.021C253.655 245.821 254.545 246.444 255.434 246.977C255.93 247.275 256.343 247.296 256.781 247.317C257.129 247.335 257.491 247.354 257.924 247.511C257.966 247.531 258.012 247.553 258.062 247.575C258.223 247.646 258.41 247.731 258.546 247.866C259.342 248.463 260.165 249.087 260.969 249.724C260.918 250.05 260.881 250.38 260.859 250.713C260.859 251.33 260.885 251.916 261.481 252.313C262.269 253.162 263.099 253.969 263.969 254.707C263.969 255.484 264.087 255.645 264.327 255.973C264.379 256.046 264.439 256.127 264.504 256.226ZM170.031 269.961C170.862 270.61 171.772 271.163 172.735 271.61C176.972 273.506 181.489 272.833 185.611 272.201C185.488 271.767 185.562 271.276 185.895 270.72C188.119 265.652 190.876 260.939 194.255 256.581C194.399 256.389 194.519 256.222 194.625 256.075L194.626 256.073L194.627 256.072L194.627 256.071C195.276 255.168 195.395 255.003 197.381 254.17C202.792 251.875 209.378 249.451 215.181 247.553C212.438 247.705 209.577 247.87 206.576 248.043H206.575H206.573L206.566 248.044H206.563H206.555L206.549 248.045C203.092 248.244 199.449 248.455 195.588 248.667C195.323 247.204 195.081 245.724 194.86 244.231C194.601 244.532 194.341 244.827 194.076 245.111C193.365 245.911 192.476 246.533 191.586 247.067C191.09 247.364 190.677 247.386 190.239 247.407C189.892 247.425 189.529 247.443 189.097 247.6C189.055 247.621 189.008 247.642 188.958 247.665C188.798 247.736 188.61 247.82 188.474 247.956C187.614 248.562 186.784 249.198 185.981 249.846C186.023 250.132 186.054 250.422 186.073 250.713C186.073 251.373 186.043 251.792 185.54 252.314C184.765 253.118 183.971 253.902 183.14 254.623V254.624C183.157 255.549 183.043 255.704 182.784 256.061L182.784 256.062L182.783 256.062C182.73 256.135 182.671 256.216 182.606 256.314C180.613 258.629 174.526 265.409 170.031 269.961ZM251.919 230.438L251.918 230.479C252.024 230.553 252.129 230.628 252.233 230.705C252.13 230.614 252.025 230.526 251.919 230.438ZM204.747 176.461C205.139 176.853 210.24 184.488 210.49 184.982V184.981C211.164 186.308 210.131 186.3 209.468 185.706C208.642 184.966 203.858 178.595 203.325 177.262C203.058 176.373 204.125 175.928 204.747 176.461ZM223.955 184.643C224.429 181.162 224.658 174.154 224.399 172.727C224.221 172.015 223.053 172.014 222.977 172.727C222.956 172.916 223.216 183.277 223.332 184.554C223.243 184.999 223.866 185.087 223.955 184.643ZM242.718 179.751C242.164 180.859 239.301 184.786 237.576 186.418C236.995 186.968 236.607 186.453 236.971 185.869C237.816 184.513 241.166 179.817 241.739 179.129C242.095 178.862 242.895 179.129 242.718 179.751Z" fill="white"/>
<path d="M231.11 291.006C229.794 292.058 229.29 292.011 227.998 292.873C227.815 293.056 227.904 293.344 228.416 293.184C229.237 292.924 230.51 292.304 231.466 291.539C231.758 291.394 231.592 290.764 231.11 291.006Z" fill="white"/>
<path d="M231.056 293.177C228.74 294.722 228.402 294.721 227.844 294.952C227.742 294.994 227.784 295.567 228.247 295.491C229.64 295.265 230.863 294.253 231.347 293.929C232.7 293.027 231.903 292.329 231.055 293.177L231.056 293.177Z" fill="white"/>
<path d="M226.087 248.613C225.999 254.484 225.954 259.529 226.577 265.308C226.577 265.664 227.516 265.604 227.427 265.159C226.894 259.29 227.001 254.453 226.957 248.583C226.951 247.832 226.101 247.741 226.087 248.613Z" fill="white"/>
<path fill-rule="evenodd" clip-rule="evenodd" d="M214.337 247.446C207.516 249.799 197.676 253.638 195.575 254.547C195.126 254.741 195.011 254.911 194.877 255.107C194.852 255.142 194.827 255.179 194.799 255.217C191.134 259.693 188.428 264.799 185.937 270.021C185.509 270.919 185.048 271.888 185.759 272.778C186.471 273.489 187.271 274.022 188.249 274.378C188.249 274.378 193.662 277.128 194.725 277.656C195.054 280.199 195.428 281.797 195.716 283.023C195.781 283.3 195.842 283.558 195.896 283.804C195.985 284.694 196.519 285.494 197.141 286.027C198.208 286.65 199.275 287.183 200.342 287.628C201.242 288.063 202.1 288.478 202.925 288.877C211.152 292.857 216.04 295.221 225.863 299.455C226.11 299.537 226.281 299.391 226.375 299.158C233.73 295.783 240.521 291.376 246.849 286.295C247.121 286.076 247.395 285.858 247.671 285.639C248.9 284.662 250.151 283.668 251.295 282.559C252.485 281.407 252.536 279.739 252.586 278.144C252.596 277.802 252.607 277.464 252.628 277.135C252.654 276.754 252.68 276.373 252.707 275.991C252.779 274.942 252.852 273.889 252.895 272.831C253.587 272.349 254.27 271.858 254.94 271.356C255.741 270.911 256.363 270.2 256.63 269.31C256.719 268.332 256.63 267.265 256.363 266.287L256.365 266.286C255.423 261.318 253.931 256.375 251.479 251.869C251.085 251.145 250.822 250.903 250.363 250.772C246.094 249.56 238.638 247.812 232.388 246.633C231.193 246.665 229.98 246.703 228.745 246.749C228.852 246.769 228.958 246.79 229.065 246.811C236.584 248.065 242.919 249.373 250.237 251.51C244.026 256.028 237.471 259.945 230.487 263.262C229.151 263.902 227.512 264.454 225.941 264.984C225.237 265.221 224.547 265.454 223.904 265.688C223.514 265.393 215.856 262.672 210.452 260.753C209.662 260.472 208.92 260.208 208.257 259.972C207.423 259.676 206.579 259.386 205.731 259.095C202.402 257.954 199.006 256.789 195.907 255.072C203.754 251.886 206.977 250.772 210.522 249.546C212.127 248.992 213.797 248.414 215.993 247.612H215.994C216.281 247.507 216.57 247.405 216.86 247.307C216.03 247.352 215.189 247.398 214.337 247.446ZM186.204 271.176C185.848 272.51 186.924 273.026 187.893 273.488C191.019 274.979 193.638 276.281 195.936 277.424C200.384 279.637 203.628 281.251 207.012 282.47C207.404 282.611 207.798 282.77 208.189 282.927C208.853 283.194 209.508 283.458 210.124 283.626C210.349 283.687 210.589 283.768 210.836 283.85C211.662 284.128 212.572 284.433 213.325 284.159C214.102 283.876 214.486 283.089 214.834 282.376C214.924 282.192 215.012 282.012 215.104 281.847C215.827 280.281 217.271 277.672 218.901 274.725C220.377 272.059 222.005 269.116 223.39 266.421C223.049 266.228 216.399 263.781 205.767 260.061C205.182 259.857 204.592 259.656 204 259.454C201.032 258.444 198.013 257.417 195.332 255.813C192.346 259.613 189.689 263.681 187.627 268.064C187.093 269.042 186.56 270.109 186.204 271.176ZM198.972 286.142C199.17 286.222 199.362 286.3 199.543 286.382L199.56 286.391C208.153 290.556 216.746 294.722 225.504 298.392C224.377 289.754 223.656 278.573 223.825 267.38C222.629 269.634 221.401 271.871 220.174 274.109C218.795 276.622 217.416 279.135 216.082 281.67C215.638 282.737 215.104 283.626 214.393 284.426C213.682 285.048 212.615 285.226 211.725 284.96C206.567 283.373 200.203 280.357 195.396 277.986C195.631 279.441 196.244 283.145 196.786 284.515C197.133 285.392 198.098 285.785 198.972 286.142ZM251.687 277.705C251.714 276.967 251.744 276.117 251.83 275.089C251.865 274.562 251.895 274.033 251.921 273.503C251.126 274.046 250.323 274.582 249.519 275.118L249.429 275.178C242.554 279.761 234.799 283.082 231.555 283.893C230.755 284.07 229.955 283.537 229.777 282.737C229.722 282.571 229.607 282.13 229.44 281.486C228.691 278.606 226.888 271.662 224.622 267.12C224.639 267.342 224.636 267.923 224.631 268.828C224.606 272.978 224.541 283.942 226.307 298.281C234.832 294.516 241.98 289.554 249.162 283.27C249.962 282.737 250.674 282.025 251.207 281.225C251.6 280.146 251.636 279.134 251.687 277.705ZM249.873 273.845C251.652 272.689 253.367 271.563 254.942 270.199V270.198C255.762 269.488 255.68 268.604 255.591 267.649C255.582 267.551 255.573 267.452 255.564 267.353C255.335 264.597 253.555 258.099 250.651 252.275C248.425 254.003 241.272 258.952 235.195 262.142C232.172 263.813 228.634 265.215 225.248 266.319C227.627 270.138 230.129 280.428 230.485 281.892C230.512 282 230.527 282.06 230.528 282.065C230.782 282.782 231.022 283.181 231.733 283.003C232.267 282.914 232.711 282.737 233.156 282.559C239.213 280.357 245.239 277.053 249.873 273.845Z" fill="white"/>
<path fill-rule="evenodd" clip-rule="evenodd" d="M185.314 234.72C187.114 231.43 190.085 228.789 193.47 227.041C193.481 227.283 193.493 227.525 193.505 227.768C189.644 229.874 186.522 232.991 184.869 237.121C184.765 237.407 184.692 237.715 184.618 238.026C184.438 238.781 184.254 239.552 183.624 240.056C182.819 240.675 182.014 241.251 181.178 241.785C181.031 241.685 180.881 241.589 180.729 241.497C181.862 240.653 182.167 240.446 182.403 240.285C182.573 240.168 182.707 240.077 183.091 239.789C183.446 239.522 183.713 239.077 183.802 238.633C184.158 237.299 184.602 235.965 185.314 234.72ZM186.261 250.174C186.776 249.752 187.287 249.336 187.804 248.948C188.249 248.504 188.782 248.148 189.316 247.881C189.672 247.762 190.027 247.723 190.383 247.683C190.561 247.664 190.739 247.644 190.917 247.614C191.984 247.348 192.873 246.814 193.673 246.014C194.174 245.513 194.675 245.012 195.144 244.495C195.099 244.2 195.055 243.904 195.012 243.607C193.255 245.57 192.046 246.903 189.938 246.903C188.871 247.17 187.893 247.703 187.093 248.504C186.764 248.75 186.443 248.997 186.129 249.246C186.186 249.552 186.23 249.862 186.261 250.174Z" fill="white"/>
<path fill-rule="evenodd" clip-rule="evenodd" d="M257.234 247.298C254.998 247.298 253.209 245.342 251.696 243.511L251.732 242.589C251.975 242.865 252.189 243.117 252.392 243.354C253.207 244.311 253.823 245.033 255.297 246.101C255.656 246.362 256.186 246.546 256.72 246.635C258.443 246.635 259.578 247.61 261.273 249.087C261.227 249.318 261.187 249.55 261.156 249.784C260.481 249.228 259.791 248.681 259.101 248.188C258.568 247.743 257.945 247.387 257.234 247.298ZM266.781 241.412C266.403 241.127 265.798 240.672 264.793 239.918V239.917C264.437 239.74 264.081 239.384 263.815 239.028C263.548 238.406 263.37 237.783 263.281 237.072C262.784 235.336 260.757 231.87 257.768 229.425C256.232 228.145 254.283 226.957 252.224 226.07L252.215 226.61C257.061 228.735 261.365 232.84 262.767 237.743C262.856 238.365 263.123 238.988 263.478 239.521C264.012 239.966 264.545 240.41 265.168 240.766C265.586 241.079 266.004 241.362 266.423 241.633C266.541 241.557 266.66 241.484 266.781 241.412ZM252.362 230.54C252.287 230.49 252.211 230.44 252.136 230.391C252.142 230.107 252.149 229.823 252.156 229.539C252.346 229.691 252.533 229.847 252.718 230.007C253.074 230.273 252.718 230.718 252.362 230.54Z" fill="white"/>
<path d="M232.444 218.179C232.372 217.465 231.911 216.756 231.288 216.4C230.577 216.134 229.866 216.134 229.154 216.311C226.175 216.959 220.499 216.868 218.039 216.399C217.327 216.132 216.527 216.043 215.727 216.132C213.617 216.736 213.574 219.394 215.371 220.222C215.46 220.222 215.46 220.311 215.549 220.311C216.565 220.692 217.851 219.82 218.305 222.09C218.505 222.589 220.262 228.115 220.517 228.779C220.619 229.045 221.219 228.729 221.187 228.499C221.015 227.281 219.733 224.381 219.372 223.068C219.126 222.173 218.839 221.29 218.394 220.401C217.95 219.778 217.238 219.423 216.438 219.512C215.549 219.512 214.66 218.889 214.926 217.911C215.282 216.755 216.438 216.933 217.416 217.111C220.289 217.86 226.192 217.861 229.065 217.112C229.955 216.934 231.199 216.756 231.555 217.912C231.822 218.89 230.933 219.512 230.043 219.512C229.332 219.424 228.621 219.779 228.176 220.313C227.165 222.336 226.124 227.097 225.581 228.388C225.35 228.937 226.178 228.855 226.279 228.588C226.951 226.812 227.767 223.47 228.532 221.558C228.621 221.113 228.888 220.757 229.243 220.579C229.688 220.491 230.043 220.491 230.488 220.491C231.644 220.402 232.561 219.332 232.444 218.179Z" fill="white"/>
<path d="M186.47 249.924C186.097 246.562 183.736 242.688 179.89 240.765C179.535 240.588 179.179 240.499 178.823 240.588C178.379 240.765 177.934 241.032 177.49 241.299C176.641 241.691 175.841 242.131 175.053 242.618C171.944 242.267 167.515 246.027 154.903 252.859C154.814 252.948 154.991 253.211 155.17 253.126C160.656 250.512 166.198 246.901 171.354 244.323C172.332 243.701 173.488 243.345 174.644 243.167C176.067 243.345 177.401 243.967 178.468 244.945C180.691 246.724 182.113 249.214 182.647 251.971C182.825 252.593 182.914 253.305 182.914 254.016C183.003 254.372 183.003 254.727 182.914 255.172C182.825 255.439 182.647 255.706 182.38 255.972C182.024 256.417 181.669 256.861 181.224 257.217C174.384 264.791 170.804 268.738 165.751 273.401C165.307 273.757 165.929 274.291 166.285 273.935C169.096 271.594 170.75 269.648 173.665 266.732C177.807 262.457 180.258 259.557 182.824 256.595C183.18 256.239 183.358 255.883 183.535 255.439C183.561 255.233 183.579 255.028 183.59 254.822C184.808 253.726 185.301 253.166 186.114 252.237C186.559 251.526 186.736 250.725 186.47 249.925L186.47 249.924ZM184.07 253.481C183.909 253.624 183.749 253.758 183.589 253.89C183.416 250.767 182.136 247.918 180.157 245.656C178.76 244.118 176.795 243.031 175.727 242.745C177.711 241.82 177.864 241.414 179.089 241.21C179.623 241.299 180.156 241.477 180.601 241.832C184.165 244.138 185.859 247.71 185.936 250.813C185.963 251.88 184.869 252.77 184.069 253.481H184.07Z" fill="white"/>
<path d="M289.977 250.102C284.998 247.396 275.597 243.329 274.416 242.899C273.778 242.654 273.087 242.571 272.4 242.636C271.243 241.92 269.414 240.893 269.042 240.716C268.72 240.561 268.395 240.461 268.102 240.498C267.302 240.676 266.502 241.12 265.879 241.654C264.024 242.978 262.683 244.54 261.611 246.989C261.345 247.7 261.078 248.501 260.989 249.301C260.811 250.101 260.811 250.902 260.989 251.613C261.433 252.502 262.145 253.213 262.856 253.836C264.011 255.134 263.691 254.254 263.834 255.259C264.101 255.881 264.546 256.503 264.99 256.948C265.285 257.242 276.688 270.372 281.085 273.755C281.441 274.11 282.064 273.488 281.619 273.221C279.485 271.354 277.491 269.351 275.572 267.264C273.246 264.732 268.085 259.399 265.524 256.326C264.99 255.703 264.457 255.259 264.457 254.369C264.457 253.036 264.723 251.791 265.079 250.546C265.791 248.145 267.302 246.011 269.347 244.499C270.325 243.61 271.659 243.165 272.993 242.988C274.149 243.165 275.305 243.521 276.283 244.144C280.818 246.1 285.354 248.145 289.8 250.19C290.066 250.457 290.244 250.19 289.977 250.101V250.102ZM264.101 251.614C263.945 252.701 263.947 251.995 263.793 253.75C263.622 253.607 263.457 253.459 263.301 253.303C262.589 252.592 261.406 251.791 261.433 250.636C261.478 248.767 262.056 246.99 263.034 245.477C264.353 243.102 266.943 241.363 268.297 241.137C268.775 241.205 270.756 242.272 271.65 242.765C268.387 243.591 264.976 247.234 264.101 251.613V251.614Z" fill="white"/>
<path d="M239.024 203.418C234.099 190.284 213.906 189.531 208.079 202.351C205.322 208.308 207.456 215.245 210.657 220.669C212.534 223.824 214.654 226.734 216.237 229.947C215.72 230.032 215.351 230.164 215.192 230.717C214.926 232.229 214.748 233.74 214.837 235.253C214.748 236.942 214.837 238.632 214.926 240.321C214.926 240.499 215.015 240.677 215.192 240.677C218.052 241.269 226.244 241.917 231.377 240.855C231.554 240.766 231.643 240.677 231.643 240.499C231.794 237.622 231.877 233.732 231.377 230.896C231.203 230.291 230.779 230.19 230.266 230.103C234.687 221.582 237.079 220.717 239.29 212.755C240.18 209.643 240.091 206.442 239.024 203.418H239.024ZM230.755 231.785C231.012 234.529 231.103 237.356 230.95 240.106C227.213 240.869 219.579 240.737 215.619 239.929C215.556 238.849 215.521 237.758 215.52 236.665C220.094 236.691 227.445 236.882 229.954 236.942C230.132 236.942 230.221 236.764 230.221 236.586C230.221 236.498 230.132 236.409 229.954 236.32C229.046 236.308 217.159 236.064 215.524 236.078C215.535 235.181 215.571 234.285 215.638 233.393C217.98 233.383 220.331 233.191 222.759 233.191C229.334 233.191 228.21 233.305 230.043 233.305C230.398 233.305 230.398 232.771 230.043 232.771C224.875 232.402 219.905 232.61 215.674 232.943C215.713 232.496 215.76 232.05 215.815 231.607C215.815 230.641 215.914 230.54 217.06 230.54C222.172 229.901 228.651 230.347 230.487 230.807C230.665 230.984 230.665 231.429 230.754 231.785H230.755ZM234.845 220.936C233.018 223.895 230.586 226.729 229.567 230.017C223.381 229.28 222.242 229.258 216.952 229.858C215.371 224.979 211.086 221.934 208.346 213.467C206.421 207.514 207.889 201.044 213.326 197.016C221.463 191.099 234.187 193.86 238.046 203.151C240.536 209.109 237.957 215.778 234.845 220.936Z" fill="white"/>
<path d="M179.242 243.558C179.628 243.558 179.942 243.244 179.942 242.858C179.942 242.472 179.628 242.158 179.242 242.158C178.855 242.158 178.542 242.472 178.542 242.858C178.542 243.244 178.855 243.558 179.242 243.558Z" fill="white"/>
<path d="M267.782 243.687C268.168 243.687 268.482 243.373 268.482 242.987C268.482 242.601 268.168 242.287 267.782 242.287C267.396 242.287 267.082 242.601 267.082 242.987C267.082 243.373 267.396 243.687 267.782 243.687Z" fill="white"/>
<path d="M201.321 231.518C201.232 230.717 200.611 230.527 199.987 230.451C199.1 230.343 198.209 230.362 197.32 230.451C193.768 230.619 189.733 232.073 186.826 234.808C186.56 234.897 186.737 235.163 187.004 235.075C188.605 233.919 190.367 232.991 192.25 232.229C195.032 231.104 197.302 231.162 199.453 231.162C199.986 231.162 200.698 231.251 200.253 231.873C198.174 233.952 195.55 235.505 192.428 236.497C192.25 236.586 192.161 236.675 192.161 236.853C192.161 239.466 191.105 241.805 189.405 243.789C188.871 244.411 188.16 244.945 187.538 245.478C187.181 245.657 187.585 246.31 187.982 246.101C188.792 245.674 189.494 245.033 190.027 244.322C191.8 242.296 192.883 240.063 192.958 237.127C195.521 236.319 197.837 235.016 199.986 233.295C200.52 232.851 201.409 232.317 201.32 231.517L201.321 231.518Z" fill="white"/>
<path fill-rule="evenodd" clip-rule="evenodd" d="M251.118 191.502C251.118 191.235 250.94 191.057 250.674 191.057C231.692 188.51 213.61 187.835 194.83 191.591C194.462 191.643 194.367 192.012 194.478 192.27C193.625 197.561 193.102 206.841 192.962 212.4C192.818 218.685 192.906 225.115 193.344 231.507C193.677 231.411 194.014 231.323 194.352 231.245C193.35 217.518 194.22 206.141 195 195.934C195.09 194.756 195.179 193.594 195.264 192.446C205.739 190.372 213.718 189.886 222.793 189.928C222.787 190.542 222.828 191.415 222.889 192.706C223.033 195.738 223.285 201.077 223.285 210.798C223.508 229.3 223.148 235.367 222.59 244.765C222.557 245.319 222.524 245.885 222.489 246.465C213.288 246.934 202.811 247.607 197.909 247.922L197.908 247.923L197.881 247.925C197.316 247.961 196.826 247.992 196.421 248.018C195.695 243.818 195.156 239.819 194.767 235.998C194.433 236.142 194.094 236.278 193.751 236.406C194.152 240.489 194.708 244.537 195.452 248.503C195.541 248.68 195.63 248.769 195.808 248.769C203.099 248.325 210.302 247.969 217.594 247.613L218.773 247.555C230.503 246.975 240.782 246.467 251.563 247.169C251.83 247.169 252.003 246.991 252.007 246.724C252.055 244.136 252.169 241.193 252.294 237.959V237.959C252.32 237.272 252.348 236.571 252.375 235.858C252.153 235.758 251.933 235.654 251.715 235.546C251.649 237.618 251.515 239.702 251.381 241.784V241.784C251.285 243.273 251.19 244.761 251.119 246.241C241.922 245.712 232.725 245.958 223.552 246.411C224.713 231.453 223.919 194.71 223.552 189.933C229.442 189.983 237.306 190.308 250.171 191.959C251.751 204.789 252.05 218.02 251.819 230.998C252.061 231.035 252.303 231.078 252.542 231.125C252.91 219.698 253.022 205.783 251.118 191.503V191.502Z" fill="white"/>
<path d="M260.633 234.719C258.143 232.14 254.408 230.807 250.94 230.451C250.05 230.362 249.072 230.273 248.183 230.362C247.561 230.362 246.76 230.451 246.405 230.984C246.049 231.518 246.583 232.318 247.027 232.674C249.184 234.658 251.759 236.14 254.59 237.039C254.639 238.806 255.126 240.506 255.919 242.011C256.703 243.497 258.079 245.319 259.565 246.102C259.74 246.194 259.921 246.191 260.01 246.013C260.098 245.835 260.098 245.657 259.921 245.568C259.298 244.946 258.676 244.501 258.053 243.879C256.302 241.835 255.432 239.505 255.297 236.943C255.297 236.765 255.208 236.587 255.03 236.587C253.074 235.965 251.206 235.076 249.517 233.92C249.072 233.653 248.628 233.297 248.272 232.941C247.828 232.675 247.472 232.319 247.205 231.963C246.76 231.341 247.561 231.252 248.005 231.252C252.651 231.252 256.167 232.068 260.454 235.164C260.632 235.164 260.81 234.898 260.632 234.72L260.633 234.719Z" fill="white"/>
</svg>
