<svg width="392" height="243" viewBox="0 0 392 243" fill="none" xmlns="http://www.w3.org/2000/svg">
<path opacity="0.5" d="M443.5 121.397C443.5 243.948 344.33 343.293 222 343.293C99.6698 343.293 0.5 243.948 0.5 121.397C0.5 -1.15432 99.6698 -100.5 222 -100.5C344.33 -100.5 443.5 -1.15432 443.5 121.397Z" stroke="white"/>
<path opacity="0.5" d="M416.527 126.155C416.527 231.326 331.329 316.583 226.232 316.583C121.135 316.583 35.936 231.326 35.936 126.155C35.936 20.9847 121.135 -64.2725 226.232 -64.2725C331.329 -64.2725 416.527 20.9847 416.527 126.155Z" stroke="white"/>
<path opacity="0.5" d="M416.527 99.9777C416.527 205.148 331.329 290.406 226.232 290.406C121.135 290.406 35.936 205.148 35.936 99.9777C35.936 -5.19303 121.135 -90.4502 226.232 -90.4502C331.329 -90.4502 416.527 -5.19303 416.527 99.9777Z" stroke="white"/>
<path fill-rule="evenodd" clip-rule="evenodd" d="M282.597 105.085C285.265 107.664 287.399 110.776 289 114.155H289C293.356 124.227 290.136 136.379 285.177 146.168C285.082 146.404 284.862 146.414 284.704 146.306C284.639 146.433 284.573 146.559 284.508 146.686C283.449 146.212 282.361 145.731 281.291 145.258H281.29L281.289 145.257L281.284 145.255C279.044 144.263 276.88 143.307 275.217 142.522H275.216C274.497 142.182 273.705 141.899 272.815 141.81C272.663 141.81 272.516 141.821 272.373 141.841L269.081 140.12V140.121C268.487 139.725 267.94 139.802 267.302 140.121C267.024 140.267 266.753 140.423 266.49 140.589L264.278 139.053V139.054C263.745 138.698 263.3 138.165 263.3 137.453C262.233 133.541 259.743 130.073 256.275 127.849C255.024 126.932 253.656 126.171 252.216 125.566C252.417 113.835 252.158 102.026 250.585 90.6793C232.177 88.1006 213.059 87.2114 194.83 91.1239C193.51 100.935 192.857 113.596 193.491 126.479C192.691 126.912 191.92 127.398 191.183 127.938C187.715 130.161 185.226 133.629 184.158 137.542C184.158 137.897 183.981 138.253 183.803 138.52L183.74 138.583C183.69 138.633 183.649 138.675 183.607 138.714C183.406 138.904 183.176 139.062 181.858 139.975L181.855 139.977L181.85 139.98C181.588 140.161 181.283 140.372 180.926 140.619C180.649 140.442 180.362 140.277 180.068 140.122V140.121C179.562 139.785 178.947 139.742 178.379 140.121L175.089 141.84C174.945 141.82 174.797 141.81 174.644 141.81C173.755 141.899 172.962 142.182 172.243 142.521C170.716 143.242 168.397 144.517 165.899 145.925C166.655 140.749 167.197 136.61 165.84 130.429C164.634 124.932 161.932 119.579 158.46 115.489C157.236 114.048 156.028 112.577 154.992 111.043C150.958 105.077 151.702 97.1712 154.814 90.9468C159.499 81.5765 169.809 74.0812 178.823 71.4726C181.874 70.5915 184.656 70.3049 187.499 70.012C191.838 69.565 196.321 69.1032 202.121 66.4931C206.511 64.4202 208.803 62.7655 211.062 61.1349C212.42 60.1544 213.766 59.1827 215.549 58.1339C219.549 55.8833 225.919 54.4292 230.31 53.8657C237.513 52.7987 244.982 52.1763 252.096 53.9547C262.227 56.5211 270.819 64.1797 271.393 74.4959C271.475 76.3936 271.194 78.253 270.914 80.1097C270.589 82.2549 270.265 84.3964 270.503 86.589C271.18 93.1311 275.864 98.0204 280.251 102.6C281.052 103.436 281.842 104.262 282.597 105.085ZM264.724 155.06C265.969 156.506 268.811 159.694 271.865 162.993C267.244 166.656 261.771 169.025 255.195 169.53C255.922 168.907 256.272 168.197 256.098 167.154V167.153C255.243 161.601 253.2 155.437 250.676 150.388C244.785 148.44 237.349 146.768 231.323 145.663C238.551 145.448 245.087 145.472 251.563 145.901L251.596 145.066C251.633 144.107 251.671 143.146 251.708 142.182V142.182C252.191 142.756 252.67 143.326 253.163 143.855C253.875 144.655 254.764 145.278 255.653 145.811C256.149 146.109 256.562 146.13 257.001 146.151C257.348 146.169 257.71 146.187 258.143 146.345C258.185 146.365 258.232 146.387 258.282 146.409C258.442 146.48 258.63 146.565 258.765 146.7C259.561 147.297 260.384 147.921 261.188 148.558C261.137 148.884 261.1 149.214 261.078 149.547C261.078 150.164 261.104 150.75 261.7 151.147C262.488 151.996 263.318 152.803 264.189 153.541C264.188 154.318 264.306 154.479 264.546 154.807C264.599 154.88 264.658 154.961 264.724 155.06ZM170.251 168.795C171.081 169.444 171.991 169.997 172.954 170.444C177.192 172.34 181.708 171.667 185.83 171.035C185.707 170.601 185.781 170.11 186.115 169.554C188.338 164.486 191.095 159.773 194.474 155.415C194.618 155.223 194.739 155.056 194.844 154.909L194.846 154.907L194.846 154.906L194.846 154.905C195.495 154.002 195.615 153.837 197.601 153.004C203.011 150.709 209.598 148.285 215.4 146.387C212.657 146.539 209.796 146.704 206.795 146.877H206.795H206.792L206.785 146.878H206.783H206.775L206.768 146.879C203.311 147.078 199.668 147.289 195.808 147.501C195.542 146.038 195.3 144.558 195.079 143.065C194.82 143.366 194.56 143.661 194.295 143.945C193.584 144.745 192.695 145.367 191.806 145.901C191.309 146.198 190.896 146.22 190.458 146.241C190.111 146.259 189.748 146.277 189.316 146.434C189.274 146.455 189.227 146.476 189.177 146.499C189.017 146.57 188.829 146.654 188.693 146.79C187.834 147.396 187.003 148.032 186.201 148.68C186.242 148.966 186.273 149.256 186.293 149.547C186.293 150.207 186.262 150.626 185.759 151.148C184.984 151.952 184.191 152.736 183.359 153.457V153.458C183.376 154.383 183.262 154.538 183.003 154.895L183.003 154.896L183.003 154.896C182.95 154.969 182.891 155.05 182.825 155.148C180.832 157.463 174.745 164.243 170.251 168.795ZM252.138 129.272L252.137 129.313C252.243 129.387 252.348 129.462 252.453 129.539C252.349 129.448 252.244 129.36 252.138 129.272ZM204.966 75.2954C205.358 75.6871 210.459 83.322 210.709 83.8156V83.8149C211.383 85.1418 210.351 85.1341 209.688 84.54C208.861 83.7995 204.077 77.4287 203.544 76.0957C203.277 75.2065 204.344 74.7619 204.966 75.2954ZM224.174 83.4768C224.648 79.9959 224.878 72.9881 224.619 71.5608C224.441 70.8494 223.272 70.8479 223.196 71.5608C223.175 71.7501 223.436 82.1108 223.551 83.3879C223.463 83.8325 224.085 83.9214 224.174 83.4768ZM242.937 78.5855C242.383 79.6931 239.52 83.6202 237.796 85.2521C237.214 85.8018 236.826 85.2866 237.19 84.7025C238.035 83.3473 241.385 78.6514 241.959 77.963C242.314 77.6963 243.115 77.963 242.937 78.5855Z" fill="white"/>
<path d="M231.11 190.006C229.794 191.058 229.29 191.011 227.998 191.873C227.815 192.056 227.904 192.344 228.416 192.184C229.237 191.924 230.51 191.304 231.466 190.539C231.758 190.394 231.592 189.764 231.11 190.006Z" fill="white"/>
<path d="M231.056 192.177C228.74 193.722 228.402 193.721 227.844 193.952C227.742 193.994 227.784 194.567 228.247 194.491C229.64 194.265 230.863 193.253 231.347 192.929C232.7 192.027 231.903 191.329 231.055 192.177L231.056 192.177Z" fill="white"/>
<path d="M226.087 147.613C225.999 153.484 225.954 158.529 226.577 164.308C226.577 164.664 227.516 164.604 227.427 164.159C226.894 158.29 227.001 153.453 226.957 147.583C226.951 146.832 226.101 146.741 226.087 147.613Z" fill="white"/>
<path fill-rule="evenodd" clip-rule="evenodd" d="M214.337 146.446C207.516 148.799 197.676 152.638 195.575 153.547C195.126 153.741 195.011 153.911 194.877 154.107C194.852 154.142 194.827 154.179 194.799 154.217C191.134 158.693 188.428 163.799 185.937 169.021C185.509 169.919 185.048 170.888 185.759 171.778C186.471 172.489 187.271 173.022 188.249 173.378C188.249 173.378 193.662 176.128 194.725 176.656C195.054 179.199 195.428 180.797 195.716 182.023C195.781 182.3 195.842 182.558 195.896 182.804C195.985 183.694 196.519 184.494 197.141 185.027C198.208 185.65 199.275 186.183 200.342 186.628C201.242 187.063 202.1 187.478 202.925 187.877C211.152 191.857 216.04 194.221 225.863 198.455C226.11 198.537 226.281 198.391 226.375 198.158C233.73 194.783 240.521 190.376 246.849 185.295C247.121 185.076 247.395 184.858 247.671 184.639C248.9 183.662 250.151 182.668 251.295 181.559C252.485 180.407 252.536 178.739 252.586 177.144C252.596 176.802 252.607 176.464 252.628 176.135C252.654 175.754 252.68 175.373 252.707 174.991C252.779 173.942 252.852 172.889 252.895 171.831C253.587 171.349 254.27 170.858 254.94 170.356C255.741 169.911 256.363 169.2 256.63 168.31C256.719 167.332 256.63 166.265 256.363 165.287L256.365 165.286C255.423 160.318 253.931 155.375 251.479 150.869C251.085 150.145 250.822 149.903 250.363 149.772C246.094 148.56 238.638 146.812 232.388 145.633C231.193 145.665 229.98 145.703 228.745 145.749C228.852 145.769 228.958 145.79 229.065 145.811C236.584 147.065 242.919 148.373 250.237 150.51C244.026 155.028 237.471 158.945 230.487 162.262C229.151 162.902 227.512 163.454 225.941 163.984C225.237 164.221 224.547 164.454 223.904 164.688C223.514 164.393 215.856 161.672 210.452 159.753C209.662 159.472 208.92 159.208 208.257 158.972C207.423 158.676 206.579 158.386 205.731 158.095C202.402 156.954 199.006 155.789 195.907 154.072C203.754 150.886 206.977 149.772 210.522 148.546C212.127 147.992 213.797 147.414 215.993 146.612H215.994C216.281 146.507 216.57 146.405 216.86 146.307C216.03 146.352 215.189 146.398 214.337 146.446ZM186.204 170.176C185.848 171.51 186.924 172.026 187.893 172.488C191.019 173.979 193.638 175.281 195.936 176.424C200.384 178.637 203.628 180.251 207.012 181.47C207.404 181.611 207.798 181.77 208.189 181.927C208.853 182.194 209.508 182.458 210.124 182.626C210.349 182.687 210.589 182.768 210.836 182.85C211.662 183.128 212.572 183.433 213.325 183.159C214.102 182.876 214.486 182.089 214.834 181.376C214.924 181.192 215.012 181.012 215.104 180.847C215.827 179.281 217.271 176.672 218.901 173.725C220.377 171.059 222.005 168.116 223.39 165.421C223.049 165.228 216.399 162.781 205.767 159.061C205.182 158.857 204.592 158.656 204 158.454C201.032 157.444 198.013 156.417 195.332 154.813C192.346 158.613 189.689 162.681 187.627 167.064C187.093 168.042 186.56 169.109 186.204 170.176ZM198.972 185.142C199.17 185.222 199.362 185.3 199.543 185.382L199.56 185.391C208.153 189.556 216.746 193.722 225.504 197.392C224.377 188.754 223.656 177.573 223.825 166.38C222.629 168.634 221.401 170.871 220.174 173.109C218.795 175.622 217.416 178.135 216.082 180.67C215.638 181.737 215.104 182.626 214.393 183.426C213.682 184.048 212.615 184.226 211.725 183.96C206.567 182.373 200.203 179.357 195.396 176.986C195.631 178.441 196.244 182.145 196.786 183.515C197.133 184.392 198.098 184.785 198.972 185.142ZM251.687 176.705C251.714 175.967 251.744 175.117 251.83 174.089C251.865 173.562 251.895 173.033 251.921 172.503C251.126 173.046 250.323 173.582 249.519 174.118L249.429 174.178C242.554 178.761 234.799 182.082 231.555 182.893C230.755 183.07 229.955 182.537 229.777 181.737C229.722 181.571 229.607 181.13 229.44 180.486C228.691 177.606 226.888 170.662 224.622 166.12C224.639 166.342 224.636 166.923 224.631 167.828C224.606 171.978 224.541 182.942 226.307 197.281C234.832 193.516 241.98 188.554 249.162 182.27C249.962 181.737 250.674 181.025 251.207 180.225C251.6 179.146 251.636 178.134 251.687 176.705ZM249.873 172.845C251.652 171.689 253.367 170.563 254.942 169.199V169.198C255.762 168.488 255.68 167.604 255.591 166.649C255.582 166.551 255.573 166.452 255.564 166.353C255.335 163.597 253.555 157.099 250.651 151.275C248.425 153.003 241.272 157.952 235.195 161.142C232.172 162.813 228.634 164.215 225.248 165.319C227.627 169.138 230.129 179.428 230.485 180.892C230.512 181 230.527 181.06 230.528 181.065C230.782 181.782 231.022 182.181 231.733 182.003C232.267 181.914 232.711 181.737 233.156 181.559C239.213 179.357 245.239 176.053 249.873 172.845Z" fill="white"/>
<path fill-rule="evenodd" clip-rule="evenodd" d="M185.314 133.72C187.114 130.43 190.085 127.789 193.47 126.041C193.481 126.283 193.493 126.525 193.505 126.768C189.644 128.874 186.522 131.991 184.869 136.121C184.765 136.407 184.692 136.715 184.618 137.026C184.438 137.781 184.254 138.552 183.624 139.056C182.819 139.675 182.014 140.251 181.178 140.785C181.031 140.685 180.881 140.589 180.729 140.497C181.862 139.653 182.167 139.446 182.403 139.285C182.573 139.168 182.707 139.077 183.091 138.789C183.446 138.522 183.713 138.077 183.802 137.633C184.158 136.299 184.602 134.965 185.314 133.72ZM186.261 149.174C186.776 148.752 187.287 148.336 187.804 147.948C188.249 147.504 188.782 147.148 189.316 146.881C189.672 146.762 190.027 146.723 190.383 146.683C190.561 146.664 190.739 146.644 190.917 146.614C191.984 146.348 192.873 145.814 193.673 145.014C194.174 144.513 194.675 144.012 195.144 143.495C195.099 143.2 195.055 142.904 195.012 142.607C193.255 144.57 192.046 145.903 189.938 145.903C188.871 146.17 187.893 146.703 187.093 147.504C186.764 147.75 186.443 147.997 186.129 148.246C186.186 148.552 186.23 148.862 186.261 149.174Z" fill="white"/>
<path fill-rule="evenodd" clip-rule="evenodd" d="M257.234 146.298C254.998 146.298 253.209 144.342 251.696 142.511L251.732 141.589C251.975 141.865 252.189 142.117 252.392 142.354C253.207 143.311 253.823 144.033 255.297 145.101C255.656 145.362 256.186 145.546 256.72 145.635C258.443 145.635 259.578 146.61 261.273 148.087C261.227 148.318 261.187 148.55 261.156 148.784C260.481 148.228 259.791 147.681 259.101 147.188C258.568 146.743 257.945 146.387 257.234 146.298ZM266.781 140.412C266.403 140.127 265.798 139.672 264.793 138.918V138.917C264.437 138.74 264.081 138.384 263.815 138.028C263.548 137.406 263.37 136.783 263.281 136.072C262.784 134.336 260.757 130.87 257.768 128.425C256.232 127.145 254.283 125.957 252.224 125.07L252.215 125.61C257.061 127.735 261.365 131.84 262.767 136.743C262.856 137.365 263.123 137.988 263.478 138.521C264.012 138.966 264.545 139.41 265.168 139.766C265.586 140.079 266.004 140.362 266.423 140.633C266.541 140.557 266.66 140.484 266.781 140.412ZM252.362 129.54C252.287 129.49 252.211 129.44 252.136 129.391C252.142 129.107 252.149 128.823 252.156 128.539C252.346 128.691 252.533 128.847 252.718 129.007C253.074 129.273 252.718 129.718 252.362 129.54Z" fill="white"/>
<path d="M232.444 117.179C232.372 116.465 231.911 115.756 231.288 115.4C230.577 115.134 229.866 115.134 229.154 115.311C226.175 115.959 220.499 115.868 218.039 115.399C217.327 115.132 216.527 115.043 215.727 115.132C213.617 115.736 213.574 118.394 215.371 119.222C215.46 119.222 215.46 119.311 215.549 119.311C216.565 119.692 217.851 118.82 218.305 121.09C218.505 121.589 220.262 127.115 220.517 127.779C220.619 128.045 221.219 127.729 221.187 127.499C221.015 126.281 219.733 123.381 219.372 122.068C219.126 121.173 218.839 120.29 218.394 119.401C217.95 118.778 217.238 118.423 216.438 118.512C215.549 118.512 214.66 117.889 214.926 116.911C215.282 115.755 216.438 115.933 217.416 116.111C220.289 116.86 226.192 116.861 229.065 116.112C229.955 115.934 231.199 115.756 231.555 116.912C231.822 117.89 230.933 118.512 230.043 118.512C229.332 118.424 228.621 118.779 228.176 119.313C227.165 121.336 226.124 126.097 225.581 127.388C225.35 127.937 226.178 127.855 226.279 127.588C226.951 125.812 227.767 122.47 228.532 120.558C228.621 120.113 228.888 119.757 229.243 119.579C229.688 119.491 230.043 119.491 230.488 119.491C231.644 119.402 232.561 118.332 232.444 117.179Z" fill="white"/>
<path d="M186.47 148.924C186.097 145.562 183.736 141.688 179.89 139.765C179.535 139.588 179.179 139.499 178.823 139.588C178.379 139.765 177.934 140.032 177.49 140.299C176.641 140.691 175.841 141.131 175.053 141.618C171.944 141.267 167.515 145.027 154.903 151.859C154.814 151.948 154.991 152.211 155.17 152.126C160.656 149.512 166.198 145.901 171.354 143.323C172.332 142.701 173.488 142.345 174.644 142.167C176.067 142.345 177.401 142.967 178.468 143.945C180.691 145.724 182.113 148.214 182.647 150.971C182.825 151.593 182.914 152.305 182.914 153.016C183.003 153.372 183.003 153.727 182.914 154.172C182.825 154.439 182.647 154.706 182.38 154.972C182.024 155.417 181.669 155.861 181.224 156.217C174.384 163.791 170.804 167.738 165.751 172.401C165.307 172.757 165.929 173.291 166.285 172.935C169.096 170.594 170.75 168.648 173.665 165.732C177.807 161.457 180.258 158.557 182.824 155.595C183.18 155.239 183.358 154.883 183.535 154.439C183.561 154.233 183.579 154.028 183.59 153.822C184.808 152.726 185.301 152.166 186.114 151.237C186.559 150.526 186.736 149.725 186.47 148.925L186.47 148.924ZM184.07 152.481C183.909 152.624 183.749 152.758 183.589 152.89C183.416 149.767 182.136 146.918 180.157 144.656C178.76 143.118 176.795 142.031 175.727 141.745C177.711 140.82 177.864 140.414 179.089 140.21C179.623 140.299 180.156 140.477 180.601 140.832C184.165 143.138 185.859 146.71 185.936 149.813C185.963 150.88 184.869 151.77 184.069 152.481H184.07Z" fill="white"/>
<path d="M289.977 149.102C284.998 146.396 275.597 142.329 274.416 141.899C273.778 141.654 273.087 141.571 272.4 141.636C271.243 140.92 269.414 139.893 269.042 139.716C268.72 139.561 268.395 139.461 268.102 139.498C267.302 139.676 266.502 140.12 265.879 140.654C264.024 141.978 262.683 143.54 261.611 145.989C261.345 146.7 261.078 147.501 260.989 148.301C260.811 149.101 260.811 149.902 260.989 150.613C261.433 151.502 262.145 152.213 262.856 152.836C264.011 154.134 263.691 153.254 263.834 154.259C264.101 154.881 264.546 155.503 264.99 155.948C265.285 156.242 276.688 169.372 281.085 172.755C281.441 173.11 282.064 172.488 281.619 172.221C279.485 170.354 277.491 168.351 275.572 166.264C273.246 163.732 268.085 158.399 265.524 155.326C264.99 154.703 264.457 154.259 264.457 153.369C264.457 152.036 264.723 150.791 265.079 149.546C265.791 147.145 267.302 145.011 269.347 143.499C270.325 142.61 271.659 142.165 272.993 141.988C274.149 142.165 275.305 142.521 276.283 143.144C280.818 145.1 285.354 147.145 289.8 149.19C290.066 149.457 290.244 149.19 289.977 149.101V149.102ZM264.101 150.614C263.945 151.701 263.947 150.995 263.793 152.75C263.622 152.607 263.457 152.459 263.301 152.303C262.589 151.592 261.406 150.791 261.433 149.636C261.478 147.767 262.056 145.99 263.034 144.477C264.353 142.102 266.943 140.363 268.297 140.137C268.775 140.205 270.756 141.272 271.65 141.765C268.387 142.591 264.976 146.234 264.101 150.613V150.614Z" fill="white"/>
<path d="M239.024 102.418C234.099 89.2837 213.906 88.531 208.079 101.351C205.322 107.308 207.456 114.245 210.657 119.669C212.534 122.824 214.654 125.734 216.237 128.947C215.72 129.032 215.351 129.164 215.192 129.717C214.926 131.229 214.748 132.74 214.837 134.253C214.748 135.942 214.837 137.632 214.926 139.321C214.926 139.499 215.015 139.677 215.192 139.677C218.052 140.269 226.244 140.917 231.377 139.855C231.554 139.766 231.643 139.677 231.643 139.499C231.794 136.622 231.877 132.732 231.377 129.896C231.203 129.291 230.779 129.19 230.266 129.103C234.687 120.582 237.079 119.717 239.29 111.755C240.18 108.643 240.091 105.442 239.024 102.418H239.024ZM230.755 130.785C231.012 133.529 231.103 136.356 230.95 139.106C227.213 139.869 219.579 139.737 215.619 138.929C215.556 137.849 215.521 136.758 215.52 135.665C220.094 135.691 227.445 135.882 229.954 135.942C230.132 135.942 230.221 135.764 230.221 135.586C230.221 135.498 230.132 135.409 229.954 135.32C229.046 135.308 217.159 135.064 215.524 135.078C215.535 134.181 215.571 133.285 215.638 132.393C217.98 132.383 220.331 132.191 222.759 132.191C229.334 132.191 228.21 132.305 230.043 132.305C230.398 132.305 230.398 131.771 230.043 131.771C224.875 131.402 219.905 131.61 215.674 131.943C215.713 131.496 215.76 131.05 215.815 130.607C215.815 129.641 215.914 129.54 217.06 129.54C222.172 128.901 228.651 129.347 230.487 129.807C230.665 129.984 230.665 130.429 230.754 130.785H230.755ZM234.845 119.936C233.018 122.895 230.586 125.729 229.567 129.017C223.381 128.28 222.242 128.258 216.952 128.858C215.371 123.979 211.086 120.934 208.346 112.467C206.421 106.514 207.889 100.044 213.326 96.0156C221.463 90.0986 234.187 92.8605 238.046 102.151C240.536 108.109 237.957 114.778 234.845 119.936Z" fill="white"/>
<path d="M179.242 142.558C179.628 142.558 179.942 142.244 179.942 141.858C179.942 141.472 179.628 141.158 179.242 141.158C178.855 141.158 178.542 141.472 178.542 141.858C178.542 142.244 178.855 142.558 179.242 142.558Z" fill="white"/>
<path d="M267.782 142.687C268.168 142.687 268.482 142.373 268.482 141.987C268.482 141.601 268.168 141.287 267.782 141.287C267.396 141.287 267.082 141.601 267.082 141.987C267.082 142.373 267.396 142.687 267.782 142.687Z" fill="white"/>
<path d="M201.321 130.518C201.232 129.717 200.611 129.527 199.987 129.451C199.1 129.343 198.209 129.362 197.32 129.451C193.768 129.619 189.733 131.073 186.826 133.808C186.56 133.897 186.737 134.163 187.004 134.075C188.605 132.919 190.367 131.991 192.25 131.229C195.032 130.104 197.302 130.162 199.453 130.162C199.986 130.162 200.698 130.251 200.253 130.873C198.174 132.952 195.55 134.505 192.428 135.497C192.25 135.586 192.161 135.675 192.161 135.853C192.161 138.466 191.105 140.805 189.405 142.789C188.871 143.411 188.16 143.945 187.538 144.478C187.181 144.657 187.585 145.31 187.982 145.101C188.792 144.674 189.494 144.033 190.027 143.322C191.8 141.296 192.883 139.063 192.958 136.127C195.521 135.319 197.837 134.016 199.986 132.295C200.52 131.851 201.409 131.317 201.32 130.517L201.321 130.518Z" fill="white"/>
<path fill-rule="evenodd" clip-rule="evenodd" d="M251.118 90.5019C251.118 90.2351 250.94 90.0573 250.674 90.0573C231.692 87.51 213.61 86.8347 194.83 90.5908C194.462 90.6429 194.367 91.0124 194.478 91.2699C193.625 96.5614 193.102 105.841 192.962 111.4C192.818 117.685 192.906 124.115 193.344 130.507C193.677 130.411 194.014 130.323 194.352 130.245C193.35 116.518 194.22 105.141 195 94.9337C195.09 93.7563 195.179 92.5944 195.264 91.4462C205.739 89.372 213.718 88.886 222.793 88.9281C222.787 89.5424 222.828 90.4149 222.889 91.7056C223.033 94.7377 223.285 100.077 223.285 109.798C223.508 128.3 223.148 134.367 222.59 143.765C222.557 144.319 222.524 144.885 222.489 145.465C213.288 145.934 202.811 146.607 197.909 146.922L197.908 146.923L197.881 146.925C197.316 146.961 196.826 146.992 196.421 147.018C195.695 142.818 195.156 138.819 194.767 134.998C194.433 135.142 194.094 135.278 193.751 135.406C194.152 139.489 194.708 143.537 195.452 147.503C195.541 147.68 195.63 147.769 195.808 147.769C203.099 147.325 210.302 146.969 217.594 146.613L218.773 146.555C230.503 145.975 240.782 145.467 251.563 146.169C251.83 146.169 252.003 145.991 252.007 145.724C252.055 143.136 252.169 140.193 252.294 136.959V136.959C252.32 136.272 252.348 135.571 252.375 134.858C252.153 134.758 251.933 134.654 251.715 134.546C251.649 136.618 251.515 138.702 251.381 140.784V140.784C251.285 142.273 251.19 143.761 251.119 145.241C241.922 144.712 232.725 144.958 223.552 145.411C224.713 130.453 223.919 93.7099 223.552 88.9327C229.442 88.9833 237.306 89.3076 250.171 90.9587C251.751 103.789 252.05 117.02 251.819 129.998C252.061 130.035 252.303 130.078 252.542 130.125C252.91 118.698 253.022 104.783 251.118 90.5026V90.5019Z" fill="white"/>
<path d="M260.633 133.719C258.143 131.14 254.408 129.807 250.94 129.451C250.05 129.362 249.072 129.273 248.183 129.362C247.561 129.362 246.76 129.451 246.405 129.984C246.049 130.518 246.583 131.318 247.027 131.674C249.184 133.658 251.759 135.14 254.59 136.039C254.639 137.806 255.126 139.506 255.919 141.011C256.703 142.497 258.079 144.319 259.565 145.102C259.74 145.194 259.921 145.191 260.01 145.013C260.098 144.835 260.098 144.657 259.921 144.568C259.298 143.946 258.676 143.501 258.053 142.879C256.302 140.835 255.432 138.505 255.297 135.943C255.297 135.765 255.208 135.587 255.03 135.587C253.074 134.965 251.206 134.076 249.517 132.92C249.072 132.653 248.628 132.297 248.272 131.941C247.828 131.675 247.472 131.319 247.205 130.963C246.76 130.341 247.561 130.252 248.005 130.252C252.651 130.252 256.167 131.068 260.454 134.164C260.632 134.164 260.81 133.898 260.632 133.72L260.633 133.719Z" fill="white"/>
</svg>
