<svg width="226" height="140" viewBox="0 0 226 140" fill="none" xmlns="http://www.w3.org/2000/svg">
<g opacity="0.5">
<path opacity="0.5" d="M317.931 -19.5C317.931 68.3141 246.871 139.5 159.216 139.5C71.5602 139.5 0.5 68.3141 0.5 -19.5C0.5 -107.314 71.5602 -178.5 159.216 -178.5C246.871 -178.5 317.931 -107.314 317.931 -19.5Z" stroke="#FDFDFD"/>
<path opacity="0.5" d="M298.586 -16.0863C298.586 59.2628 237.546 120.345 162.25 120.345C86.9539 120.345 25.9138 59.2628 25.9138 -16.0863C25.9138 -91.4354 86.9539 -152.517 162.25 -152.517C237.546 -152.517 298.586 -91.4354 298.586 -16.0863Z" stroke="#FDFDFD"/>
<path opacity="0.5" d="M298.586 -34.8619C298.586 40.4872 237.546 101.569 162.25 101.569C86.9539 101.569 25.9138 40.4872 25.9138 -34.8619C25.9138 -110.211 86.9539 -171.293 162.25 -171.293C237.546 -171.293 298.586 -110.211 298.586 -34.8619Z" stroke="#FDFDFD"/>
</g>
</svg>
