<svg width="80" height="80" viewBox="0 0 80 80" fill="none" xmlns="http://www.w3.org/2000/svg">
<rect width="80" height="80" rx="20" fill="#4AD991" fill-opacity="0.2"/>
<path d="M35.8333 37.4999H27.51C27.5564 40.2216 27.8882 42.9309 28.5 45.5833C30.9299 45.2391 33.3794 45.0504 35.8333 45.0183V37.4999ZM31.7592 17.2774C27.4548 18.3757 23.6372 20.8725 20.9058 24.3758C22.9818 25.0047 25.0951 25.5031 27.2333 25.8683C28.2767 22.1666 29.8483 19.1774 31.7592 17.2774ZM35.8333 56.5766V46.6824C33.5223 46.7139 31.2153 46.8884 28.9258 47.2049C30.4242 52.3458 32.96 55.9799 35.8333 56.5766ZM31.7592 56.0558C29.8483 54.1558 28.2767 51.1666 27.2333 47.4658C25.0955 47.8308 22.9824 48.329 20.9067 48.9574C23.6376 52.4608 27.455 54.9577 31.7592 56.0558ZM35.8333 28.3174C33.3794 28.2857 30.9299 28.0972 28.5 27.7533C27.8884 30.4046 27.5566 33.1127 27.51 35.8333H35.8333V28.3174ZM35.8333 16.7566C32.96 17.3533 30.4242 20.9874 28.925 26.1291C31.2148 26.4454 33.522 26.6196 35.8333 26.6508V16.7566ZM16.6875 35.8333H25.8433C25.8826 33.0252 26.2101 30.2286 26.8208 27.4874C24.474 27.0823 22.1569 26.5208 19.885 25.8066C17.9377 28.8009 16.8332 32.2645 16.6875 35.8333ZM44.4083 26.1291C42.9092 20.9874 40.3733 17.3533 37.5 16.7566V26.6508C39.8113 26.6196 42.1185 26.4454 44.4083 26.1291ZM55.9408 41.9708C56.3407 40.5116 56.5736 39.0117 56.635 37.4999H47.4783C47.4491 39.538 47.2708 41.5712 46.945 43.5833C48.2553 42.7154 49.7293 42.1247 51.2763 41.8474C52.8233 41.5701 54.4107 41.6121 55.9408 41.9708ZM56.6458 35.8333C56.5002 32.2645 55.3956 28.8009 53.4483 25.8066C51.1764 26.5208 48.8593 27.0823 46.5125 27.4874C47.1232 30.2286 47.4508 33.0252 47.49 35.8333H56.6458ZM26.8208 45.8466C26.2101 43.1052 25.8825 40.3083 25.8433 37.4999H16.6875C16.8332 41.0687 17.9377 44.5323 19.885 47.5266C22.1571 46.8134 24.4742 46.2522 26.8208 45.8466ZM52.4275 24.3758C49.6961 20.8725 45.8785 18.3757 41.5742 17.2774C43.485 19.1774 45.0567 22.1674 46.1 25.8683C48.2382 25.5031 50.3515 25.0047 52.4275 24.3758ZM53.3333 43.3333C51.3555 43.3333 49.4221 43.9197 47.7776 45.0186C46.1331 46.1174 44.8514 47.6792 44.0945 49.5064C43.3377 51.3337 43.1396 53.3444 43.5255 55.2842C43.9113 57.224 44.8637 59.0058 46.2623 60.4043C47.6608 61.8029 49.4426 62.7553 51.3824 63.1411C53.3222 63.527 55.3329 63.3289 57.1602 62.5721C58.9874 61.8152 60.5492 60.5335 61.648 58.889C62.7468 57.2445 63.3333 55.3111 63.3333 53.3333C63.3305 50.682 62.276 48.1401 60.4012 46.2654C58.5265 44.3906 55.9846 43.3361 53.3333 43.3333ZM58.1575 49.6783L51.6767 58.0116C51.6041 58.1048 51.5126 58.1816 51.4082 58.2367C51.3037 58.2919 51.1887 58.3242 51.0708 58.3316H51.0192C50.7982 58.3315 50.5862 58.2437 50.43 58.0874L48.5775 56.2349C48.4257 56.0778 48.3417 55.8673 48.3436 55.6488C48.3455 55.4303 48.4331 55.2212 48.5877 55.0667C48.7422 54.9122 48.9512 54.8246 49.1697 54.8227C49.3882 54.8208 49.5987 54.9048 49.7558 55.0566L50.9408 56.2416L56.8425 48.6533C56.9087 48.5642 56.9921 48.4893 57.0876 48.4328C57.1832 48.3764 57.2891 48.3397 57.399 48.3247C57.509 48.3098 57.6208 48.317 57.728 48.3458C57.8351 48.3747 57.9355 48.4247 58.023 48.4928C58.1106 48.561 58.1837 48.6459 58.238 48.7427C58.2923 48.8395 58.3267 48.9462 58.3393 49.0564C58.3518 49.1667 58.3422 49.2783 58.3109 49.3848C58.2797 49.4913 58.2276 49.5905 58.1575 49.6766V49.6783Z" fill="#4AD991"/>
<path d="M37.5 46.6817V56.635C39.0117 56.5736 40.5116 56.3407 41.9708 55.9408C41.6185 54.4388 41.5717 52.8812 41.8334 51.3607C42.0951 49.8402 42.6599 48.3878 43.4942 47.09C41.5049 46.8465 39.5039 46.7102 37.5 46.6817ZM44.8333 27.75C42.4034 28.094 39.954 28.2824 37.5 28.3142V35.8333H45.8233C45.777 33.1117 45.4452 30.4024 44.8333 27.75ZM44.9117 45.2817C45.4739 42.7249 45.7754 40.1176 45.8117 37.5H37.5V45.015C39.8949 45.0473 42.2854 45.2296 44.6575 45.5608C44.7417 45.4667 44.8242 45.3725 44.9117 45.2817Z" fill="#4AD991"/>
</svg>
