<svg width="153" height="87" viewBox="0 0 153 87" fill="none" xmlns="http://www.w3.org/2000/svg">
<g opacity="0.5">
<path opacity="0.5" d="M252.5 126.726C252.5 196.44 196.087 252.952 126.5 252.952C56.913 252.952 0.5 196.44 0.5 126.726C0.5 57.0125 56.913 0.5 126.5 0.5C196.087 0.5 252.5 57.0125 252.5 126.726Z" stroke="#8A99A5"/>
<path opacity="0.5" d="M237.13 129.437C237.13 189.247 188.678 237.732 128.911 237.732C69.1432 237.732 20.6915 189.247 20.6915 129.437C20.6915 69.6274 69.1432 21.1426 128.911 21.1426C188.678 21.1426 237.13 69.6274 237.13 129.437Z" stroke="#8A99A5"/>
<path opacity="0.5" d="M237.13 114.52C237.13 174.33 188.678 222.814 128.911 222.814C69.1432 222.814 20.6915 174.33 20.6915 114.52C20.6915 54.7101 69.1432 6.22534 128.911 6.22534C188.678 6.22534 237.13 54.7101 237.13 114.52Z" stroke="#8A99A5"/>
</g>
</svg>
