<svg width="444" height="445" viewBox="0 0 444 445" fill="none" xmlns="http://www.w3.org/2000/svg">
<path opacity="0.5" d="M443.5 222.397C443.5 344.948 344.33 444.293 222 444.293C99.6698 444.293 0.5 344.948 0.5 222.397C0.5 99.8457 99.6698 0.5 222 0.5C344.33 0.5 443.5 99.8457 443.5 222.397Z" stroke="white"/>
<path opacity="0.5" d="M416.527 227.155C416.527 332.326 331.328 417.583 226.231 417.583C121.134 417.583 35.9355 332.326 35.9355 227.155C35.9355 121.985 121.134 36.7275 226.231 36.7275C331.328 36.7275 416.527 121.985 416.527 227.155Z" stroke="white"/>
<path opacity="0.5" d="M416.527 200.978C416.527 306.148 331.328 391.406 226.231 391.406C121.134 391.406 35.9355 306.148 35.9355 200.978C35.9355 95.807 121.134 10.5498 226.231 10.5498C331.328 10.5498 416.527 95.807 416.527 200.978Z" stroke="white"/>
<path d="M313.011 191.89C312.904 191.159 312.826 190.915 311.909 190.496C308.078 188.907 293.726 188.683 289.582 188.634C289.597 187.837 289.412 187.05 289.046 186.343C287.495 184.773 277.58 184.958 275.474 184.529C275.279 184.529 275.298 184.529 275.249 184.354C274.752 183.135 274.625 179.05 273.816 177.626C272.305 174.955 266.572 173.424 263.033 175.949C261.207 175.399 259.256 175.426 257.446 176.027C256.47 176.424 255.593 177.03 254.876 177.801C254.158 178.572 253.618 179.491 253.292 180.493C252.741 182.335 252.443 184.244 252.405 186.167C250.601 186.762 241.202 187.464 240.12 188.868C239.853 189.278 239.677 189.74 239.603 190.223C232.973 190.72 233.685 190.808 233.607 190.574C231.131 182.862 222.209 175.15 222.209 175.15C222.005 174.964 221.8 175.15 221.351 175.345C220.841 173.896 220.188 172.501 219.401 171.181C219.42 170.856 219.31 170.536 219.095 170.292C218.879 170.047 218.576 169.897 218.251 169.875C219.128 168.832 217.666 167.164 215.657 168.539C215.316 168.042 214.955 167.564 214.585 167.038C214.806 166.897 215.006 166.726 215.18 166.531C215.384 166.16 214.205 166.531 221.215 165.214C222.512 164.951 228.235 163.791 229.015 163.537C229.103 163.527 229.185 163.486 229.248 163.422C229.31 163.358 229.348 163.275 229.356 163.186C230.721 162.436 229.2 158.38 228.615 156.937C231.043 154.587 230.565 152.062 228.508 151.33C227.56 151.04 226.554 150.993 225.583 151.194C224.661 149.601 223.407 148.224 221.907 147.157C220.805 146.553 219.957 146.923 219.704 147.499C219.45 148.074 210.071 159.199 209.954 159.267C208.179 159.774 205.556 160.885 204.689 162.514C202.68 166.326 206.58 171.006 210.383 169.524L211.075 169.3C211.484 169.894 211.991 170.567 212.44 171.162C212.355 171.318 212.283 171.481 212.225 171.649C212.118 172 211.406 172.936 211.874 173.872C212.342 174.808 215.579 177.09 216.554 177.704L216.35 177.811C216.282 177.84 216.228 177.893 216.199 177.96C216.17 178.028 216.168 178.104 216.194 178.172C216.759 179.83 219.811 187.766 218.329 187.454C216.164 186.986 210.812 184.89 204.299 182.764C200.72 181.594 198.322 180.463 195.134 179.722C194.9 178.192 194.636 177.704 194.402 176.466C195.455 176.017 196.346 175.259 196.957 174.292C197.308 173.707 196.898 173.941 197.639 174.087C197.88 174.159 198.139 174.135 198.362 174.02C198.586 173.906 198.756 173.71 198.839 173.473C199.716 173.775 200.555 173.278 200.36 172.254C200.984 172.254 202.134 172.254 202.31 171.172C202.573 169.865 200.954 169.407 200.545 168.919C199.807 168.003 199.275 166.939 198.985 165.799C198.01 162.679 197.249 157.414 195.533 155.416C194.996 154.821 194.336 154.352 193.598 154.04C192.861 153.727 192.064 153.58 191.263 153.608C190.463 153.636 189.678 153.838 188.964 154.201C188.25 154.564 187.624 155.078 187.129 155.708C186.508 155.357 185.855 155.066 185.179 154.84C184.35 154.705 183.502 154.743 182.688 154.951C181.875 155.159 181.113 155.533 180.45 156.049C177.252 158.77 178.9 163.45 176.745 168.471C176.072 170.031 172.718 173.395 175.175 174.672C175.429 174.75 175.699 174.758 175.957 174.694C176.214 174.631 176.45 174.498 176.638 174.311C176.662 174.563 176.735 174.808 176.852 175.033C177.145 175.383 177.523 175.65 177.951 175.809C178.378 175.968 178.84 176.013 179.29 175.939C179.569 175.847 179.821 175.686 180.021 175.471C180.087 175.674 180.204 175.855 180.362 175.998C181.162 176.632 182.137 176.573 182.975 175.306C183.106 175.49 183.286 175.633 183.495 175.717C183.704 175.802 183.933 175.825 184.155 175.783V179.011C183.619 179.079 183.083 179.147 182.546 179.245C182.501 179.236 182.455 179.236 182.41 179.245C176.527 180.108 171.013 182.635 166.517 186.528C162.016 190.357 158.326 195.047 155.666 200.324C153.316 205.492 153.569 207.403 154.379 211.049C154.877 213.146 155.832 215.107 157.177 216.792C158.659 218.8 160.95 221.218 164.265 224.797C165.055 225.645 166.049 226.747 166.888 227.585C166.439 229.633 163.271 242.005 163.456 244.511C163.456 244.765 163.69 245.067 164.197 245.281C165.858 245.777 167.574 246.062 169.306 246.13C168.731 266.829 170.203 293.983 172.026 314.136C171.952 314.161 171.885 314.205 171.831 314.263C171.519 315.122 171.519 316.065 171.831 316.924C171.958 317.188 172.202 317.168 172.806 317.217C172.806 318.465 172.913 319.908 172.991 321.166C172.773 321.335 172.576 321.532 172.406 321.751C172.338 321.907 172.328 321.858 172.767 324.412C172.466 325.24 172.235 326.091 172.075 326.957C171.984 327.604 171.929 328.255 171.909 328.907C171.907 329.257 172.016 329.598 172.221 329.882C173.456 330.847 174.839 331.604 176.316 332.125C177.966 331.862 179.525 331.192 180.85 330.175C181.015 330.027 181.141 329.842 181.217 329.634C181.293 329.427 181.318 329.204 181.289 328.985C181.23 327.39 180.957 325.809 180.479 324.286C180.674 323.451 180.779 322.598 180.791 321.741C180.733 321.556 180.626 321.468 180.099 321.127C180.226 319.918 180.343 318.553 180.431 317.353H181.649C182.42 317.305 182.186 315.959 182.225 314.887C182.225 314.506 181.854 314.37 181.503 314.292L190.746 254.719C191.419 258.424 193.008 267.687 192.998 271.47C192.998 272.386 190.649 302.611 190.073 310.528C189.981 310.55 189.896 310.597 189.83 310.665C189.484 311.498 189.412 312.42 189.625 313.297C189.732 313.59 190.005 313.59 190.415 313.658C190.268 315.023 190.132 316.486 190.025 317.899C189.635 317.899 189.518 317.997 189.391 318.358C189.011 319.45 188.621 323.32 189.303 324.393C189.761 325.105 205.215 328.059 209.31 326.255C210.129 325.885 210.09 325.046 209.954 324.159C209.72 322.56 203.129 320.366 201.179 319.411C200.993 319.313 201.032 319.342 200.954 319.196C199.979 317.422 199.706 316.671 199.424 316.534C199.142 316.453 198.845 316.436 198.556 316.486C198.488 315.813 198.419 315.16 198.341 314.419C198.504 314.447 198.671 314.423 198.819 314.35C199.229 314.058 199.19 312.829 199.287 312.01C199.299 311.899 199.267 311.787 199.199 311.698C198.673 310.928 198.224 314.165 203.48 295.806C203.304 297.853 201.861 314.233 202.368 315.043C202.514 315.247 202.797 315.257 203.148 315.286C209.612 315.94 291.717 318.972 298.61 319.05C299.79 319.05 303.485 319.128 303.836 318.894C307.112 316.905 314.425 202.138 313.011 191.89ZM240.325 189.053C241.3 187.737 251.684 187.152 252.688 186.577C252.743 186.552 252.791 186.512 252.825 186.462C252.859 186.413 252.879 186.354 252.883 186.294C252.93 184.398 253.239 182.518 253.799 180.707C254.111 179.785 254.622 178.942 255.296 178.239C255.97 177.537 256.791 176.991 257.699 176.641C260.342 175.666 264.836 176.524 266.133 178.864C266.942 180.298 266.962 185.26 267.791 185.953C268.619 186.645 280.124 186.411 281.441 187.756C281.521 187.916 281.576 188.087 281.606 188.263C281.907 190.39 281.884 192.55 281.538 194.669C278.876 195.732 246.224 197.194 241.115 196.619C240.393 196.541 240.335 196.619 240.14 195.898C239.662 194.386 239.467 190.204 240.325 189.053ZM215.189 171.084C215.258 170.518 215.004 170.782 215.55 170.899C215.473 171.035 215.429 171.189 215.424 171.346C215.419 171.503 215.451 171.659 215.519 171.801C215.587 171.943 215.689 172.066 215.815 172.16C215.941 172.254 216.087 172.316 216.242 172.342C216.151 172.471 216.095 172.622 216.081 172.779C216.068 172.937 216.096 173.096 216.164 173.239C216.398 173.726 216.73 173.794 217.227 173.853C217.034 174.073 216.761 174.207 216.469 174.227C216.177 174.247 215.889 174.151 215.667 173.96C215.579 173.872 215.15 173.346 214.585 172.644C214.872 172.161 215.076 171.634 215.189 171.084ZM218.67 170.713C218.738 170.752 218.798 170.803 218.845 170.865C218.893 170.927 218.927 170.998 218.947 171.074C218.966 171.15 218.969 171.229 218.957 171.306C218.945 171.383 218.917 171.457 218.875 171.523C218.454 171.478 218.028 171.508 217.617 171.61C217.178 171.708 216.408 171.776 216.223 171.484C215.95 171.016 217.949 170.216 218.67 170.713ZM216.613 168.832C217.676 168.393 218.28 169.134 218.095 169.534C217.413 169.975 216.616 170.206 215.804 170.197C215.759 170.196 215.716 170.186 215.676 170.167C215.635 170.149 215.599 170.122 215.57 170.089C215.355 169.885 215.501 169.67 215.687 169.475C215.954 169.206 216.268 168.988 216.613 168.832ZM214.907 165.838C213.707 164.093 210.792 160.213 210.324 159.462L219.616 148.737C219.947 151.662 223.145 157.024 224.735 159.462C224.787 159.528 224.859 159.576 224.939 159.598C225.825 160.924 226.918 162.1 228.176 163.079C227.416 163.177 217.656 165.292 214.907 165.838ZM228.264 152.013C228.511 152.099 228.736 152.234 228.928 152.411C229.119 152.589 229.272 152.803 229.376 153.042C229.481 153.281 229.534 153.539 229.534 153.8C229.534 154.061 229.48 154.319 229.376 154.558C228.849 156.01 227.426 157.102 226.139 158.019C225.788 158.282 225.446 158.526 225.164 158.711C223.849 156.84 222.657 154.886 221.595 152.861C223.584 152.266 226.451 151.272 228.264 152.013ZM210.168 168.861C206.999 170.099 203.733 166.072 205.293 162.826C205.985 161.363 208.501 160.154 210.032 159.608C210.431 160.339 213.805 165.4 214.38 166.306C213.068 167.301 211.657 168.157 210.168 168.861ZM211.621 168.968C212.469 168.49 213.473 167.847 214.263 167.291C214.585 167.808 214.916 168.373 215.238 168.89C215.067 169.023 214.932 169.195 214.843 169.392C214.755 169.589 214.716 169.805 214.731 170.021C214.465 169.881 214.162 169.827 213.863 169.865C213.47 169.945 213.121 170.171 212.888 170.499L211.621 168.968ZM214.975 175.871C212.84 174.009 212.645 174.155 212.44 173.59C212.235 173.024 212.82 172.195 212.947 171.844C213.161 171.22 213.844 170.275 214.409 170.674C214.79 170.938 214.253 172.459 214.117 172.771C214.064 172.853 214.021 172.941 213.99 173.034C214.351 173.538 214.738 174.023 215.15 174.487C215.379 174.688 215.651 174.832 215.945 174.909C216.24 174.986 216.548 174.993 216.845 174.93C217.143 174.866 217.421 174.734 217.659 174.544C217.896 174.353 218.085 174.11 218.212 173.833L218.68 173.736C218.719 173.727 218.753 173.704 218.776 173.672C218.799 173.639 218.81 173.6 218.807 173.56C218.807 173.307 218.241 173.56 217.481 173.287C217.149 173.19 216.935 173.161 216.857 172.956C216.681 172.537 218.222 172.195 218.699 172.205C218.827 172.19 218.957 172.2 219.081 172.235C219.205 172.27 219.32 172.33 219.421 172.41C219.518 172.498 220.913 175.081 221.098 175.51L216.925 177.46C216.369 177.1 215.638 176.476 214.975 175.871ZM218.222 187.922C218.32 187.953 218.424 187.965 218.527 187.955C218.63 187.945 218.73 187.915 218.821 187.866C218.912 187.817 218.992 187.75 219.057 187.669C219.121 187.588 219.169 187.495 219.197 187.396C219.684 185.933 217.783 180.941 216.857 178.201L221.956 175.803C223.136 176.866 230.731 183.837 232.905 190.798C234.153 194.698 233.675 198.598 229.239 201.416C225.83 203.468 221.867 204.408 217.9 204.107C213.928 203.856 210.035 202.891 206.405 201.26C206.551 199.164 206.502 194.494 206.863 191.968C206.866 191.928 206.855 191.888 206.831 191.856C206.807 191.823 206.772 191.801 206.732 191.792C206.693 191.784 206.652 191.79 206.616 191.81C206.581 191.83 206.554 191.862 206.541 191.9C206.261 192.749 206.052 193.62 205.917 194.503C205.654 196.805 205.622 199.127 205.82 201.436C205.742 201.592 205.625 200.773 207.077 214.549C207.077 214.715 212.518 238.486 212.372 241.693C210.422 242.746 199.219 243.916 196.772 243.965C196.001 242.083 191.77 229.34 191.107 227.312C195.007 207.978 191.799 220.78 197.444 209.031C199.421 204.899 201.185 200.668 202.729 196.356C203.103 195.362 203.403 194.342 203.626 193.304C203.704 193.129 203.811 192.943 203.626 192.739L201.13 189.375C203.782 182.677 203.694 183.037 203.684 182.872C209.973 185.026 216.018 187.425 218.222 187.922ZM206.639 202.264C208.753 203.161 210.951 203.844 213.2 204.302C212.372 209.928 211.416 217.533 210.412 226.142C207.097 210.386 208.296 218.781 206.639 202.264ZM176.618 304.259C176.326 311.776 176.618 311.445 176.297 311.455C176.254 311.455 176.214 311.439 176.183 311.41C176.152 311.381 176.133 311.341 176.131 311.299C175.751 302.777 176.774 286.612 178.812 246.442H179.183C178.529 261.505 176.687 302.416 176.618 304.259ZM183.141 190.087C180.73 187.361 178.512 184.471 176.501 181.438C178.359 180.74 180.283 180.237 182.244 179.937C182.888 181.419 184.838 186.869 185.384 188.41L183.161 190.116L183.141 190.087ZM184.301 179.781C186.173 181.731 190.073 185.309 192.794 185.563C192.511 186.021 190.727 188.917 190.376 189.336C189.332 188.995 185.003 183.808 184.243 182.911C183.941 182.101 183.434 180.717 183.102 179.927L184.301 179.781ZM180.791 194.913V194.815C180.791 194.776 182.8 191.266 182.995 190.915C183.083 190.75 182.78 191.023 185.53 188.77C190.151 201.874 189.995 203.181 192.355 211.956C179.368 192.856 180.85 194.815 180.791 194.913ZM191.292 188.731C191.483 189.427 191.741 190.103 192.062 190.75C192.257 190.964 191.692 193.041 190.766 202.372C189.094 196.329 187.118 190.374 184.847 184.529C185.627 185.377 189.098 189.19 190.161 189.599C190.227 189.642 190.305 189.663 190.384 189.659C190.462 189.656 190.538 189.628 190.6 189.58C190.707 189.463 190.961 189.121 191.273 188.683L191.292 188.731ZM193.759 213.945C195.056 208.095 197.844 194.094 198.146 188.156L200.486 189.697C203.275 193.597 203.021 193.148 203.002 193.324C202.641 195.4 196.235 210.62 193.739 213.896L193.759 213.945ZM200.35 189.063L198.195 187.737C198.446 185.698 198.589 183.648 198.624 181.594C199.979 182.053 201.383 182.569 202.7 183.145C202.466 183.7 200.789 187.942 200.35 189.063ZM196.528 194.65C196.236 193.26 195.852 191.892 195.377 190.555C195.426 190.34 195.631 189.394 195.758 188.8C195.983 189.052 196.22 189.293 196.469 189.521C196.713 189.736 196.908 189.862 197.171 189.736C196.967 191.374 196.762 192.934 196.528 194.65ZM197.795 181.312C197.785 183.594 197.636 185.873 197.347 188.137C197.171 188.488 197.025 188.77 196.918 188.956C195.777 187.865 194.696 186.713 193.681 185.504C195.407 185.026 195.426 182.345 195.251 180.551C196.138 180.766 196.986 181 197.795 181.273V181.312ZM185.881 174.487C185.939 174.321 185.881 174.37 186.027 174.399C186.62 174.461 187.217 174.326 187.725 174.014C188.233 173.702 188.623 173.23 188.835 172.673C189.055 171.714 188.991 170.711 188.65 169.787C188.504 169.351 188.39 168.904 188.309 168.451C187.821 166.501 186.632 164.6 187.178 162.689C187.309 162.169 187.639 161.721 188.096 161.441C188.553 161.16 189.102 161.07 189.625 161.188C189.891 161.284 190.148 161.401 190.395 161.539C191.224 161.968 191.819 162.28 192.209 161.89C192.209 161.89 193.388 160.729 194.51 161.032C194.958 161.207 196.011 163.44 196.245 164.659C196.069 164.424 195.812 164.264 195.524 164.21C194.724 164.113 194.168 164.766 194.285 164.961C194.938 165.107 195.62 165.046 196.235 164.785C196.57 166.622 196.723 168.486 196.694 170.353C196.242 170.059 195.744 169.842 195.221 169.709C194.826 169.696 194.433 169.772 194.071 169.933C193.682 169.836 193.282 169.796 192.881 169.816C191.76 170.031 190.834 171.25 190.268 171.766C190.015 172 189.83 172.644 190.268 172.917C190.707 173.19 191.341 172.693 191.536 172.468C192.34 171.661 193.215 170.927 194.149 170.275C194.955 170.807 195.788 171.299 196.645 171.747C196.534 172.223 196.498 172.713 196.538 173.2C196.31 173.773 195.962 174.291 195.518 174.72C195.075 175.148 194.545 175.478 193.964 175.686C193.887 175.71 193.816 175.749 193.755 175.802C193.694 175.854 193.645 175.918 193.609 175.99C193.574 176.062 193.553 176.14 193.549 176.22C193.544 176.3 193.556 176.381 193.583 176.456C193.778 177.675 194.714 180.22 194.432 182.784C194.344 183.583 194.09 184.588 193.291 184.675C190.951 184.939 186.602 180.912 184.955 179.215V175.52C185.393 175.284 185.724 174.89 185.881 174.418V174.487ZM184.75 166.18C184.914 167.213 185.021 168.255 185.072 169.3C184.516 169.495 183.775 168.763 183.638 168.247C183.326 167.174 183.599 166.492 184.75 166.18ZM164.275 244.375C164.158 242.044 167.044 230.598 167.6 228.219C167.871 228.51 168.204 228.737 168.575 228.882C168.659 228.891 168.744 228.875 168.819 228.835C168.894 228.795 168.955 228.733 168.994 228.658C169.062 228.56 169.296 228.19 169.637 227.683C169.92 228.281 170.318 228.817 170.807 229.262C169.355 230.452 169.043 230.364 169.169 230.598C169.188 230.633 169.22 230.66 169.258 230.673C169.296 230.686 169.338 230.683 169.374 230.666C173.528 228.833 175.653 225.508 175.897 220.858C175.9 220.819 175.889 220.781 175.865 220.75C175.842 220.72 175.808 220.699 175.77 220.692C175.439 220.692 175.673 221.491 174.59 224.202C174.103 223.716 173.504 223.358 172.845 223.159C172.975 222.988 173.119 222.829 173.274 222.681C173.498 222.622 173.625 222.398 173.498 222.076C173.177 221.228 171.178 217.767 170.671 216.899C170.676 216.844 170.676 216.788 170.671 216.733C170.729 215.378 171.051 212.98 171.353 210.396C171.937 205.321 172.207 200.216 172.163 195.108C172.091 193.624 171.816 192.158 171.344 190.75C171.335 190.708 171.31 190.672 171.274 190.649C171.238 190.626 171.195 190.619 171.154 190.628C171.112 190.637 171.076 190.662 171.053 190.698C171.03 190.733 171.023 190.777 171.032 190.818C171.334 192.963 171.49 201.465 171.49 201.66C170.583 203.035 166.283 208.865 166.303 209.772C166.405 210.318 166.576 210.848 166.81 211.351C166.81 211.605 166.215 210.025 170.164 217.357C170.681 218.332 172.27 221.257 172.689 222.174C171.172 224.037 169.768 225.991 168.487 228.024C166.293 226.269 159.712 218.859 157.84 216.324C156.561 214.73 155.652 212.872 155.178 210.883C154.661 209.206 154.508 207.438 154.73 205.696C155.705 199.408 162.062 191.335 167.015 187.171C169.745 184.829 172.841 182.952 176.18 181.614C176.735 182.589 177.896 184.266 179.105 186.001C182.663 190.964 182.683 190.213 182.468 190.584C181.942 191.559 180.343 194.113 180.089 194.689C179.953 195.01 178.822 193.567 192.569 214.062C192.131 216.441 187.314 243.127 186.31 245.359C184.613 246.032 165.962 245.808 164.275 244.375ZM171.012 229.087C170.615 228.521 170.319 227.891 170.135 227.224C170.658 226.226 171.275 225.279 171.977 224.397C172.397 223.841 172.377 223.783 172.66 223.802C173.294 223.892 173.899 224.129 174.425 224.494C173.684 226.297 172.5 227.883 170.983 229.106L171.012 229.087ZM169.94 215.632C169.345 214.657 167.161 210.532 167.102 209.782C167.512 208.69 169.686 205.394 171.597 202.235C171.373 205.609 170.32 211.361 169.91 215.651L169.94 215.632ZM180.431 328.985C180.431 329.13 180.411 329.274 180.372 329.414C180.355 329.45 180.328 329.48 180.294 329.502C179.292 330.27 178.159 330.851 176.95 331.218C176.287 331.423 176.277 331.442 174.824 330.769C174.034 330.423 173.268 330.023 172.533 329.57C172.299 329.356 172.27 328.654 172.27 328.342C172.943 328.956 173.686 329.489 174.483 329.931C175.868 330.682 176.813 330.818 178.929 329.833C179.455 329.598 179.958 329.314 180.431 328.985ZM179.573 317.431C179.485 318.514 179.387 319.625 179.29 320.62C178.468 320.114 177.611 319.668 176.726 319.284C175.887 319.069 174.386 320.103 173.684 320.62C173.606 319.859 173.528 318.904 173.381 317.246C174.483 317.305 175.79 317.334 176.891 317.344C179.875 317.373 179.592 317.285 179.573 317.431ZM181.337 316.456C181.24 316.456 172.65 316.603 172.299 316.573C172.019 315.888 171.948 315.135 172.094 314.409C172.228 314.373 172.366 314.35 172.504 314.341C175.472 314.358 178.437 314.573 181.376 314.984C181.401 315.498 181.388 316.013 181.337 316.525V316.456ZM197.425 314.331C197.493 315.072 197.552 315.842 197.62 316.593C197.287 316.649 196.961 316.737 196.645 316.856C195.894 317.256 196.538 318.64 196.294 318.952C195.377 318.845 192.267 317.977 190.619 317.87C190.678 316.554 190.756 314.945 190.824 313.707C192.755 313.98 195.572 314.204 197.425 314.331ZM209.125 324.52C209.125 324.91 209.203 325.329 208.91 325.495C205.508 327.006 191.029 324.666 189.615 324.091C189.48 323.782 189.401 323.452 189.381 323.116C194.763 324.022 204.786 326.577 209.125 324.52ZM198.224 313.6C198.127 313.6 190.288 313.102 190.015 313.054C189.907 312.554 189.861 312.043 189.878 311.533C189.868 311.308 189.911 311.084 190.005 310.879C191.185 310.675 197.191 311.854 198.38 312.137C198.356 312.627 198.304 313.115 198.224 313.6ZM203.041 271.675C202.427 274.6 196.352 304.483 195.358 309.037C195.345 309.075 195.318 309.107 195.283 309.127C195.248 309.146 195.207 309.153 195.167 309.144C195.128 309.136 195.092 309.114 195.068 309.081C195.044 309.049 195.033 309.009 195.036 308.968C195.836 304.844 201.578 274.648 202.241 271.499C202.553 270.027 199.931 247.075 199.619 244.618H200.135C201.559 253.822 203.343 270.183 203.041 271.675ZM303.154 318.309C299.03 318.631 203.792 314.633 202.934 314.526C202.729 311.962 204.25 294.607 204.474 292.042C206.034 286.514 209.008 275.662 209.885 269.959C210.646 264.976 209.31 253.822 208.647 248.791C208.842 246.978 209.027 245.174 209.222 243.38C210.347 243.213 211.453 242.942 212.528 242.571C212.82 242.434 213.113 242.249 213.142 241.937C213.327 240.202 211.192 230.12 210.87 228.375C211.943 218.878 213.025 210.503 213.854 204.4C219.284 205.375 224.949 205.033 229.649 202.05C234.173 199.183 234.904 195.225 233.822 191.266C235.625 191.091 237.527 190.925 239.496 190.769C239.282 192.339 239.321 196.132 240.149 196.785C241.719 198.033 278.75 196.561 281.811 195.342C281.962 195.29 282.09 195.186 282.172 195.049C282.64 194.152 282.601 190.399 282.464 188.995C285.497 188.995 310.739 188.8 312.543 191.227C314.581 193.977 306.342 317.997 303.154 318.26V318.309Z" fill="white"/>
<path d="M235.264 246.675C235.157 246.003 234.933 245.876 234.562 245.769C232.612 245.203 221.293 244.56 220.337 245.203C219.382 245.847 217.5 253.325 218.163 255.645C218.226 255.779 218.316 255.898 218.429 255.994C218.542 256.09 218.674 256.161 218.816 256.201C221.127 257.176 232.291 258.083 233.5 257.4C234.709 256.718 235.547 248.518 235.264 246.675ZM233.5 255.987C233.419 256.255 233.3 256.511 233.149 256.747C232.369 257.186 220.22 256.533 218.777 255.45C218.124 253.276 219.752 245.993 220.522 245.457C221.293 244.92 233.275 245.944 234.523 246.5C234.923 248.128 234.094 254.124 233.5 255.987ZM231.111 264.42C230.136 263.67 217.461 263.065 216.486 263.689C215.511 264.313 213.649 271.752 214.312 274.131C214.376 274.264 214.467 274.382 214.58 274.478C214.692 274.574 214.823 274.645 214.965 274.687C217.295 275.662 226.928 276.393 229.18 276.023C229.328 276.017 229.472 275.978 229.602 275.909C229.732 275.84 229.844 275.742 229.931 275.623C230.896 274.287 232.135 265.249 231.111 264.42ZM229.297 275.223C228.498 275.672 216.418 275.019 214.926 273.927C214.273 271.752 215.901 264.469 216.671 263.933C217.441 263.397 229.531 264.459 230.662 264.976C231.15 266.799 229.941 274.863 229.297 275.223ZM228.849 282.458C227.874 281.717 215.199 281.103 214.224 281.727C213.249 282.351 211.387 289.78 212.05 292.149C212.112 292.283 212.203 292.402 212.316 292.498C212.429 292.594 212.561 292.665 212.703 292.705C215.033 293.68 224.666 294.411 226.918 294.041C227.066 294.034 227.211 293.994 227.341 293.923C227.471 293.852 227.583 293.752 227.669 293.631C228.625 292.344 229.882 283.296 228.849 282.458ZM227.377 292.51C227.377 292.627 227.133 293.212 227.026 293.261C226.226 293.709 214.146 293.046 212.654 291.964C212.011 289.8 213.629 282.516 214.399 281.97C215.17 281.424 227.143 282.458 228.4 283.014C228.79 284.593 228.04 290.453 227.377 292.51Z" fill="white"/>
<path d="M228.265 247.158C226.52 248.816 224.969 250.736 223.838 251.458C223.439 251.721 223.234 251.809 222.863 251.614C222.26 251.233 221.747 250.723 221.362 250.122C221.34 250.094 221.308 250.075 221.273 250.067C221.238 250.059 221.202 250.064 221.17 250.08C221.138 250.096 221.112 250.122 221.098 250.155C221.083 250.187 221.08 250.224 221.089 250.259C221.416 251.039 221.952 251.714 222.639 252.209C222.888 252.338 223.17 252.391 223.449 252.361C223.728 252.332 223.992 252.221 224.209 252.043C225.004 251.491 225.723 250.835 226.344 250.093C227.103 249.222 227.809 248.307 228.46 247.353C228.481 247.343 228.499 247.328 228.513 247.309C228.528 247.291 228.537 247.269 228.541 247.246C228.545 247.223 228.543 247.199 228.536 247.177C228.529 247.155 228.517 247.134 228.5 247.118C228.484 247.101 228.463 247.089 228.441 247.082C228.419 247.075 228.395 247.073 228.372 247.077C228.349 247.081 228.327 247.09 228.309 247.104C228.29 247.119 228.275 247.137 228.265 247.158ZM224.433 265.634C222.327 267.633 220.328 270.168 219.402 270.207C219.114 270.152 218.847 270.017 218.632 269.817C217.598 268.969 217.598 268.394 217.345 268.54C217.326 268.548 217.31 268.56 217.296 268.575C217.282 268.59 217.272 268.608 217.266 268.627C217.259 268.646 217.257 268.667 217.259 268.687C217.261 268.707 217.267 268.727 217.277 268.745C217.637 269.583 218.495 270.88 219.412 270.899C220.582 270.899 222.493 268.735 223.185 267.867C223.877 266.999 224.384 266.2 224.657 265.829C224.683 265.8 224.696 265.761 224.693 265.722C224.691 265.682 224.672 265.646 224.643 265.62C224.613 265.594 224.574 265.581 224.535 265.584C224.496 265.586 224.459 265.605 224.433 265.634ZM222.161 283.672C220.094 285.622 218.047 288.206 217.14 288.235C216.846 288.188 216.574 288.052 216.36 287.845C215.317 286.997 215.385 286.431 215.073 286.568C215.055 286.578 215.039 286.591 215.026 286.608C215.014 286.624 215.004 286.643 214.999 286.663C214.993 286.683 214.992 286.703 214.995 286.724C214.997 286.744 215.004 286.764 215.015 286.782C215.366 287.621 216.224 288.917 217.15 288.937C218.32 288.937 220.231 286.772 220.913 285.905C221.596 285.037 222.122 284.237 222.386 283.867C222.522 283.721 222.298 283.526 222.161 283.672ZM297.149 250.561C293.999 250.376 242.763 248.221 239.516 248.084C239.483 248.093 239.453 248.112 239.432 248.14C239.411 248.167 239.399 248.201 239.399 248.235C239.399 248.27 239.411 248.304 239.432 248.331C239.453 248.358 239.483 248.378 239.516 248.387C242.822 248.601 295.004 250.805 297.158 250.863C297.192 250.853 297.221 250.833 297.241 250.805C297.262 250.777 297.272 250.743 297.271 250.708C297.27 250.674 297.257 250.64 297.235 250.614C297.213 250.587 297.182 250.568 297.149 250.561ZM293.317 269.047C290.168 268.862 238.931 266.707 235.685 266.561C235.661 266.555 235.637 266.554 235.614 266.559C235.591 266.564 235.569 266.574 235.55 266.589C235.531 266.603 235.516 266.622 235.506 266.643C235.495 266.664 235.49 266.688 235.49 266.712C235.49 266.736 235.495 266.759 235.506 266.78C235.516 266.802 235.531 266.82 235.55 266.835C235.569 266.85 235.591 266.86 235.614 266.864C235.637 266.869 235.661 266.869 235.685 266.863C238.99 267.077 291.162 269.281 293.317 269.349C293.35 269.341 293.38 269.321 293.401 269.294C293.423 269.266 293.434 269.233 293.434 269.198C293.434 269.163 293.423 269.13 293.401 269.102C293.38 269.075 293.35 269.055 293.317 269.047ZM291.045 287.084C287.896 286.899 236.66 284.744 233.413 284.598C233.379 284.607 233.349 284.626 233.328 284.654C233.307 284.681 233.295 284.715 233.295 284.749C233.295 284.784 233.307 284.818 233.328 284.845C233.349 284.872 233.379 284.892 233.413 284.9C236.708 285.115 288.89 287.318 291.045 287.377C291.084 287.377 291.121 287.361 291.148 287.334C291.176 287.307 291.191 287.269 291.191 287.231C291.191 287.192 291.176 287.155 291.148 287.127C291.121 287.1 291.084 287.084 291.045 287.084ZM296.71 257.464C293.561 257.288 242.324 255.124 239.087 254.987C239.064 254.981 239.04 254.981 239.017 254.986C238.994 254.991 238.972 255.001 238.953 255.015C238.934 255.03 238.919 255.049 238.908 255.07C238.898 255.091 238.893 255.115 238.893 255.138C238.893 255.162 238.898 255.186 238.908 255.207C238.919 255.228 238.934 255.247 238.953 255.262C238.972 255.276 238.994 255.286 239.017 255.291C239.04 255.296 239.064 255.296 239.087 255.29C242.383 255.504 294.565 257.708 296.72 257.766C296.753 257.756 296.782 257.736 296.802 257.708C296.823 257.68 296.833 257.646 296.832 257.611C296.831 257.577 296.818 257.543 296.796 257.517C296.774 257.49 296.744 257.471 296.71 257.464ZM292.898 275.95C289.748 275.765 238.512 273.61 235.265 273.473C235.07 273.473 235.051 273.756 235.265 273.776C238.571 273.99 290.753 276.184 292.907 276.252C292.941 276.242 292.97 276.222 292.99 276.194C293.011 276.166 293.021 276.132 293.02 276.097C293.019 276.063 293.006 276.029 292.984 276.003C292.962 275.976 292.931 275.957 292.898 275.95ZM290.626 293.987C287.486 293.802 236.25 291.647 233.003 291.501C232.962 291.501 232.922 291.518 232.893 291.547C232.864 291.576 232.847 291.616 232.847 291.657C232.847 291.698 232.864 291.738 232.893 291.767C232.922 291.797 232.962 291.813 233.003 291.813C236.309 292.018 288.481 294.221 290.636 294.29C290.669 294.28 290.698 294.26 290.718 294.231C290.739 294.203 290.749 294.169 290.748 294.135C290.747 294.1 290.734 294.067 290.712 294.04C290.69 294.013 290.66 293.995 290.626 293.987ZM241.72 236.199C242.022 236.024 242.159 235.468 242.246 235.097C243.533 229.881 245.015 205.994 244.703 204.648C244.677 204.558 244.626 204.477 244.557 204.414C244.001 203.907 240.93 203.849 239.867 203.819C234.3 203.683 221.342 204.102 221.196 204.239C220.835 204.677 215.463 233.294 216.126 235.234C216.789 237.174 239.419 237.496 241.72 236.199ZM216.76 234.971C216.753 234.867 216.753 234.762 216.76 234.659C216.768 234.69 216.786 234.717 216.812 234.737C216.838 234.757 216.869 234.767 216.901 234.767C216.933 234.767 216.965 234.757 216.99 234.737C217.016 234.717 217.034 234.69 217.043 234.659C217.458 233.058 218.277 231.591 219.422 230.398C220.731 228.934 222.417 227.858 224.297 227.288C225.147 228.39 226.072 229.433 227.066 230.408C227.29 230.573 227.553 230.408 227.826 230.281C228.801 232.748 228.333 229.559 227.826 236.131C226.373 236.082 218.018 235.76 216.76 234.971ZM227.768 223.583C227.224 223.367 226.735 223.031 226.338 222.601C225.942 222.17 225.647 221.656 225.476 221.096C225.373 220.671 225.307 220.237 225.281 219.8C225.62 220.247 226.091 220.575 226.628 220.736C227.165 220.897 227.74 220.884 228.269 220.697C228.797 220.51 229.253 220.16 229.569 219.697C229.886 219.235 230.047 218.683 230.03 218.123H230.205C229.942 219.011 229.826 219.937 229.864 220.862C229.868 220.999 229.905 221.133 229.971 221.252C230.264 221.623 230.556 221.613 231.053 221.535C231.092 221.533 231.129 221.517 231.158 221.49C231.187 221.464 231.205 221.428 231.209 221.389C231.209 221.165 230.819 221.262 230.546 220.989C230.546 220.658 230.654 219.536 230.663 219.254C230.663 218.025 230.42 218.162 230.771 218.162C230.703 218.638 230.77 219.124 230.962 219.565C231.155 220.005 231.467 220.384 231.863 220.658C232.336 220.966 232.893 221.121 233.457 221.104C234.022 221.086 234.568 220.897 235.022 220.56C235.022 220.687 234.924 220.833 234.846 221.028C234.58 221.906 234.053 222.681 233.335 223.251C232.194 224.051 231.463 223.768 231.541 224.304C231.658 225.074 231.921 225.62 232.087 226.761C231.231 227.276 230.407 227.843 229.62 228.458C228.867 227.76 228.073 227.109 227.241 226.508C227.631 224.47 228.314 223.826 227.768 223.583ZM230.917 217.528C230.886 217.611 230.86 217.696 230.839 217.781C230.713 217.697 230.566 217.652 230.415 217.652C230.264 217.652 230.116 217.697 229.991 217.781C229.971 217.497 229.889 217.22 229.751 216.971C229.613 216.722 229.422 216.506 229.191 216.338C228.58 215.948 227.869 215.741 227.144 215.744C226.627 215.72 226.122 215.894 225.73 216.231C226.005 214.97 226.747 213.859 227.807 213.121C229.64 211.98 232.487 212.204 233.657 214.018C233.92 214.384 234.118 214.793 234.242 215.227C234.306 215.559 234.397 215.885 234.515 216.202C234.304 216.114 234.08 216.061 233.852 216.046C232.584 215.958 231.229 216.26 230.917 217.547V217.528ZM228.46 219.956C228.222 220.077 227.961 220.149 227.695 220.169C227.428 220.188 227.16 220.155 226.907 220.069C226.654 219.984 226.42 219.849 226.219 219.672C226.019 219.495 225.856 219.28 225.74 219.039C225.408 217.791 225.925 216.387 227.153 216.377C230.868 216.251 229.757 219.478 228.46 219.956ZM233.861 216.67C235.09 216.806 235.441 218.269 234.992 219.478C234.85 219.703 234.664 219.897 234.446 220.05C234.227 220.202 233.981 220.31 233.721 220.368C233.461 220.425 233.192 220.43 232.93 220.382C232.668 220.335 232.418 220.236 232.194 220.092C230.936 219.488 230.098 216.143 233.842 216.67H233.861ZM235.811 217.645L236.055 217.508C236.611 217.928 236.708 218.639 235.763 219.458C235.923 218.896 235.94 218.303 235.811 217.733V217.645ZM224.277 217.177C224.355 217.101 224.46 217.058 224.57 217.058C224.679 217.058 224.784 217.101 224.862 217.177C224.909 217.218 224.966 217.245 225.028 217.255C224.862 217.788 224.828 218.354 224.93 218.903C224.238 218.483 223.682 217.811 224.277 217.216V217.177ZM231.59 229.852C231.123 229.535 230.677 229.19 230.254 228.818L233.101 226.508C233.325 226.673 233.939 227.132 234.271 227.414C232.652 228.867 231.97 229.559 231.59 229.881V229.852ZM228.938 228.74C228.43 229.072 227.906 229.378 227.368 229.657C227.095 229.374 224.784 226.829 224.784 226.829C225.164 226.576 225.886 226.166 226.139 226.03L228.938 228.74ZM231.385 236.258C231.381 234.696 231.188 233.141 230.81 231.626C231.453 230.369 231.102 230.651 231.473 230.739C231.522 230.761 231.575 230.773 231.629 230.773C231.682 230.773 231.735 230.761 231.785 230.739C232.754 229.918 233.66 229.025 234.495 228.068C237.82 229.54 240.443 231.968 241.32 235.556C241.057 236.258 232.253 236.258 231.385 236.258ZM221.42 204.482C223.868 204.414 241.808 203.946 244.089 204.863C244.313 206.813 242.588 230.944 241.525 234.883C240.618 231.47 238.122 229.033 234.905 227.522C235.051 227.2 234.7 227.005 233.179 226.166C233.155 226.152 233.128 226.144 233.101 226.144C233.073 226.144 233.046 226.152 233.023 226.166L232.643 226.4C232.496 225.425 232.35 225.143 232.223 224.45C232.813 224.304 233.367 224.037 233.848 223.666C234.33 223.295 234.729 222.829 235.022 222.296C235.38 221.662 235.652 220.983 235.831 220.277C237.05 219.439 237.722 218.269 236.806 217.138C237.069 216.728 237.254 216.397 237.059 215.958C237.142 215.833 237.195 215.69 237.213 215.542C237.232 215.393 237.216 215.242 237.167 215.1C237.12 214.906 237.048 214.719 236.952 214.544C237.051 214.383 237.116 214.202 237.143 214.015C237.169 213.827 237.157 213.636 237.107 213.453C237.057 213.27 236.969 213.1 236.851 212.952C236.732 212.804 236.584 212.683 236.416 212.594C236.455 212.357 236.435 212.113 236.357 211.885C236.279 211.657 236.145 211.452 235.968 211.289C235.791 211.126 235.577 211.009 235.343 210.949C235.11 210.889 234.865 210.888 234.632 210.947C234.548 210.725 234.402 210.532 234.212 210.391C234.055 210.259 233.874 210.159 233.678 210.097C233.482 210.035 233.276 210.012 233.072 210.03C232.331 210.089 232.643 210.323 232.487 209.942C232.406 209.759 232.266 209.61 232.088 209.517C231.911 209.425 231.707 209.396 231.512 209.435C231.199 209.458 230.9 209.573 230.654 209.767C230.362 209.525 229.994 209.393 229.615 209.393C229.236 209.393 228.869 209.525 228.577 209.767C228.431 209.923 228.509 209.884 228.382 209.835C228.062 209.753 227.727 209.753 227.407 209.835C227.215 209.877 227.036 209.963 226.884 210.087C226.731 210.21 226.61 210.368 226.529 210.547C226.371 210.518 226.209 210.518 226.052 210.547C225.734 210.661 225.449 210.85 225.22 211.098C224.991 211.346 224.825 211.645 224.735 211.97C224.73 212.045 224.73 212.12 224.735 212.195C224.552 212.3 224.377 212.417 224.209 212.546C224.025 212.766 223.905 213.032 223.86 213.315C223.816 213.598 223.848 213.888 223.955 214.154C223.729 214.315 223.562 214.544 223.478 214.808C223.427 215.141 223.481 215.482 223.634 215.783C223.691 215.864 223.753 215.942 223.819 216.017L223.721 216.134C223.658 216.303 223.658 216.49 223.721 216.66C223.558 216.851 223.445 217.078 223.39 217.323C223.336 217.568 223.342 217.822 223.409 218.064C223.631 218.665 224.033 219.182 224.56 219.546C224.56 219.77 224.56 220.151 224.648 220.521C224.741 221.29 225.031 222.022 225.488 222.646C225.946 223.271 226.556 223.768 227.261 224.09C227.033 224.728 226.845 225.379 226.695 226.04C226.276 225.728 226.217 225.65 226.11 225.708C224.56 226.322 224.16 226.508 224.16 226.683C220.133 227.98 217.335 231.646 216.789 234.483C216.818 230.183 220.972 205.955 221.42 204.482ZM301.838 220.794C301.702 220.648 253.283 220.346 253.186 220.355C253.144 220.355 253.105 220.372 253.075 220.401C253.046 220.43 253.03 220.47 253.03 220.511C253.03 220.414 252.659 224.909 253.157 225.201C254.473 225.942 297.314 226.654 301.205 226.274C301.374 226.276 301.539 226.221 301.673 226.118C302.384 225.386 302.365 221.243 301.838 220.794ZM253.215 220.658H253.274C253.274 220.658 253.225 220.706 253.215 220.658ZM301.185 225.533C298.962 225.815 255.721 225.435 253.41 224.899C253.273 223.488 253.273 222.068 253.41 220.658L301.429 221.467C301.612 222.825 301.529 224.206 301.185 225.533ZM301.955 212.614C301.819 212.468 253.4 212.165 253.303 212.175C253.262 212.177 253.224 212.195 253.195 212.223C253.166 212.252 253.149 212.29 253.147 212.331C253.147 212.234 252.767 216.728 253.274 217.021C254.668 217.82 297.636 218.454 301.322 218.093C301.491 218.096 301.656 218.041 301.79 217.937C302.501 217.206 302.472 213.062 301.955 212.614ZM253.332 212.477H253.391C253.449 212.477 253.342 212.536 253.332 212.477ZM301.302 217.352C299.206 217.635 255.857 217.255 253.527 216.709C253.395 215.301 253.395 213.885 253.527 212.477L301.546 213.287C301.724 214.642 301.641 216.018 301.302 217.343V217.352ZM302.063 204.755C301.986 204.693 301.888 204.662 301.79 204.668C301.79 204.668 253.878 204.297 253.586 204.307C253.439 204.307 253.235 204.307 253.244 204.473C253.244 204.375 252.874 208.87 253.371 209.162C254.58 209.845 301.146 210.83 301.887 210.079C302.628 209.328 302.56 205.204 302.063 204.755ZM253.43 204.619H253.488C253.547 204.619 253.439 204.668 253.43 204.619ZM301.4 209.494C299.167 209.777 255.721 209.377 253.625 208.85C253.473 207.445 253.454 206.028 253.566 204.619L301.585 205.428C301.785 206.779 301.722 208.157 301.4 209.484V209.494ZM261.542 234.61C262.117 234.288 262.175 233.781 261.902 233.459C261.13 232.964 260.264 232.632 259.358 232.484C259.272 231.615 258.963 230.782 258.461 230.066C257.486 229.189 256.852 231.197 256.511 232.455C255.692 232.523 253.888 232.757 253.751 233.567C253.751 233.849 253.946 234.025 254.2 234.152C254.775 234.382 255.364 234.575 255.965 234.727C255.185 235.546 253.43 237.447 254.522 237.652C255.146 237.788 256.803 236.794 257.593 236.618C258.324 237.028 259.904 238.305 260.518 237.876C261.132 237.447 260.255 236.063 259.757 235.117C260.365 234.998 260.962 234.828 261.542 234.61ZM270.853 235.049C271.438 234.737 271.496 234.23 271.214 233.908C270.449 233.404 269.584 233.072 268.679 232.933C268.592 232.06 268.284 231.224 267.782 230.505C266.807 229.637 266.173 231.646 265.832 232.904C265.013 232.972 263.209 233.196 263.072 234.015C263.024 234.288 263.267 234.473 263.521 234.6C264.094 234.825 264.68 235.017 265.276 235.175C264.506 235.985 262.741 237.896 263.833 238.1C264.457 238.237 266.163 237.233 266.904 237.125C267.674 237.554 269.225 238.802 269.829 238.373C270.434 237.944 269.566 236.56 269.078 235.614C269.687 235.485 270.282 235.296 270.853 235.049ZM280.554 235.409C281.129 235.088 281.188 234.581 280.915 234.269C280.145 233.768 279.278 233.435 278.37 233.294C278.288 232.423 277.979 231.589 277.473 230.876C276.498 229.998 275.864 232.007 275.523 233.264C274.704 233.342 272.9 233.567 272.774 234.376C272.774 234.659 272.969 234.844 273.222 234.961C273.793 235.195 274.379 235.391 274.977 235.546C274.207 236.355 272.442 238.266 273.534 238.471C274.158 238.607 275.816 237.613 276.605 237.437C277.337 237.857 278.916 239.124 279.53 238.695C280.145 238.266 279.257 236.882 278.77 235.936C279.379 235.813 279.976 235.637 280.554 235.409ZM290.675 235.79C291.26 235.478 291.308 234.961 291.035 234.649C290.265 234.148 289.398 233.815 288.491 233.674C288.406 232.805 288.101 231.973 287.603 231.256C286.628 230.378 285.985 232.397 285.653 233.645C284.834 233.723 283.031 233.947 282.904 234.766C282.855 235.039 283.099 235.224 283.352 235.351C283.926 235.576 284.512 235.768 285.107 235.926C284.337 236.735 282.572 238.646 283.664 238.851C284.279 238.988 285.985 237.983 286.736 237.818C287.477 238.237 289.037 239.504 289.661 239.075C290.285 238.646 289.397 237.262 288.91 236.316C289.513 236.196 290.104 236.02 290.675 235.79ZM288.023 236.131C288.023 236.492 288.9 237.681 289.115 238.451C288.939 238.373 288.695 238.217 288.5 238.11C286.94 237.281 286.999 237.008 286.355 237.233C285.858 237.408 284.21 238.295 283.772 238.373C283.869 238.054 284.021 237.754 284.22 237.486C285.293 235.897 285.819 235.877 285.146 235.536C284.504 235.347 283.889 235.078 283.313 234.737C283.489 234.288 285.263 234.161 285.868 234.152C286.209 234.152 286.092 233.888 286.638 232.601C286.761 232.282 286.924 231.981 287.126 231.704C287.31 231.973 287.442 232.274 287.516 232.592C287.876 233.83 287.681 234.171 288.091 234.259C288.889 234.417 289.662 234.679 290.392 235.039C290.239 235.15 290.067 235.233 289.885 235.283C288.676 235.643 287.993 235.604 288.023 236.131ZM300.688 234.522C300.012 234.226 299.311 233.994 298.592 233.83C298.495 233.216 298.332 232.614 298.104 232.036C297.695 231.061 297.032 230.876 296.505 231.753C296.17 232.406 295.905 233.092 295.715 233.801C295.052 233.847 294.397 233.975 293.765 234.181C293.21 234.395 292.732 234.844 293.034 235.234C293.673 235.658 294.394 235.943 295.15 236.072C294.569 236.673 294.043 237.326 293.58 238.022C293.132 238.802 293.405 239.28 294.389 238.997C295.14 238.763 296.213 238.188 296.778 238.022C297.266 238.295 298.728 239.397 299.42 239.368C299.491 239.371 299.561 239.359 299.626 239.333C299.692 239.308 299.752 239.27 299.802 239.22C299.852 239.171 299.892 239.112 299.918 239.047C299.945 238.982 299.958 238.912 299.957 238.841C299.774 238.015 299.444 237.229 298.982 236.521C299.59 236.402 300.187 236.229 300.766 236.004C301.39 235.653 301.585 234.98 300.688 234.522ZM298.348 235.946C297.626 236.287 298.865 237.418 299.206 238.656C298.757 238.451 297.139 237.447 297.022 237.398C296.495 237.174 295.267 238.091 294.165 238.471L293.873 238.578C294.272 237.684 294.823 236.866 295.501 236.16C295.881 235.741 293.804 235.439 293.405 234.98C293.483 234.776 294.009 234.629 294.214 234.581C295.637 234.249 296.115 234.581 296.242 234.171C296.471 233.392 296.799 232.645 297.217 231.948C297.593 232.641 297.822 233.405 297.89 234.191C297.948 234.6 298.289 234.434 299.674 234.922C299.961 235.008 300.236 235.129 300.493 235.283C300.152 235.536 298.835 235.712 298.348 235.946ZM257.759 184.115C258.812 184.2 259.859 183.879 260.684 183.218C263.131 181.034 259.709 176.88 256.316 179.113C253.664 180.858 255.282 184.017 257.759 184.115ZM256.676 179.708C257.339 179.223 258.164 179.013 258.977 179.123C259.384 179.182 259.771 179.334 260.11 179.567C260.448 179.801 260.728 180.109 260.927 180.468C261.59 182.369 259.826 183.51 257.778 183.393C255.994 183.296 254.726 181.043 256.676 179.708ZM173.996 227.024C173.801 226.946 173.996 227.024 172.592 228.448C171.188 229.871 169.882 230.651 170.009 230.885C170.135 231.119 171.315 230.534 171.51 230.427C172.137 230.035 172.702 229.552 173.187 228.994C173.528 228.594 174.357 227.18 173.996 227.024ZM189.05 164.39C189.099 164.156 188.446 163.952 187.968 164.01C186.915 164.147 186.476 164.985 186.701 165.131C187.522 165.028 188.318 164.777 189.05 164.39ZM191.41 168.008C191.686 168.113 191.986 168.143 192.278 168.095C192.408 168.07 192.533 168.024 192.648 167.959C192.765 167.905 192.863 167.816 192.928 167.704C192.992 167.592 193.021 167.463 193.009 167.335C193.009 166.438 191.761 164.459 191.429 164.673C191.312 164.741 191.342 164.79 191.527 165.404C191.646 165.824 191.795 166.235 191.975 166.633C192.078 166.865 192.16 167.107 192.219 167.354C192.017 167.541 191.761 167.661 191.488 167.696C191.467 167.69 191.446 167.689 191.425 167.693C191.404 167.696 191.384 167.703 191.366 167.714C191.348 167.725 191.332 167.739 191.32 167.756C191.307 167.773 191.298 167.792 191.293 167.813C191.288 167.833 191.287 167.854 191.29 167.875C191.293 167.896 191.3 167.916 191.311 167.934C191.322 167.952 191.336 167.968 191.353 167.981C191.37 167.993 191.389 168.002 191.41 168.008ZM191.078 171.771C191.143 171.92 191.241 172.053 191.363 172.161C191.485 172.268 191.629 172.347 191.786 172.393C191.942 172.439 192.106 172.449 192.267 172.424C192.428 172.399 192.581 172.34 192.716 172.249C192.753 172.234 192.784 172.205 192.802 172.17C192.82 172.134 192.824 172.093 192.814 172.054C192.736 171.83 192.541 172.112 192.044 171.83C191.941 171.767 191.855 171.68 191.793 171.576C191.732 171.473 191.698 171.355 191.693 171.235C191.698 171.109 191.731 170.985 191.788 170.872C191.845 170.76 191.925 170.661 192.024 170.582C192.113 170.535 192.211 170.51 192.312 170.51C192.412 170.51 192.511 170.535 192.599 170.582C192.755 170.708 192.931 170.465 192.775 170.348C191.839 169.265 190.523 170.64 191.078 171.771ZM193.36 213.501C193.131 213.505 192.907 213.566 192.707 213.678C192.508 213.79 192.339 213.95 192.216 214.143C192.094 214.336 192.021 214.557 192.004 214.785C191.988 215.013 192.028 215.242 192.122 215.451C192.765 216.748 194.978 216.27 194.939 214.866C194.931 214.671 194.883 214.479 194.798 214.303C194.713 214.127 194.592 213.97 194.444 213.842C194.297 213.714 194.124 213.618 193.937 213.56C193.751 213.501 193.554 213.481 193.36 213.501ZM194.208 215.168C194.197 215.264 194.166 215.356 194.119 215.44C194.072 215.523 194.009 215.597 193.933 215.656C193.858 215.716 193.771 215.759 193.679 215.785C193.586 215.811 193.489 215.818 193.394 215.807C193.299 215.795 193.206 215.765 193.123 215.718C193.039 215.671 192.965 215.608 192.906 215.532C192.847 215.457 192.803 215.37 192.777 215.277C192.751 215.185 192.744 215.088 192.755 214.993C192.755 214.904 192.773 214.815 192.807 214.733C192.842 214.651 192.892 214.576 192.956 214.514C193.019 214.451 193.095 214.402 193.177 214.368C193.26 214.335 193.349 214.319 193.438 214.32C193.55 214.308 193.664 214.322 193.769 214.361C193.875 214.4 193.971 214.463 194.048 214.546C194.126 214.628 194.183 214.727 194.216 214.835C194.249 214.943 194.256 215.057 194.237 215.168H194.208ZM193.097 220.112C192.867 220.113 192.641 220.173 192.44 220.284C192.239 220.395 192.069 220.555 191.946 220.749C191.823 220.943 191.751 221.165 191.735 221.394C191.72 221.624 191.762 221.853 191.858 222.062C192.492 223.339 194.715 222.89 194.676 221.477C194.666 221.282 194.617 221.091 194.532 220.915C194.446 220.74 194.326 220.584 194.178 220.456C194.031 220.329 193.859 220.232 193.673 220.173C193.487 220.114 193.291 220.093 193.097 220.112ZM193.945 221.779C193.948 221.884 193.928 221.989 193.888 222.086C193.847 222.183 193.786 222.271 193.709 222.342C193.632 222.414 193.541 222.469 193.441 222.502C193.341 222.536 193.235 222.548 193.13 222.537C193.026 222.527 192.924 222.494 192.833 222.442C192.742 222.389 192.663 222.317 192.602 222.232C192.54 222.146 192.498 222.048 192.477 221.945C192.457 221.842 192.458 221.735 192.482 221.633C192.485 221.453 192.558 221.282 192.686 221.156C192.813 221.03 192.985 220.96 193.165 220.96C193.272 220.954 193.38 220.971 193.48 221.01C193.58 221.05 193.67 221.111 193.745 221.189C193.819 221.266 193.875 221.36 193.91 221.462C193.944 221.564 193.956 221.672 193.945 221.779ZM189.002 165.707C189.002 165.863 189.06 166.019 189.119 166.35C189.129 166.414 189.152 166.474 189.186 166.529C189.221 166.583 189.265 166.631 189.318 166.668C189.371 166.705 189.43 166.731 189.493 166.745C189.556 166.76 189.621 166.761 189.684 166.75C189.81 166.728 189.923 166.658 189.998 166.554C190.073 166.45 190.104 166.321 190.084 166.194C190.084 166.019 189.996 165.775 189.977 165.599C189.962 165.47 189.897 165.352 189.796 165.27C189.694 165.189 189.565 165.151 189.435 165.165C189.306 165.18 189.188 165.245 189.106 165.346C189.025 165.448 188.987 165.577 189.002 165.707ZM193.214 165.58C193.23 165.694 193.288 165.799 193.375 165.874C193.463 165.95 193.576 165.991 193.691 165.989C193.762 165.989 193.832 165.973 193.896 165.943C193.96 165.913 194.017 165.87 194.063 165.817C194.109 165.763 194.143 165.701 194.163 165.633C194.183 165.565 194.188 165.494 194.179 165.424C194.101 164.995 194.081 164.946 194.062 164.829C194.046 164.7 193.98 164.582 193.878 164.502C193.775 164.421 193.645 164.385 193.516 164.4C193.386 164.416 193.269 164.482 193.188 164.584C193.108 164.687 193.071 164.817 193.087 164.946C193.116 165.083 193.155 165.239 193.214 165.58ZM207.751 228.282C207.868 228.399 208.053 228.224 207.936 228.107C205.577 225.269 205.011 222.403 205.43 218.815C205.436 218.796 205.437 218.776 205.433 218.757C205.429 218.738 205.421 218.719 205.41 218.704C205.398 218.688 205.382 218.675 205.365 218.667C205.347 218.658 205.328 218.653 205.308 218.653C205.289 218.653 205.269 218.658 205.252 218.667C205.234 218.675 205.219 218.688 205.207 218.704C205.195 218.719 205.187 218.738 205.184 218.757C205.18 218.776 205.181 218.796 205.187 218.815C204.192 222.432 204.884 225.689 207.751 228.282Z" fill="white"/>
<path d="M229.795 219.024C229.667 219.011 229.539 219.048 229.439 219.128C229.338 219.209 229.273 219.325 229.259 219.453V220.097C229.259 220.226 229.31 220.35 229.402 220.441C229.493 220.533 229.617 220.584 229.746 220.584C229.876 220.584 230 220.533 230.091 220.441C230.182 220.35 230.234 220.226 230.234 220.097V219.58C230.243 219.514 230.239 219.448 230.222 219.384C230.205 219.32 230.175 219.26 230.134 219.208C230.093 219.156 230.042 219.113 229.983 219.081C229.925 219.05 229.861 219.03 229.795 219.024ZM235.128 220.653C235.191 220.661 235.255 220.656 235.316 220.64C235.377 220.623 235.434 220.594 235.484 220.555C235.534 220.516 235.576 220.468 235.607 220.412C235.638 220.357 235.657 220.296 235.665 220.233V219.6C235.665 219.47 235.613 219.346 235.522 219.255C235.43 219.163 235.306 219.112 235.177 219.112C235.049 219.115 234.926 219.167 234.835 219.258C234.744 219.348 234.692 219.471 234.69 219.6V220.116C234.683 220.18 234.689 220.245 234.707 220.307C234.726 220.369 234.756 220.426 234.797 220.476C234.838 220.526 234.888 220.567 234.945 220.597C235.002 220.628 235.064 220.646 235.128 220.653ZM231.072 223.987C231.87 224.24 232.717 224.29 233.539 224.133C233.637 224.133 233.627 223.977 233.539 223.987L232.925 223.899C232.318 223.849 231.708 223.849 231.102 223.899C231.004 223.821 230.975 223.977 231.072 223.987Z" fill="white"/>
</svg>
