<svg width="80" height="80" viewBox="0 0 80 80" fill="none" xmlns="http://www.w3.org/2000/svg">
<rect width="80" height="80" rx="20" fill="#E42C73" fill-opacity="0.2"/>
<path d="M64.1959 41.8203C64.2731 43.6663 63.615 45.4675 62.3658 46.8289C61.1167 48.1902 59.3786 49.0005 57.5328 49.082C57.4248 49.087 57.3171 49.0895 57.2095 49.0895C56.7191 49.0892 56.2301 49.0361 55.751 48.9312C54.3295 51.126 52.4656 52.9999 50.2784 54.4331C48.0912 55.8663 45.629 56.8273 43.0492 57.2544C42.744 58.1509 42.1353 58.9125 41.3282 59.4077C40.521 59.9029 39.5662 60.1006 38.6289 59.9665C37.6915 59.8324 36.8304 59.375 36.1944 58.6734C35.5585 57.9717 35.1877 57.07 35.1461 56.124C35.1045 55.1779 35.3948 54.2471 35.9667 53.4924C36.5386 52.7377 37.3562 52.2065 38.2782 51.9907C39.2002 51.7748 40.1687 51.8879 41.0162 52.3104C41.8636 52.7329 42.5369 53.4382 42.9195 54.3043C46.5515 53.6326 49.8326 51.7077 52.191 48.8651C54.5494 46.0224 55.8355 42.4424 55.8252 38.7488C55.8252 30.0227 48.7261 22.9236 40 22.9236C31.274 22.9236 24.1749 30.0227 24.1749 38.7488C24.1744 41.447 24.864 44.1006 26.1781 46.4572C26.2226 46.535 26.256 46.6186 26.2774 46.7056C26.4043 47.0584 26.3908 47.4465 26.2395 47.7896C26.0882 48.1326 25.8109 48.4044 25.4648 48.5487C24.6174 48.9053 23.7072 49.089 22.7878 49.0888C22.6796 49.0888 22.5712 49.0863 22.4625 49.0813C20.6175 48.9988 18.8805 48.1881 17.6323 46.8268C16.3842 45.4655 15.7268 43.6648 15.8042 41.8196C15.8354 41.0837 15.818 40.4272 15.801 39.7923C15.7852 39.1946 15.7687 38.5764 15.7958 37.9314C15.8769 36.1297 16.6519 34.4292 17.9586 33.1861C19.2653 31.9431 21.0023 31.2538 22.8058 31.2627C25.7019 24.6366 32.3184 19.9939 40 19.9939C47.6817 19.9939 54.2983 24.6366 57.1944 31.2628C58.9981 31.2526 60.7356 31.9412 62.0426 33.1843C63.3495 34.4274 64.1242 36.1284 64.2042 37.9303C64.2314 38.5763 64.215 39.1944 64.199 39.7921C64.1822 40.4271 64.1647 41.0839 64.1959 41.8203ZM52.2857 38.7488C52.285 40.631 51.852 42.4878 51.0201 44.1762C50.1882 45.8645 48.9797 47.3393 47.4877 48.4867C45.9957 49.6341 44.2601 50.4235 42.4148 50.794C40.5694 51.1646 38.6637 51.1063 36.8444 50.6238L31.8716 53.4956C31.6207 53.6405 31.3325 53.7077 31.0434 53.6888C30.7542 53.6698 30.4772 53.5656 30.2473 53.3892C30.0175 53.2128 29.8451 52.9722 29.7519 52.6979C29.6588 52.4235 29.6492 52.1277 29.7242 51.8478L30.9951 47.1068C28.8904 44.8319 27.7193 41.848 27.7149 38.7488C27.7149 31.9726 33.2257 26.4603 40 26.4603C46.7744 26.4603 52.2857 31.9726 52.2857 38.7488ZM36.5845 38.7488C36.5845 38.3603 36.4302 37.9877 36.1555 37.713C35.8808 37.4383 35.5082 37.2839 35.1197 37.2839H35.1172C34.8276 37.2845 34.5447 37.3708 34.3042 37.5321C34.0636 37.6934 33.8763 37.9224 33.7658 38.1901C33.6554 38.4578 33.6268 38.7523 33.6836 39.0362C33.7404 39.3202 33.8802 39.581 34.0851 39.7855C34.2901 39.9901 34.5511 40.1294 34.8352 40.1857C35.1193 40.242 35.4137 40.2128 35.6812 40.1019C35.9487 39.9909 36.1773 39.8032 36.3381 39.5623C36.499 39.3215 36.5848 39.0384 36.5848 38.7488H36.5845ZM41.4652 38.7488C41.4651 38.7008 41.4625 38.6529 41.4574 38.6052C41.4528 38.5574 41.4456 38.5098 41.436 38.4626C41.4272 38.4157 41.4155 38.3694 41.4007 38.324C41.3872 38.2781 41.3706 38.2332 41.353 38.1882C41.3354 38.1433 41.3139 38.1013 41.2915 38.0593C41.2691 38.0171 41.2447 37.976 41.2182 37.9363C41.1915 37.8961 41.1628 37.8573 41.1322 37.8201C41.1021 37.7827 41.0698 37.7472 41.0356 37.7136C41.0024 37.6794 40.9663 37.6472 40.9291 37.616C40.8919 37.5867 40.8529 37.5574 40.8128 37.531C40.7731 37.5045 40.7321 37.4801 40.6899 37.4578C40.6478 37.4353 40.604 37.4148 40.5599 37.3962C40.5159 37.3778 40.471 37.3619 40.4252 37.3484C40.3339 37.3191 40.2396 37.3001 40.144 37.2917C40.0005 37.2779 39.8558 37.2848 39.7143 37.3123C39.6672 37.3219 39.6206 37.3339 39.5748 37.3484C39.529 37.3618 39.484 37.3778 39.44 37.3962C39.396 37.4148 39.3521 37.4353 39.3101 37.4578C39.2681 37.4802 39.2271 37.5046 39.187 37.531C39.1068 37.5842 39.0322 37.6454 38.9644 37.7136C38.9301 37.7472 38.8978 37.7828 38.8676 37.8201C38.8374 37.8573 38.8091 37.8961 38.7828 37.9363C38.7559 37.976 38.7311 38.0171 38.7085 38.0593C38.686 38.1012 38.6658 38.1442 38.6479 38.1882C38.6294 38.2326 38.6131 38.2779 38.5991 38.324C38.5855 38.3689 38.5738 38.4158 38.564 38.4626C38.5544 38.5098 38.5472 38.5574 38.5424 38.6052C38.5376 38.6531 38.5356 38.7009 38.5356 38.7488C38.5356 38.7966 38.5376 38.8455 38.5424 38.8933C38.5472 38.9408 38.5544 38.9881 38.564 39.0349C38.5738 39.0818 38.5855 39.1287 38.5991 39.1746C38.6131 39.2203 38.6294 39.2653 38.6479 39.3093C38.6658 39.3537 38.686 39.397 38.7085 39.4392C38.7309 39.4812 38.7564 39.5222 38.7828 39.5623C38.8091 39.6021 38.8374 39.6406 38.8676 39.6775C38.8981 39.7149 38.9304 39.7508 38.9644 39.7849C38.9986 39.8181 39.0337 39.8513 39.0718 39.8816C39.1085 39.9121 39.147 39.9405 39.187 39.9666C39.2271 39.9929 39.268 40.0183 39.3101 40.0408C39.3949 40.085 39.4835 40.1216 39.5748 40.1501C39.6206 40.1638 39.6674 40.1755 39.7143 40.1853C39.8085 40.2046 39.9043 40.2141 40.0004 40.2136C40.3885 40.2126 40.7605 40.0585 41.0356 39.7849C41.1031 39.7164 41.1642 39.6419 41.2182 39.5623C41.2446 39.5222 41.269 39.4812 41.2915 39.4392C41.3139 39.3972 41.3344 39.3533 41.353 39.3093C41.3715 39.2654 41.3872 39.2195 41.4007 39.1746C41.4153 39.1288 41.4271 39.0821 41.436 39.0349C41.4455 38.9881 41.4527 38.9408 41.4574 38.8933C41.4624 38.8452 41.4649 38.7969 41.4649 38.7486L41.4652 38.7488ZM46.348 38.7488C46.348 38.3603 46.1937 37.9877 45.919 37.713C45.6442 37.4383 45.2717 37.2839 44.8832 37.2839H44.8803C44.5907 37.2845 44.3078 37.3709 44.0673 37.5322C43.8268 37.6935 43.6394 37.9225 43.529 38.1902C43.4186 38.4579 43.39 38.7523 43.4468 39.0363C43.5036 39.3203 43.6434 39.581 43.8484 39.7856C44.0533 39.9902 44.3143 40.1294 44.5984 40.1857C44.8825 40.242 45.1769 40.2128 45.4444 40.1018C45.7119 39.9909 45.9405 39.8031 46.1013 39.5623C46.2622 39.3215 46.348 39.0384 46.348 38.7488Z" fill="#E42C73"/>
</svg>
