<svg width="253" height="41" viewBox="0 0 253 41" fill="none" xmlns="http://www.w3.org/2000/svg">
<g opacity="0.5">
<path opacity="0.5" d="M252.5 97.4995C252.5 124.084 238.442 148.186 215.645 165.658C192.848 183.131 161.332 193.952 126.5 193.952C91.6683 193.952 60.1525 183.131 37.3551 165.658C14.5583 148.186 0.5 124.084 0.5 97.4995C0.5 70.9148 14.5583 46.8125 37.3551 29.3405C60.1525 11.8681 91.6683 1.04688 126.5 1.04688C161.332 1.04688 192.848 11.8681 215.645 29.3405C238.442 46.8125 252.5 70.9148 252.5 97.4995Z" stroke="#8A99A5"/>
<path opacity="0.5" d="M237.13 99.5736C237.13 122.37 225.062 143.042 205.483 158.032C185.903 173.022 158.833 182.308 128.911 182.308C98.9889 182.308 71.9182 173.022 52.3386 158.032C32.7594 143.042 20.6915 122.37 20.6915 99.5736C20.6915 76.7774 32.7594 56.1048 52.3386 41.1153C71.9182 26.1254 98.9889 16.8396 128.911 16.8396C158.833 16.8396 185.903 26.1254 205.483 41.1153C225.062 56.1048 237.13 76.7774 237.13 99.5736Z" stroke="#8A99A5"/>
<path opacity="0.5" d="M237.13 88.1612C237.13 110.957 225.062 131.63 205.483 146.62C185.903 161.609 158.833 170.895 128.911 170.895C98.9889 170.895 71.9182 161.609 52.3386 146.62C32.7594 131.63 20.6915 110.957 20.6915 88.1612C20.6915 65.3651 32.7594 44.6925 52.3386 29.7029C71.9182 14.713 98.9889 5.42725 128.911 5.42725C158.833 5.42725 185.903 14.713 205.483 29.7029C225.062 44.6925 237.13 65.3651 237.13 88.1612Z" stroke="#8A99A5"/>
</g>
</svg>
