<svg width="80" height="80" viewBox="0 0 80 80" fill="none" xmlns="http://www.w3.org/2000/svg">
<rect width="80" height="80" rx="20" fill="#FFD41B" fill-opacity="0.2"/>
<g clip-path="url(#clip0_4_189)">
<path d="M53.2812 41.5625C46.8091 41.5625 41.5625 46.8091 41.5625 53.2812C41.5625 59.7532 46.8091 65 53.2812 65C59.7534 65 65 59.7532 65 53.2812C65 46.8091 59.7534 41.5625 53.2812 41.5625ZM51.8164 58.2823L46.8153 53.2812L48.8867 51.2099L51.8164 54.1396L57.6758 48.2802L59.7472 50.3516L51.8164 58.2823Z" fill="#FFCF00"/>
<path d="M37.168 15C26.668 15 18.125 23.7383 18.125 34.2383C18.125 38.8517 19.7429 43.1962 22.7084 46.6251L15 53.2812H37.168C37.6708 53.2812 38.1515 53.1887 38.6459 53.1515C38.7178 45.1359 45.2491 38.6328 53.2812 38.6328C54.0818 38.6328 54.853 38.7449 55.619 38.8692C55.9971 37.3638 56.2109 35.8115 56.2109 34.2383C56.2109 23.7383 47.668 15 37.168 15ZM38.6328 43.0273H35.7031V40.0977H38.6328V43.0273ZM39.3667 33.6489C38.9146 33.9107 38.6328 34.3985 38.6328 34.9192V37.168H35.7031V34.9192C35.7031 33.3557 36.5442 31.8979 37.8989 31.1141C38.1218 30.9851 38.3069 30.7999 38.4357 30.577C38.5645 30.3541 38.6324 30.1012 38.6328 29.8438C38.6328 29.0355 37.9762 28.3789 37.168 28.3789C36.3598 28.3789 35.7031 29.0355 35.7031 29.8438H32.7734C32.7734 27.4205 34.7447 25.4492 37.168 25.4492C39.5912 25.4492 41.5625 27.4205 41.5625 29.8438C41.5625 31.4073 40.7214 32.8664 39.3667 33.6489Z" fill="#FFCF00"/>
</g>
<defs>
<clipPath id="clip0_4_189">
<rect width="50" height="50" fill="white" transform="translate(15 15)"/>
</clipPath>
</defs>
</svg>
