<svg width="294" height="70" viewBox="0 0 294 70" fill="none" xmlns="http://www.w3.org/2000/svg">
<g opacity="0.5">
<path opacity="0.5" d="M396.79 199C396.79 308.629 308.077 397.5 198.645 397.5C89.2134 397.5 0.5 308.629 0.5 199C0.5 89.3706 89.2134 0.5 198.645 0.5C308.077 0.5 396.79 89.3706 396.79 199Z" stroke="#8A99A5"/>
<path opacity="0.5" d="M372.654 203.257C372.654 297.335 296.442 373.599 202.431 373.599C108.419 373.599 32.2073 297.335 32.2073 203.257C32.2073 109.18 108.419 32.9153 202.431 32.9153C296.442 32.9153 372.654 109.18 372.654 203.257Z" stroke="#8A99A5"/>
<path opacity="0.5" d="M372.654 179.833C372.654 273.91 296.442 350.175 202.431 350.175C108.419 350.175 32.2073 273.91 32.2073 179.833C32.2073 85.7553 108.419 9.49097 202.431 9.49097C296.442 9.49097 372.654 85.7553 372.654 179.833Z" stroke="#8A99A5"/>
</g>
</svg>
