<svg width="23" height="20" viewBox="0 0 23 20" fill="none" xmlns="http://www.w3.org/2000/svg">
<mask id="mask0_2050_2" style="mask-type:luminance" maskUnits="userSpaceOnUse" x="0" y="0" width="23" height="20">
<rect width="23" height="20" fill="white"/>
</mask>
<g mask="url(#mask0_2050_2)">
<path fill-rule="evenodd" clip-rule="evenodd" d="M23 10C23 10 18.6875 3.125 11.5 3.125C4.3125 3.125 0 10 0 10C0 10 4.3125 16.875 11.5 16.875C18.6875 16.875 23 10 23 10V10ZM1.68619 10C2.38125 10.9186 3.18069 11.7741 4.07245 12.5538C5.92251 14.165 8.45251 15.625 11.5 15.625C14.5475 15.625 17.0761 14.165 18.929 12.5538C19.8208 11.7741 20.6202 10.9186 21.3153 10C20.6202 9.0814 19.8208 8.22585 18.929 7.44624C17.0761 5.835 14.5461 4.375 11.5 4.375C8.45251 4.375 5.92394 5.835 4.07101 7.44625C3.17924 8.22586 2.3798 9.08141 1.68475 10L1.68619 10Z" fill="#171717"/>
<path fill-rule="evenodd" clip-rule="evenodd" d="M11.5 6.875C9.51523 6.875 7.90625 8.27411 7.90625 9.99999C7.90624 11.7259 9.51521 13.125 11.5 13.125C13.4848 13.125 15.0937 11.7259 15.0937 10C15.0938 8.27413 13.4848 6.87501 11.5 6.875H11.5ZM6.46875 10C6.46875 8.43696 7.4277 6.99266 8.98437 6.21114C10.541 5.42962 12.4589 5.42962 14.0156 6.21114C15.5723 6.99266 16.5312 8.43696 16.5312 10C16.5312 11.563 15.5723 13.0073 14.0156 13.7889C12.459 14.5704 10.5411 14.5704 8.98438 13.7889C7.4277 13.0073 6.46875 11.563 6.46875 10V10Z" fill="#171717"/>
</g>
</svg>
