<svg width="392" height="243" viewBox="0 0 392 243" fill="none" xmlns="http://www.w3.org/2000/svg">
<path opacity="0.5" d="M443.5 121.397C443.5 243.948 344.33 343.293 222 343.293C99.6698 343.293 0.5 243.948 0.5 121.397C0.5 -1.15432 99.6698 -100.5 222 -100.5C344.33 -100.5 443.5 -1.15432 443.5 121.397Z" stroke="white"/>
<path opacity="0.5" d="M416.527 126.155C416.527 231.326 331.329 316.583 226.232 316.583C121.135 316.583 35.936 231.326 35.936 126.155C35.936 20.9847 121.135 -64.2725 226.232 -64.2725C331.329 -64.2725 416.527 20.9847 416.527 126.155Z" stroke="white"/>
<path opacity="0.5" d="M416.527 99.9777C416.527 205.148 331.329 290.406 226.232 290.406C121.135 290.406 35.936 205.148 35.936 99.9777C35.936 -5.19303 121.135 -90.4502 226.232 -90.4502C331.329 -90.4502 416.527 -5.19303 416.527 99.9777Z" stroke="white"/>
<path d="M314.037 137.948C310.186 138.728 302.698 138.328 300.475 138.036C300.407 137.256 300.524 129.778 300.426 128.091C300.426 128.003 300.28 127.954 300.28 127.954C294.764 127.567 289.232 127.456 283.705 127.623C283.705 121.071 283.705 114.441 283.559 107.821C283.56 107.796 283.555 107.772 283.544 107.75C283.534 107.728 283.519 107.709 283.5 107.694C283.481 107.679 283.459 107.668 283.435 107.663C283.412 107.658 283.387 107.659 283.364 107.665C273.214 107.314 265.814 107.46 265.755 107.567C265.648 108.269 265.472 114.841 265.531 116.342C262.552 113.067 258.953 110.416 254.942 108.542C253.992 108.236 253.106 107.757 252.329 107.128C252.109 106.931 251.941 106.681 251.842 106.401C251.743 106.122 251.716 105.822 251.764 105.529C252.612 102.292 257.672 100.654 259.154 99.5332C260.069 98.9226 260.853 98.1369 261.462 97.2216C262.072 96.3062 262.493 95.2792 262.703 94.2C262.761 93.1584 262.466 92.1277 261.865 91.275C261.231 90.3 262.235 90.1147 262.928 89.5102C262.287 89.5204 261.655 89.6666 261.075 89.9392C261.298 89.586 261.425 89.181 261.443 88.7639C261.462 88.3468 261.372 87.932 261.182 87.5602C261.231 87.8722 261.203 88.1914 261.102 88.4903C261 88.7892 260.827 89.0589 260.597 89.2762C260.651 88.4841 260.412 87.6999 259.925 87.0727C257.419 83.8065 252.125 83.1045 248.293 82.89C248.39 75.09 248.293 54.7515 248.293 52.4895C257.068 52.8795 265.843 53.3085 274.696 53.6595C274.072 67.3972 273.916 81.2227 274.316 95.0287C274.317 95.0524 274.324 95.0754 274.336 95.0958C274.348 95.1162 274.365 95.1334 274.385 95.1458C274.405 95.1583 274.428 95.1657 274.451 95.1674C274.475 95.1691 274.499 95.165 274.52 95.1555C278.947 95.3212 289.935 95.7015 291.008 95.7307C291.456 101.785 291.583 107.947 291.495 114.1C291.498 114.145 291.517 114.187 291.55 114.218C291.583 114.248 291.626 114.266 291.671 114.265C296.082 114.548 300.507 114.568 304.921 114.324C305.067 114.324 305.077 114.08 304.921 114.08C302.688 114.08 293.972 114.08 291.846 113.934C292.007 107.803 291.838 101.668 291.339 95.5552C287.332 94.9117 275.846 94.9215 274.608 94.8922C274.335 81.135 274.403 67.2997 275.037 53.4937C275.037 53.4488 275.02 53.4056 274.989 53.3729C274.958 53.3403 274.916 53.3207 274.871 53.3182C274.774 53.3182 248.166 52.2067 248.069 52.2555C248.033 52.2625 248.002 52.2823 247.98 52.3111C247.959 52.3399 247.949 52.3756 247.952 52.4115V82.8997C245.904 83.1532 246.684 84.957 246.167 85.9612C245.943 86.3805 245.758 86.205 245.397 86.4487C244.422 87.0825 244.51 91.3237 244.549 92.445C243.574 94.9702 242.813 98.6167 244.646 100.625C244.968 100.976 245.534 101.269 245.709 101.727C245.742 101.882 245.74 102.043 245.705 102.198C245.67 102.353 245.601 102.498 245.504 102.624C245.132 103.313 244.561 103.874 243.866 104.234C243.17 104.594 242.382 104.736 241.604 104.642C235.481 104.155 232.917 105.1 231.581 105.481C227.567 107.301 223.784 109.592 220.31 112.306C220.147 112.494 220.038 112.723 219.995 112.969C219.952 113.215 219.977 113.467 220.067 113.7C219.092 114.1 218.117 114.675 217.2 115.133C216.625 113.281 214.012 104.34 213.866 103.95C214.457 103.58 214.96 103.084 215.338 102.497C216.313 102.497 216.527 102.556 216.596 102.409C217.346 100.742 217.834 98.958 218.643 97.3102C219.54 97.3102 228.754 96.8422 232.449 96.5205C232.449 96.5205 237.656 97.4955 237.919 97.5832C237.904 97.7869 237.936 97.9912 238.012 98.1808C238.088 98.3704 238.206 98.5402 238.357 98.6773C238.508 98.8145 238.689 98.9155 238.885 98.9725C239.081 99.0296 239.287 99.0413 239.489 99.0067C240.581 98.88 241.224 97.8952 241.663 96.9982C242.195 95.9802 242.478 94.8511 242.492 93.7027C242.492 91.4602 241.302 90.6997 240.386 90.7777C240.145 90.7669 239.908 90.8382 239.713 90.9799C239.518 91.1216 239.377 91.3254 239.313 91.5577C238.65 91.4407 234.506 90.6412 234.438 90.5827C232.137 88.1647 226.17 82.9192 226.17 82.8997C226.014 77.3715 226.219 62.6002 226.277 60.9135C226.275 60.8677 226.256 60.8244 226.223 60.792C226.191 60.7596 226.148 60.7403 226.102 60.738C214.899 60.9525 212.14 60.3772 212.15 60.8842C212.276 63.702 212.257 72.165 212.208 72.1357C204.983 67.3485 193.42 56.409 193.615 56.5357C193.498 56.1555 192.942 54.6345 192.776 54.2542C192.776 54.1957 187.287 52.5187 186.127 52.3042C185.596 52.2979 185.074 52.4361 184.616 52.704C183.166 53.6819 181.932 54.9461 180.989 56.4187C172.35 68.0017 169.103 81.33 170.897 93.225C171.084 94.8962 171.49 96.5354 172.106 98.1C172.353 98.5958 172.719 99.0222 173.172 99.3406C173.625 99.659 174.15 99.8593 174.7 99.9232C175.675 100.138 180.404 100.654 181.525 100.381C182.198 99.9811 182.849 99.5449 183.475 99.075C186.4 99.1335 194.541 98.7045 195.711 98.646C195.428 104.106 195.467 118.087 195.526 119.599C190.934 119.501 179.253 119.501 177.976 119.462C177.976 116.83 178.19 113.953 178.073 111.282C177.917 111.038 177.625 111.028 177.371 111.009C175.178 110.882 165.925 110.59 163.829 110.775C163.409 110.775 163.916 110.648 163.829 122.007H147.692C147.646 122.007 147.601 122.025 147.568 122.058C147.535 122.091 147.517 122.136 147.517 122.182C147.517 129.524 147.38 136.934 147.517 144.334H133.477C133.443 144.334 133.411 144.348 133.387 144.372C133.364 144.395 133.35 144.428 133.35 144.461C133.35 144.495 133.364 144.527 133.387 144.551C133.411 144.575 133.443 144.588 133.477 144.588C142.993 144.705 152.558 144.802 162.113 144.763C162.298 144.763 162.356 145.436 162.308 132.41C168.158 132.41 174.008 132.556 179.926 132.41C179.926 136.798 179.799 141.185 179.858 145.573C178.13 144.766 176.167 144.621 174.339 145.163C170.088 146.284 170.917 149.473 170.8 149.95C170.585 150.613 169.961 150.438 169.25 150.623C168.44 150.845 167.705 151.279 167.121 151.881C166.536 152.483 166.123 153.23 165.925 154.045C163.975 153.958 162.746 154.045 161.801 155.732C161.283 155.142 160.639 154.677 159.916 154.371C159.193 154.066 158.41 153.927 157.626 153.967C156.842 154.006 156.077 154.222 155.389 154.599C154.7 154.975 154.106 155.503 153.65 156.142C151.934 155.576 150.413 157.117 149.672 158.667C148.424 161.329 150.5 162.801 150.647 163.191L145.187 163.123C145.05 163.123 145.05 163.327 145.187 163.337C147.049 163.337 164.609 164.01 206.612 163.405C201.971 173.565 201.366 190.705 201.093 201.82C201.639 202.06 202.203 202.256 202.78 202.405C202.78 203.156 202.838 203.936 202.838 204.921C201.971 205.418 199.25 207.037 199.104 207.222C198.958 207.407 198.841 208.099 199.28 208.197C201.41 208.254 203.542 208.195 205.666 208.021C205.54 206.232 205.772 204.436 206.348 202.737C207.56 202.757 208.772 202.695 209.975 202.552C216.167 188.707 216.995 181.589 219.111 176.831C221.207 175.261 226.385 169.694 228.812 167.471C229.192 163.785 229.244 160.072 228.968 156.376C228.968 156.21 229.173 156.064 229.329 156.376C229.641 157.029 230.002 159.398 229.661 165.814C229.524 168.466 228.598 173.828 230.909 180.936C232.97 186.519 236.19 191.603 240.356 195.853L248.42 203.985C248.965 203.886 249.502 203.749 250.028 203.575C250.077 203.634 251.559 205.525 251.637 205.525C251.627 206.069 251.458 206.597 251.151 207.046C250.845 207.494 250.414 207.844 249.911 208.051C249.619 208.168 249.765 209.026 249.989 209.026C251.029 209.084 252.07 209.084 253.109 209.026C253.928 208.102 254.683 207.125 255.371 206.101C255.371 205.945 253.421 203.38 253.07 202.045C253.458 201.783 253.826 201.492 254.172 201.177C250.563 192.875 247.38 184.395 244.637 175.768C246.421 172.658 249.609 166.633 250.058 163.259C271.391 164.234 289.438 165.472 310.254 163.386C310.41 163.386 310.41 163.132 310.254 163.142L307.787 163.357C307.228 161.864 306.347 160.512 305.206 159.398C304.065 158.284 302.693 157.435 301.187 156.912C298.778 156.122 298.34 157.039 297.618 156.054C296.677 154.614 295.286 153.525 293.662 152.957C292.038 152.389 290.272 152.374 288.638 152.914C288.989 149.083 286.23 145.495 281.93 145.982C282.406 144.474 282.337 142.847 281.737 141.385C281.137 139.922 280.042 138.716 278.645 137.977C279.001 136.85 279.042 135.647 278.766 134.498C278.489 133.349 277.905 132.297 277.075 131.455C276.633 130.868 276.024 130.43 275.327 130.199C274.63 129.967 273.88 129.953 273.175 130.158C272.162 128.311 270.917 126.6 269.47 125.068C269.792 124.652 270.089 124.215 270.357 123.762C269.151 121.127 267.59 118.67 265.716 116.459C265.716 116.459 266.009 108.386 266.028 107.684C270.513 107.587 281.989 107.947 283.237 107.928C283.237 113.076 283.286 126.297 283.334 127.759C283.336 127.79 283.346 127.819 283.361 127.844C283.377 127.87 283.399 127.892 283.425 127.907C283.451 127.922 283.48 127.931 283.51 127.933C283.54 127.934 283.57 127.928 283.598 127.915C291.69 127.662 298.291 128.149 300.124 128.179C300.124 129.875 299.822 137.47 300.124 138.211C300.124 138.299 303.634 139.021 310.644 138.67C311.405 138.592 314.69 138.504 314.037 137.948ZM205.422 204.833C204.652 204.745 203.875 204.726 203.102 204.775C203.102 204.677 203.014 202.825 202.985 202.454C203.989 202.608 205.002 202.709 206.017 202.756C205.9 203.068 205.442 204.794 205.422 204.833ZM252.788 202.259L253.831 204.209C253.519 204.385 252.505 205.038 251.881 205.408C251.881 205.311 250.331 203.458 250.292 203.458C251.149 203.115 251.983 202.714 252.788 202.259ZM241.819 105.149C242.147 105.14 242.473 105.101 242.794 105.032C243.351 104.991 243.893 104.83 244.382 104.561C244.872 104.291 245.298 103.92 245.631 103.472C247.952 100.128 243.145 101.912 244.217 95.5552C244.754 92.9628 245.719 90.4781 247.074 88.2037C247.826 89.162 248.767 89.9553 249.839 90.534C250.911 91.1127 252.091 91.4645 253.304 91.5675C254.104 91.5675 253.373 93.4395 253.704 95.0482C253.948 96.189 255.206 95.3505 255.937 96.0232C256.162 96.2403 256.32 96.5172 256.392 96.8211C256.465 97.1251 256.449 97.4434 256.346 97.7386C256.244 98.0338 256.059 98.2935 255.814 98.4871C255.568 98.6807 255.273 98.8001 254.962 98.8312C254.461 100.003 254.031 101.205 253.675 102.429C252.481 103.24 251.652 104.486 251.364 105.9C251.444 106.363 251.631 106.801 251.91 107.178C252.189 107.556 252.553 107.863 252.973 108.074C251.562 109.618 249.64 110.598 247.562 110.833C246.431 111.028 245.269 110.913 244.198 110.502C242.189 109.615 241.458 107.294 241.819 105.149ZM213.446 103.882C213.524 104.379 216.303 113.573 216.888 115.504C217.307 115.845 219.15 114.324 220.135 114.041C220.625 117.821 222.188 121.38 224.639 124.298C219.764 128.335 216.206 128.851 215.611 128.871C215.022 128.897 214.435 128.783 213.899 128.537C213.363 128.291 212.894 127.921 212.53 127.457C211.093 125.72 210.204 123.596 209.975 121.354C209.098 115.767 209.371 109.917 209.459 104.213C209.597 104.264 209.747 104.271 209.89 104.234C210.033 104.198 210.161 104.119 210.258 104.008C210.765 104.866 211.409 104.71 211.76 104.135C212.501 105.208 213.534 103.667 213.778 102.429C213.778 102.429 214.597 102.497 214.997 102.507C214.616 103.258 213.417 103.696 213.446 103.882ZM210.677 100.791C210.677 100.654 210.97 100.489 211.087 100.479C211.209 100.483 211.325 100.53 211.414 100.613C211.504 100.695 211.561 100.807 211.574 100.927C211.574 101.083 211.808 101.161 211.877 101.015C211.932 100.907 212.012 100.814 212.11 100.743C212.208 100.672 212.322 100.625 212.441 100.606C212.561 100.587 212.684 100.596 212.799 100.634C212.914 100.671 213.019 100.735 213.105 100.82C214.246 101.795 212.725 104.574 212.13 104.125C212.013 104.038 211.818 103.979 211.896 103.297C211.896 103.131 211.643 103.16 211.584 103.297C211.584 104.067 211.282 104.272 211.048 104.272C210.814 104.272 210.658 104.067 210.551 103.911C210.493 103.671 210.493 103.42 210.551 103.18C210.551 102.985 210.278 102.897 210.239 103.102C210.19 103.35 210.105 103.59 209.985 103.813C209.949 103.858 209.902 103.893 209.848 103.913C209.794 103.934 209.735 103.939 209.678 103.929C209.622 103.919 209.569 103.894 209.525 103.857C209.481 103.819 209.448 103.771 209.429 103.716C209.227 102.773 209.26 101.795 209.527 100.869C209.559 100.769 209.619 100.681 209.701 100.615C209.782 100.549 209.881 100.509 209.985 100.498C210.131 100.498 210.336 100.742 210.336 100.771C210.365 101.025 210.687 101.025 210.677 100.791ZM216.284 102.107C215.582 102.107 214.733 102.107 213.817 102.175C214.022 100.391 212.481 99.8842 211.789 100.576C211.727 100.46 211.637 100.361 211.526 100.289C211.416 100.217 211.289 100.174 211.158 100.165C211.026 100.155 210.895 100.179 210.775 100.233C210.655 100.288 210.551 100.373 210.473 100.479C210.414 100.409 210.342 100.352 210.26 100.311C210.179 100.27 210.09 100.246 210 100.239C209.909 100.233 209.818 100.245 209.731 100.274C209.645 100.304 209.566 100.35 209.498 100.411C209.117 100.723 209.088 101.386 209.03 102.01H205.812C205.617 101.444 204.584 98.8605 204.398 98.2072L218.185 97.359C217.902 98.1 216.683 101.298 216.284 102.107ZM241.975 95.0677C241.614 96.4425 240.883 98.724 239.05 98.6655C238.823 98.6239 238.618 98.5031 238.471 98.3246C238.325 98.146 238.247 97.9213 238.25 97.6905C238.428 97.7176 238.609 97.7176 238.787 97.6905C239.577 97.1122 240.182 96.3169 240.528 95.4012C240.874 94.4855 240.947 93.4889 240.737 92.5327C240.737 92.3475 240.551 91.7625 240.425 91.743L239.45 91.587C240.551 90.1927 242.765 91.6357 241.975 95.0677ZM212.491 61.05C212.598 61.05 221.529 61.167 225.936 61.1475C225.624 68.2845 225.556 75.519 225.858 82.7242C221.578 79.1752 216.976 75.753 212.462 72.3502C212.471 72.2625 212.569 63 212.491 61.05ZM173.101 98.763C172.126 97.7392 171.853 96.1987 171.599 94.863C169.523 84.138 171.804 72.8475 177.098 63.3412C177.937 61.8202 181.817 55.3365 184.742 53.1037C185.932 52.1872 187.443 53.3865 188.116 54.6345C189.286 56.8087 189.461 66.4027 189.247 69.5325C187.51 68.8871 185.615 68.7985 183.826 69.279C174.651 71.9115 175.431 85.9125 185.776 85.971C185.074 87.921 182.149 95.0482 177.001 98.8702C176.446 99.3235 175.747 99.5621 175.031 99.5424C174.315 99.5227 173.63 99.2461 173.101 98.763ZM181.31 100.147C181.125 100.089 177.235 99.9817 175.753 99.8355C177.091 99.3661 178.281 98.5522 179.204 97.476C185.308 91.509 188.067 81.7492 189.237 73.3057C190.005 67.5408 189.896 61.693 188.915 55.9605C188.702 54.8319 188.167 53.789 187.375 52.9575C188.067 53.1817 192.328 54.498 192.572 54.5175C195.643 62.3857 195.848 71.3265 193.956 79.5945C193.566 81.1447 193.059 82.6852 192.562 84.2062C190.485 90.8752 187.307 96.5497 181.31 100.147ZM183.758 98.8507C195.165 89.9002 197.408 68.3527 193.79 57.0135C205.958 69.747 222.065 78.2295 234.175 90.8947C234.253 90.9727 239.342 91.9282 240.366 92.094C240.63 93.0475 240.608 94.0576 240.303 94.9988C239.998 95.94 239.423 96.7708 238.65 97.3882C238.221 97.2127 232.527 96.1987 232.449 96.189C229.232 96.2182 185.23 98.7727 183.758 98.8507ZM162.103 132.049C162.074 132.049 162.046 132.057 162.021 132.071C161.996 132.085 161.976 132.105 161.961 132.13C161.946 132.154 161.938 132.182 161.937 132.211C161.937 132.24 161.943 132.268 161.957 132.293C161.957 136.242 161.82 140.395 161.957 144.442C158.369 144.354 148.882 144.325 147.887 144.325C148.004 138.679 147.887 123.928 147.887 122.338H164.004C164.032 122.339 164.06 122.333 164.085 122.32C164.11 122.307 164.132 122.288 164.147 122.265C164.163 122.241 164.172 122.214 164.174 122.186C164.177 122.158 164.172 122.13 164.16 122.104C164.267 118.546 164.16 114.792 164.082 111.116C167.621 110.98 176.504 111.438 177.41 111.496C178.083 111.496 177.674 110.999 177.693 119.735C177.693 119.813 177.859 119.911 177.898 119.911C183.748 120.32 189.705 119.911 195.662 119.979C196.335 120.203 195.594 118.195 195.994 98.6947L204.106 98.2365C204.34 98.88 205.383 101.551 205.559 102.292C205.572 102.335 205.598 102.372 205.632 102.4C205.667 102.428 205.709 102.445 205.754 102.448H209.098C209.006 103.028 209.099 103.621 209.361 104.145C208.454 118.156 209.634 121.695 209.732 122.046C208.693 121.714 207.576 121.725 206.544 122.076C205.512 122.427 204.619 123.1 203.999 123.996C203.327 123.505 202.525 123.225 201.694 123.191C200.863 123.156 200.041 123.369 199.331 123.802C198.621 124.236 198.056 124.87 197.706 125.624C197.357 126.379 197.24 127.221 197.369 128.042C197.369 128.461 196.979 128.549 196.618 128.569C192.562 128.393 189.988 131.494 190.534 134.536C189.933 135.002 189.513 135.662 189.346 136.404C189.179 137.146 189.275 137.923 189.617 138.601C188.262 139.186 186.692 140.122 186.692 141.78C186.642 142.259 186.778 142.739 187.072 143.12C187.366 143.502 187.796 143.755 188.272 143.827C188.73 143.886 189.247 143.827 189.637 144.149C189.819 144.522 190.106 144.833 190.463 145.044C190.82 145.256 191.231 145.358 191.645 145.339C191.664 145.645 191.616 145.952 191.504 146.238C191.393 146.524 191.222 146.782 191.002 146.996C191.002 146.996 189.959 146.752 189.5 146.577C189.06 146.413 188.576 146.413 188.135 146.577C187.621 146.777 187.057 146.812 186.522 146.68C185.986 146.547 185.504 146.253 185.142 145.836C184.567 144.861 183.533 143.213 182.217 144.276C182.059 144.414 181.935 144.588 181.856 144.783C181.856 146.548 180.833 145.992 180.335 145.758C180.462 141.253 180.433 136.759 180.443 132.254C180.306 131.991 181.193 132.01 162.103 132.049ZM206.875 162.928C205.481 162.928 168.236 163.366 150.978 163.191C150.666 162.216 149.262 161.348 149.789 159.437C150.315 157.526 151.943 155.839 153.747 156.512C153.788 156.526 153.832 156.525 153.871 156.509C153.91 156.493 153.943 156.463 153.962 156.424C154.381 155.841 154.925 155.357 155.554 155.008C156.182 154.658 156.881 154.453 157.598 154.405C158.316 154.358 159.035 154.47 159.704 154.733C160.373 154.996 160.976 155.404 161.469 155.927C161.674 156.103 161.742 156.366 162.015 156.005C162.668 154.435 164.521 154.211 166.139 154.377C166.179 154.375 166.217 154.361 166.249 154.336C166.28 154.312 166.303 154.278 166.315 154.24C166.501 153.236 167.058 152.338 167.875 151.725C168.733 151.186 169.704 150.853 170.712 150.75C170.86 150.603 170.975 150.426 171.049 150.231C171.123 150.036 171.155 149.827 171.141 149.619C171.106 148.773 171.355 147.939 171.848 147.25C172.341 146.561 173.049 146.057 173.861 145.816C177.557 144.666 180.686 146.548 181.184 146.47C181.681 146.392 181.886 145.992 181.934 145.495C181.934 145.202 181.886 144.432 182.909 144.325C183.933 144.217 184.255 145.504 184.713 146.099C185.062 146.518 185.52 146.831 186.037 147.003C186.554 147.176 187.108 147.2 187.638 147.074C188.311 146.967 188.525 146.723 189.257 147.006C189.792 147.175 190.345 147.283 190.904 147.328C191.227 147.072 191.479 146.738 191.636 146.358C191.793 145.977 191.85 145.562 191.801 145.153C191.801 145.131 191.795 145.11 191.785 145.09C191.775 145.07 191.76 145.053 191.742 145.04C191.724 145.027 191.704 145.018 191.682 145.014C191.66 145.01 191.638 145.011 191.616 145.017C191.36 145.07 191.095 145.056 190.846 144.978C190.597 144.899 190.372 144.758 190.193 144.568C189.89 144.237 189.764 143.818 189.296 143.662C188.828 143.506 188.321 143.603 187.901 143.467C187.636 143.328 187.406 143.13 187.23 142.887C187.054 142.645 186.936 142.366 186.885 142.071C186.834 141.776 186.851 141.473 186.937 141.186C187.022 140.899 187.172 140.635 187.375 140.415C188.039 139.659 188.889 139.091 189.842 138.767C189.875 138.749 189.9 138.718 189.91 138.682C189.921 138.645 189.918 138.606 189.9 138.572C189.519 137.939 189.391 137.185 189.543 136.461C189.695 135.738 190.115 135.098 190.719 134.672C190.745 134.657 190.766 134.633 190.778 134.605C190.791 134.577 190.794 134.546 190.787 134.516C190.163 131.65 192.737 128.998 195.662 128.842C197.027 128.92 197.915 128.715 197.612 127.165C197.66 126.502 197.868 125.86 198.217 125.294C198.567 124.729 199.049 124.257 199.621 123.918C201.025 123.031 202.799 123.606 204.125 124.249C204.722 123.36 205.591 122.689 206.603 122.337C207.614 121.985 208.712 121.972 209.732 122.299C209.79 122.299 210.833 128.5 214.919 129.212C215.465 129.31 218.575 129.378 224.464 125.039C223.928 126.716 221.48 135.676 221.042 138.25C220.925 138.982 221.519 139.352 222.017 139.684C219.599 143.418 210.931 154.24 206.875 162.928ZM277.572 132.605C278.097 133.402 278.432 134.309 278.55 135.256C278.668 136.202 278.567 137.164 278.255 138.065C278.24 138.107 278.241 138.152 278.257 138.194C278.273 138.235 278.304 138.269 278.342 138.289C283.276 140.941 281.54 146.089 281.54 146.089C280.766 146.276 280.045 146.639 279.434 147.152C279.337 147.25 279.434 147.396 279.59 147.308C280.283 146.767 281.102 146.411 281.971 146.275C282.839 146.138 283.728 146.225 284.553 146.528C285.843 147.05 286.917 147.996 287.598 149.21C288.278 150.424 288.525 151.834 288.297 153.207C294.381 151.725 297.072 155.83 297.277 156.132C297.901 157.029 298.125 156.912 299.227 156.951C302.873 157.117 306.052 160.12 307.563 163.405C288.512 164.839 269.353 163.698 250.262 162.859C251.782 157.655 252.601 152.271 252.7 146.85C253.069 146.786 253.434 146.699 253.792 146.587C254.043 146.128 254.227 145.635 254.338 145.124C255.313 140.122 256.912 135.033 257.263 129.817C258.521 130.975 259.889 132.007 261.348 132.898C261.465 132.956 261.836 132.654 261.953 132.576C262.977 133.189 263.954 133.877 264.878 134.633C266.574 136.408 265.853 138.211 266.301 144.988C266.74 152.203 267.393 153.948 267.188 154.533C266.886 155.303 264.01 155.888 266.301 156.483C266.564 156.483 267.393 156.249 267.276 156.785C266.974 157.282 266.301 158.248 267.393 158.501C267.552 158.518 267.712 158.477 267.842 158.384C267.856 158.548 267.928 158.702 268.047 158.817C268.165 158.931 268.321 158.999 268.485 159.008C268.663 159.016 268.839 158.967 268.988 158.869C269.137 158.771 269.251 158.629 269.314 158.462C269.35 158.563 269.413 158.652 269.495 158.72C269.577 158.789 269.676 158.834 269.782 158.852C270.884 158.774 270.825 157.224 271.108 156.278C271.371 154.445 271.42 152.378 272.444 150.565C274.988 143.74 276.685 136.915 273.419 130.538C274.234 130.404 275.07 130.531 275.808 130.903C276.546 131.274 277.146 131.87 277.523 132.605H277.572ZM271.556 151.588C271.049 152.7 270.581 157.146 270.464 157.438C270.347 157.731 270.182 158.813 269.606 158.277C269.528 158.106 269.501 157.917 269.528 157.731C269.528 157.546 269.275 157.555 269.246 157.731C269.246 158.082 269.041 158.579 268.612 158.618C267.89 158.618 268.173 157.711 268.154 157.643C268.145 157.61 268.126 157.58 268.098 157.559C268.071 157.537 268.037 157.526 268.003 157.526C267.968 157.526 267.934 157.537 267.907 157.559C267.88 157.58 267.86 157.61 267.851 157.643C267.851 157.711 267.783 158.384 267.257 158.092C267.032 157.955 267.062 157.731 267.169 157.536C267.276 157.341 267.569 157.058 267.617 156.746C267.635 156.614 267.61 156.48 267.544 156.364C267.479 156.248 267.378 156.156 267.257 156.103C266.935 156.037 266.603 156.037 266.282 156.103C266.135 156.103 265.843 156.103 265.794 155.908C265.745 155.713 266.291 155.615 266.438 155.566C268.115 154.972 267.51 153.616 267.286 151.793C266.828 148.137 266.642 144.354 266.496 140.561V137.246C266.291 134.623 264.634 133.551 262.333 132.371C262.333 132.371 267.13 128.91 269.402 125.341C274.598 131.63 277.348 137.539 271.508 151.588H271.556ZM266.272 117.707C267.763 119.549 269.045 121.55 270.094 123.674C268.573 126.599 264.039 130.636 261.504 132.449C260.432 131.903 257.165 130.06 254.299 124.844C254.24 124.737 254.075 124.844 254.133 124.942C254.96 126.534 255.94 128.043 257.058 129.446C256.717 133.951 255.342 138.494 254.455 143.008C254.254 144.097 253.973 145.169 253.616 146.216C250.691 146.928 230.012 144.178 222.036 139.128C221.519 138.816 221.402 138.67 221.519 138.026C222.494 132.761 225.692 120.983 229.319 113.778C229.378 113.651 229.193 113.544 229.134 113.671C227.469 116.977 226.041 120.398 224.864 123.908C222.992 121.363 220.837 117.424 220.544 113.359C220.408 112.715 220.983 112.384 221.422 112.101C221.861 111.818 230.84 104.457 239.099 104.944C239.771 104.944 241.497 105.12 241.702 105.12C241.457 106.086 241.499 107.104 241.825 108.046C242.151 108.989 242.745 109.815 243.535 110.424C245.66 111.886 250.36 111.565 253.285 108.181C258.281 110.306 262.711 113.568 266.223 117.707H266.272Z" fill="white"/>
<path d="M247.357 96.9298C247.379 96.9245 247.399 96.9134 247.416 96.8976C247.432 96.8818 247.444 96.8618 247.45 96.8399C247.456 96.818 247.456 96.7948 247.45 96.7729C247.444 96.751 247.432 96.7311 247.415 96.7153C247.23 96.5496 246.762 96.5593 246.762 96.2181C247.426 95.3467 248.143 94.5164 248.907 93.7318C248.995 93.6343 248.858 93.4783 248.761 93.5758C246.694 95.6526 246.284 95.9548 246.499 96.5008C246.582 96.6506 246.708 96.7717 246.862 96.8483C247.015 96.9248 247.187 96.9533 247.357 96.9298ZM246.791 93.3613C246.994 93.1356 247.183 92.898 247.357 92.6496C247.454 92.5131 247.22 92.3376 247.103 92.5131C246.926 92.7461 246.77 92.994 246.635 93.2541C246.638 93.2718 246.644 93.2889 246.653 93.3041C246.662 93.3194 246.675 93.3326 246.689 93.3427C246.704 93.3528 246.721 93.3597 246.738 93.3629C246.756 93.3661 246.774 93.3656 246.791 93.3613ZM250.526 95.3991C250.662 95.3991 251.744 94.6483 251.501 94.4241C251.47 94.3931 251.428 94.3757 251.384 94.3757C251.34 94.3757 251.298 94.3931 251.267 94.4241C251.13 94.6581 250.409 95.0578 250.418 95.3991C250.435 95.4085 250.453 95.4134 250.472 95.4134C250.491 95.4134 250.509 95.4085 250.526 95.3991ZM248.858 100.118C249.229 100.391 249.902 99.9621 250.214 99.4356C250.391 99.0891 250.534 98.7268 250.643 98.3533C250.648 98.337 250.65 98.3197 250.649 98.3026C250.648 98.2854 250.643 98.2687 250.635 98.2534C250.627 98.2382 250.616 98.2248 250.602 98.2139C250.589 98.2031 250.573 98.1951 250.557 98.1905C250.54 98.1859 250.523 98.1846 250.506 98.1869C250.489 98.1892 250.472 98.195 250.458 98.2038C250.443 98.2127 250.43 98.2244 250.42 98.2384C250.41 98.2524 250.403 98.2683 250.399 98.2851C250.283 98.5427 250.099 98.764 249.868 98.9254C249.636 99.0869 249.365 99.1823 249.083 99.2016C248.556 99.3673 248.498 99.8743 248.858 100.118ZM200.723 68.4306C200.702 68.4176 200.677 68.4135 200.653 68.4189C200.63 68.4244 200.609 68.4391 200.596 68.4598C200.583 68.4805 200.579 68.5055 200.584 68.5293C200.59 68.553 200.605 68.5736 200.625 68.5866C206.202 72.7401 207.45 73.2958 210.687 75.9673C210.794 76.0551 210.95 75.9088 210.843 75.8016C207.648 73.1089 204.266 70.6458 200.723 68.4306ZM218.302 81.6126C218.438 81.6711 218.585 81.5151 218.468 81.3981C218.351 81.2811 215.543 79.3896 214.958 78.9996C214.821 78.9021 214.694 79.1166 214.831 79.2141C215.396 79.6236 217.98 81.4663 218.302 81.6126ZM157.998 48.2383L156.048 48.7551C159.197 53.2986 164.638 57.7056 168.557 62.2393C169.23 62.3661 163 52.0408 160.592 47.1268L162.22 47.0196C162.261 47.0202 162.301 47.0085 162.335 46.986C162.37 46.9636 162.396 46.9314 162.412 46.8936C162.428 46.8558 162.432 46.8142 162.424 46.7741C162.415 46.734 162.395 46.6972 162.366 46.6686C158.786 41.938 154.623 37.6792 149.974 33.9936C149.857 33.7498 149.496 33.9936 149.613 34.1983C152.021 39.0831 155.609 43.4998 157.998 48.2383ZM161.83 46.6296L160.27 46.7173C160.232 46.7174 160.195 46.7274 160.163 46.7463C160.13 46.7651 160.103 46.7922 160.085 46.8248C160.066 46.8574 160.056 46.8943 160.056 46.932C160.056 46.9696 160.066 47.0065 160.085 47.0391C162.035 51.0951 167.124 59.9481 167.446 60.4648C164.648 57.5398 157.589 49.8861 156.721 48.9891L158.33 48.5698C158.36 48.5605 158.387 48.5447 158.41 48.5237C158.433 48.5027 158.451 48.4769 158.463 48.4481C158.475 48.4193 158.481 48.3883 158.48 48.3571C158.479 48.3259 158.471 48.2954 158.456 48.2676C156.506 44.3676 150.725 35.4561 150.296 34.6176C154.859 37.8643 161.05 45.6741 161.83 46.6296ZM159.714 73.1691C159.762 73.1784 159.811 73.1728 159.855 73.153C159.899 73.1331 159.936 73.1001 159.961 73.0583C159.986 73.0166 159.997 72.9683 159.993 72.92C159.989 72.8717 159.97 72.8259 159.938 72.7888C158.628 71.0803 157.101 69.5497 155.395 68.2356C158.573 67.7676 161.81 67.7871 164.989 67.2606C165.203 67.2606 165.164 66.9193 164.989 66.8608L145.226 60.4453C145.178 60.4246 145.124 60.4238 145.075 60.443C145.027 60.4622 144.988 60.4999 144.967 60.5477C144.947 60.5955 144.946 60.6496 144.965 60.6981C144.984 60.7465 145.022 60.7854 145.07 60.8061C146.984 61.9679 148.693 63.437 150.13 65.1546C143.324 64.5111 129.265 63.9748 129.148 63.9748C128.875 63.8773 128.758 64.3063 129.031 64.4038C136.792 67.2313 157.481 72.5841 159.714 73.1691ZM130.074 64.2771C136.899 64.4916 143.022 65.1936 150.549 65.5641C150.734 65.5641 150.773 65.3593 150.676 65.2423C149.471 63.7232 148.052 62.3866 146.464 61.2741L164.014 66.9778C160.933 67.3971 157.803 67.3873 154.732 67.8943C154.537 67.8943 154.527 68.2063 154.673 68.2941C156.367 69.4687 157.862 70.9072 159.1 72.5548C149.438 70.0198 139.6 67.6798 130.074 64.2771ZM164.199 85.0738C160.133 87.0921 149.438 91.6453 148.238 92.1036C148.19 92.1187 148.148 92.1506 148.121 92.1935C148.094 92.2364 148.083 92.2877 148.09 92.338C148.097 92.3884 148.122 92.4346 148.159 92.4685C148.197 92.5023 148.246 92.5216 148.297 92.5228H153.016C148.784 96.4228 145.772 99.3478 140.77 102.273C140.633 102.351 141.17 102.614 141.316 102.546C148.465 99.0943 155.382 95.1829 162.025 90.8361C162.337 90.0073 159.1 90.6411 158.534 90.4656L164.384 85.4053C164.638 85.2396 164.394 84.9763 164.199 85.0738ZM157.871 90.5241C157.842 90.5527 157.822 90.5895 157.814 90.6296C157.806 90.6697 157.81 90.7113 157.826 90.7491C157.842 90.7869 157.868 90.8191 157.902 90.8415C157.937 90.864 157.977 90.8757 158.018 90.8751H161.264C155.371 94.7075 149.249 98.1784 142.934 101.269C146.847 98.7828 150.448 95.8368 153.659 92.4936C153.685 92.4651 153.702 92.4301 153.709 92.3924C153.716 92.3548 153.712 92.316 153.698 92.2804C153.683 92.2449 153.659 92.2141 153.629 92.1914C153.598 92.1688 153.561 92.1552 153.523 92.1523H149.389C153.289 90.6216 162.259 86.5266 162.941 86.1951L157.871 90.5241Z" fill="white"/>
</svg>
