<svg width="444" height="445" viewBox="0 0 444 445" fill="none" xmlns="http://www.w3.org/2000/svg">
<path opacity="0.5" d="M443.5 222.397C443.5 344.948 344.33 444.293 222 444.293C99.6698 444.293 0.5 344.948 0.5 222.397C0.5 99.8457 99.6698 0.5 222 0.5C344.33 0.5 443.5 99.8457 443.5 222.397Z" stroke="white"/>
<path opacity="0.5" d="M416.527 227.155C416.527 332.326 331.329 417.583 226.232 417.583C121.135 417.583 35.936 332.326 35.936 227.155C35.936 121.985 121.135 36.7275 226.232 36.7275C331.329 36.7275 416.527 121.985 416.527 227.155Z" stroke="white"/>
<path opacity="0.5" d="M416.527 200.978C416.527 306.148 331.329 391.406 226.232 391.406C121.135 391.406 35.936 306.148 35.936 200.978C35.936 95.807 121.135 10.5498 226.232 10.5498C331.329 10.5498 416.527 95.807 416.527 200.978Z" stroke="white"/>
<path d="M314.037 238.948C310.186 239.728 302.698 239.328 300.475 239.036C300.407 238.256 300.524 230.778 300.426 229.091C300.426 229.003 300.28 228.954 300.28 228.954C294.764 228.567 289.232 228.456 283.705 228.623C283.705 222.071 283.705 215.441 283.559 208.821C283.559 208.796 283.555 208.772 283.544 208.75C283.534 208.728 283.519 208.709 283.5 208.694C283.481 208.679 283.459 208.668 283.435 208.663C283.412 208.658 283.387 208.659 283.364 208.665C273.214 208.314 265.814 208.46 265.755 208.567C265.648 209.269 265.472 215.841 265.531 217.342C262.552 214.067 258.953 211.416 254.942 209.542C253.991 209.236 253.106 208.757 252.329 208.128C252.108 207.931 251.941 207.681 251.842 207.401C251.743 207.122 251.716 206.822 251.764 206.529C252.612 203.292 257.672 201.654 259.154 200.533C260.069 199.923 260.853 199.137 261.462 198.222C262.071 197.306 262.493 196.279 262.703 195.2C262.761 194.158 262.466 193.128 261.865 192.275C261.231 191.3 262.235 191.115 262.928 190.51C262.287 190.52 261.655 190.667 261.075 190.939C261.298 190.586 261.425 190.181 261.443 189.764C261.462 189.347 261.372 188.932 261.182 188.56C261.231 188.872 261.203 189.191 261.101 189.49C261 189.789 260.827 190.059 260.597 190.276C260.651 189.484 260.412 188.7 259.925 188.073C257.419 184.806 252.125 184.104 248.293 183.89C248.39 176.09 248.293 155.751 248.293 153.489C257.068 153.879 265.843 154.308 274.696 154.659C274.072 168.397 273.916 182.223 274.316 196.029C274.317 196.052 274.324 196.075 274.336 196.096C274.348 196.116 274.365 196.133 274.385 196.146C274.405 196.158 274.428 196.166 274.451 196.167C274.475 196.169 274.499 196.165 274.52 196.155C278.947 196.321 289.935 196.701 291.008 196.731C291.456 202.785 291.583 208.947 291.495 215.1C291.498 215.145 291.517 215.187 291.55 215.218C291.582 215.248 291.626 215.266 291.671 215.265C296.082 215.548 300.507 215.568 304.921 215.324C305.067 215.324 305.077 215.08 304.921 215.08C302.688 215.08 293.972 215.08 291.846 214.934C292.007 208.803 291.838 202.668 291.339 196.555C287.332 195.912 275.846 195.921 274.608 195.892C274.335 182.135 274.403 168.3 275.037 154.494C275.037 154.449 275.02 154.406 274.989 154.373C274.958 154.34 274.916 154.321 274.871 154.318C274.774 154.318 248.166 153.207 248.069 153.255C248.033 153.263 248.002 153.282 247.98 153.311C247.959 153.34 247.949 153.376 247.952 153.411V183.9C245.904 184.153 246.684 185.957 246.167 186.961C245.943 187.38 245.758 187.205 245.397 187.449C244.422 188.082 244.51 192.324 244.549 193.445C243.574 195.97 242.813 199.617 244.646 201.625C244.968 201.976 245.534 202.269 245.709 202.727C245.742 202.882 245.74 203.043 245.705 203.198C245.67 203.353 245.601 203.498 245.504 203.624C245.132 204.313 244.561 204.874 243.865 205.234C243.17 205.594 242.382 205.736 241.604 205.642C235.481 205.155 232.917 206.1 231.581 206.481C227.567 208.301 223.783 210.592 220.31 213.306C220.147 213.494 220.038 213.723 219.995 213.969C219.952 214.215 219.977 214.467 220.067 214.7C219.092 215.1 218.117 215.675 217.2 216.133C216.625 214.281 214.012 205.34 213.866 204.95C214.457 204.58 214.96 204.084 215.338 203.497C216.313 203.497 216.527 203.556 216.596 203.409C217.346 201.742 217.834 199.958 218.643 198.31C219.54 198.31 228.754 197.842 232.449 197.52C232.449 197.52 237.656 198.495 237.919 198.583C237.904 198.787 237.936 198.991 238.012 199.181C238.088 199.37 238.206 199.54 238.357 199.677C238.508 199.815 238.689 199.915 238.885 199.973C239.081 200.03 239.287 200.041 239.489 200.007C240.581 199.88 241.224 198.895 241.663 197.998C242.194 196.98 242.478 195.851 242.492 194.703C242.492 192.46 241.302 191.7 240.386 191.778C240.145 191.767 239.908 191.838 239.713 191.98C239.518 192.122 239.377 192.325 239.313 192.558C238.65 192.441 234.506 191.641 234.438 191.583C232.137 189.165 226.17 183.919 226.17 183.9C226.014 178.371 226.219 163.6 226.277 161.913C226.275 161.868 226.256 161.824 226.223 161.792C226.191 161.76 226.148 161.74 226.102 161.738C214.899 161.952 212.14 161.377 212.15 161.884C212.276 164.702 212.257 173.165 212.208 173.136C204.983 168.348 193.42 157.409 193.615 157.536C193.498 157.155 192.942 155.634 192.776 155.254C192.776 155.196 187.287 153.519 186.127 153.304C185.596 153.298 185.074 153.436 184.616 153.704C183.166 154.682 181.932 155.946 180.989 157.419C172.35 169.002 169.103 182.33 170.897 194.225C171.084 195.896 171.49 197.535 172.106 199.1C172.353 199.596 172.719 200.022 173.172 200.341C173.625 200.659 174.15 200.859 174.7 200.923C175.675 201.138 180.404 201.654 181.525 201.381C182.198 200.981 182.849 200.545 183.475 200.075C186.4 200.133 194.541 199.704 195.711 199.646C195.428 205.106 195.467 219.087 195.526 220.599C190.934 220.501 179.253 220.501 177.976 220.462C177.976 217.83 178.19 214.953 178.073 212.282C177.917 212.038 177.625 212.028 177.371 212.009C175.178 211.882 165.925 211.59 163.829 211.775C163.409 211.775 163.916 211.648 163.829 223.007H147.692C147.646 223.007 147.601 223.025 147.568 223.058C147.535 223.091 147.517 223.136 147.517 223.182C147.517 230.524 147.38 237.934 147.517 245.334H133.477C133.443 245.334 133.411 245.348 133.387 245.372C133.363 245.395 133.35 245.428 133.35 245.461C133.35 245.495 133.363 245.527 133.387 245.551C133.411 245.575 133.443 245.588 133.477 245.588C142.993 245.705 152.558 245.802 162.113 245.763C162.298 245.763 162.356 246.436 162.308 233.41C168.158 233.41 174.008 233.556 179.926 233.41C179.926 237.798 179.799 242.185 179.858 246.573C178.13 245.766 176.167 245.621 174.339 246.163C170.088 247.284 170.917 250.473 170.8 250.95C170.585 251.613 169.961 251.438 169.25 251.623C168.44 251.845 167.705 252.279 167.121 252.881C166.536 253.483 166.123 254.23 165.925 255.045C163.975 254.958 162.746 255.045 161.801 256.732C161.283 256.142 160.638 255.677 159.916 255.371C159.193 255.066 158.41 254.927 157.626 254.967C156.842 255.006 156.077 255.222 155.389 255.599C154.7 255.975 154.106 256.503 153.65 257.142C151.934 256.576 150.413 258.117 149.672 259.667C148.424 262.329 150.5 263.801 150.647 264.191L145.187 264.123C145.05 264.123 145.05 264.327 145.187 264.337C147.049 264.337 164.609 265.01 206.612 264.405C201.971 274.565 201.366 291.705 201.093 302.82C201.639 303.06 202.203 303.256 202.78 303.405C202.78 304.156 202.838 304.936 202.838 305.921C201.971 306.418 199.25 308.037 199.104 308.222C198.958 308.407 198.841 309.099 199.28 309.197C201.41 309.254 203.542 309.195 205.666 309.021C205.54 307.232 205.772 305.436 206.348 303.737C207.56 303.757 208.772 303.695 209.975 303.552C216.167 289.707 216.995 282.589 219.111 277.831C221.207 276.261 226.385 270.694 228.812 268.471C229.192 264.785 229.244 261.072 228.968 257.376C228.968 257.21 229.173 257.064 229.329 257.376C229.641 258.029 230.002 260.398 229.661 266.814C229.524 269.466 228.598 274.828 230.909 281.936C232.97 287.519 236.19 292.603 240.356 296.853L248.42 304.985C248.965 304.886 249.502 304.749 250.028 304.575C250.077 304.634 251.559 306.525 251.637 306.525C251.627 307.069 251.458 307.597 251.151 308.046C250.845 308.494 250.414 308.844 249.911 309.051C249.619 309.168 249.765 310.026 249.989 310.026C251.029 310.084 252.07 310.084 253.109 310.026C253.927 309.102 254.683 308.125 255.371 307.101C255.371 306.945 253.421 304.38 253.07 303.045C253.458 302.783 253.826 302.492 254.172 302.177C250.563 293.875 247.38 285.395 244.637 276.768C246.421 273.658 249.609 267.633 250.058 264.259C271.391 265.234 289.438 266.472 310.254 264.386C310.41 264.386 310.41 264.132 310.254 264.142L307.787 264.357C307.228 262.864 306.347 261.512 305.206 260.398C304.065 259.284 302.693 258.435 301.187 257.912C298.778 257.122 298.34 258.039 297.618 257.054C296.677 255.614 295.286 254.525 293.662 253.957C292.038 253.389 290.272 253.374 288.638 253.914C288.989 250.083 286.23 246.495 281.93 246.982C282.406 245.474 282.337 243.847 281.737 242.385C281.137 240.922 280.042 239.716 278.645 238.977C279 237.85 279.042 236.647 278.766 235.498C278.489 234.349 277.905 233.297 277.075 232.455C276.633 231.868 276.024 231.43 275.327 231.199C274.63 230.967 273.88 230.953 273.175 231.158C272.162 229.311 270.917 227.6 269.47 226.068C269.792 225.652 270.088 225.215 270.357 224.762C269.151 222.127 267.59 219.67 265.716 217.459C265.716 217.459 266.009 209.386 266.028 208.684C270.513 208.587 281.989 208.947 283.237 208.928C283.237 214.076 283.286 227.297 283.334 228.759C283.336 228.79 283.346 228.819 283.361 228.844C283.377 228.87 283.399 228.892 283.425 228.907C283.451 228.922 283.48 228.931 283.51 228.933C283.54 228.934 283.57 228.928 283.598 228.915C291.69 228.662 298.291 229.149 300.124 229.179C300.124 230.875 299.822 238.47 300.124 239.211C300.124 239.299 303.634 240.021 310.644 239.67C311.405 239.592 314.69 239.504 314.037 238.948ZM205.422 305.833C204.652 305.745 203.875 305.726 203.102 305.775C203.102 305.677 203.014 303.825 202.985 303.454C203.989 303.608 205.002 303.709 206.017 303.756C205.9 304.068 205.442 305.794 205.422 305.833ZM252.788 303.259L253.831 305.209C253.519 305.385 252.505 306.038 251.881 306.408C251.881 306.311 250.331 304.458 250.292 304.458C251.149 304.115 251.983 303.714 252.788 303.259ZM241.819 206.149C242.147 206.14 242.473 206.101 242.794 206.032C243.351 205.991 243.893 205.83 244.382 205.561C244.872 205.291 245.298 204.92 245.631 204.472C247.952 201.128 243.145 202.912 244.217 196.555C244.754 193.963 245.719 191.478 247.074 189.204C247.826 190.162 248.767 190.955 249.839 191.534C250.911 192.113 252.091 192.465 253.304 192.567C254.104 192.567 253.373 194.439 253.704 196.048C253.948 197.189 255.206 196.35 255.937 197.023C256.162 197.24 256.32 197.517 256.392 197.821C256.465 198.125 256.449 198.443 256.346 198.739C256.244 199.034 256.059 199.294 255.814 199.487C255.568 199.681 255.273 199.8 254.962 199.831C254.461 201.003 254.031 202.205 253.675 203.429C252.481 204.24 251.652 205.486 251.364 206.9C251.444 207.363 251.63 207.801 251.91 208.178C252.189 208.556 252.553 208.863 252.973 209.074C251.562 210.618 249.64 211.598 247.562 211.833C246.431 212.028 245.269 211.913 244.198 211.502C242.189 210.615 241.458 208.294 241.819 206.149ZM213.446 204.882C213.524 205.379 216.303 214.573 216.888 216.504C217.307 216.845 219.15 215.324 220.135 215.041C220.625 218.821 222.188 222.38 224.639 225.298C219.764 229.335 216.206 229.851 215.611 229.871C215.022 229.897 214.435 229.783 213.899 229.537C213.363 229.291 212.894 228.921 212.53 228.457C211.093 226.72 210.204 224.596 209.975 222.354C209.098 216.767 209.371 210.917 209.459 205.213C209.597 205.264 209.747 205.271 209.89 205.234C210.033 205.198 210.161 205.119 210.258 205.008C210.765 205.866 211.409 205.71 211.76 205.135C212.501 206.208 213.534 204.667 213.778 203.429C213.778 203.429 214.597 203.497 214.997 203.507C214.616 204.258 213.417 204.696 213.446 204.882ZM210.677 201.791C210.677 201.654 210.97 201.489 211.087 201.479C211.208 201.483 211.324 201.53 211.414 201.613C211.503 201.695 211.56 201.807 211.574 201.927C211.574 202.083 211.808 202.161 211.877 202.015C211.932 201.907 212.012 201.814 212.11 201.743C212.208 201.672 212.322 201.625 212.441 201.606C212.561 201.587 212.684 201.596 212.799 201.634C212.914 201.671 213.019 201.735 213.105 201.82C214.246 202.795 212.725 205.574 212.13 205.125C212.013 205.038 211.818 204.979 211.896 204.297C211.896 204.131 211.643 204.16 211.584 204.297C211.584 205.067 211.282 205.272 211.048 205.272C210.814 205.272 210.658 205.067 210.551 204.911C210.493 204.671 210.493 204.42 210.551 204.18C210.551 203.985 210.278 203.897 210.239 204.102C210.19 204.35 210.104 204.59 209.985 204.813C209.949 204.858 209.902 204.893 209.848 204.913C209.794 204.934 209.735 204.939 209.678 204.929C209.622 204.919 209.568 204.894 209.525 204.857C209.481 204.819 209.448 204.771 209.429 204.716C209.227 203.773 209.26 202.795 209.527 201.869C209.559 201.769 209.619 201.681 209.701 201.615C209.782 201.549 209.881 201.509 209.985 201.498C210.131 201.498 210.336 201.742 210.336 201.771C210.365 202.025 210.687 202.025 210.677 201.791ZM216.284 203.107C215.582 203.107 214.733 203.107 213.817 203.175C214.022 201.391 212.481 200.884 211.789 201.576C211.727 201.46 211.637 201.361 211.526 201.289C211.416 201.217 211.289 201.174 211.158 201.165C211.026 201.155 210.894 201.179 210.775 201.233C210.655 201.288 210.551 201.373 210.473 201.479C210.414 201.409 210.342 201.352 210.26 201.311C210.179 201.27 210.09 201.246 209.999 201.239C209.909 201.233 209.817 201.245 209.731 201.274C209.645 201.304 209.566 201.35 209.498 201.411C209.117 201.723 209.088 202.386 209.03 203.01H205.812C205.617 202.444 204.584 199.86 204.398 199.207L218.185 198.359C217.902 199.1 216.683 202.298 216.284 203.107ZM241.975 196.068C241.614 197.442 240.883 199.724 239.05 199.665C238.823 199.624 238.618 199.503 238.471 199.325C238.325 199.146 238.247 198.921 238.25 198.69C238.428 198.718 238.609 198.718 238.787 198.69C239.577 198.112 240.181 197.317 240.528 196.401C240.874 195.485 240.946 194.489 240.737 193.533C240.737 193.347 240.551 192.762 240.425 192.743L239.45 192.587C240.551 191.193 242.765 192.636 241.975 196.068ZM212.491 162.05C212.598 162.05 221.529 162.167 225.936 162.147C225.624 169.284 225.556 176.519 225.858 183.724C221.578 180.175 216.976 176.753 212.462 173.35C212.471 173.262 212.569 164 212.491 162.05ZM173.101 199.763C172.126 198.739 171.853 197.199 171.599 195.863C169.523 185.138 171.804 173.847 177.098 164.341C177.937 162.82 181.817 156.336 184.742 154.104C185.932 153.187 187.443 154.386 188.116 155.634C189.286 157.809 189.461 167.403 189.247 170.532C187.51 169.887 185.615 169.798 183.826 170.279C174.651 172.911 175.431 186.912 185.776 186.971C185.074 188.921 182.149 196.048 177.001 199.87C176.446 200.324 175.747 200.562 175.031 200.542C174.315 200.523 173.63 200.246 173.101 199.763ZM181.31 201.147C181.125 201.089 177.235 200.982 175.753 200.835C177.091 200.366 178.281 199.552 179.204 198.476C185.308 192.509 188.067 182.749 189.237 174.306C190.004 168.541 189.896 162.693 188.915 156.96C188.702 155.832 188.167 154.789 187.375 153.957C188.067 154.182 192.328 155.498 192.572 155.517C195.643 163.386 195.848 172.326 193.956 180.594C193.566 182.145 193.059 183.685 192.562 185.206C190.485 191.875 187.307 197.55 181.31 201.147ZM183.758 199.851C195.165 190.9 197.408 169.353 193.79 158.013C205.958 170.747 222.065 179.229 234.175 191.895C234.253 191.973 239.342 192.928 240.366 193.094C240.63 194.047 240.608 195.058 240.303 195.999C239.998 196.94 239.423 197.771 238.65 198.388C238.221 198.213 232.527 197.199 232.449 197.189C229.232 197.218 185.23 199.773 183.758 199.851ZM162.103 233.049C162.074 233.049 162.046 233.057 162.021 233.071C161.996 233.085 161.975 233.105 161.961 233.13C161.946 233.154 161.938 233.182 161.937 233.211C161.936 233.24 161.943 233.268 161.957 233.293C161.957 237.242 161.82 241.395 161.957 245.442C158.369 245.354 148.882 245.325 147.887 245.325C148.004 239.679 147.887 224.928 147.887 223.338H164.004C164.032 223.339 164.06 223.333 164.085 223.32C164.11 223.307 164.131 223.288 164.147 223.265C164.163 223.241 164.172 223.214 164.174 223.186C164.177 223.158 164.172 223.13 164.16 223.104C164.267 219.546 164.16 215.792 164.082 212.116C167.621 211.98 176.504 212.438 177.41 212.496C178.083 212.496 177.674 211.999 177.693 220.735C177.693 220.813 177.859 220.911 177.898 220.911C183.748 221.32 189.705 220.911 195.662 220.979C196.335 221.203 195.594 219.195 195.994 199.695L204.106 199.236C204.34 199.88 205.383 202.551 205.559 203.292C205.572 203.335 205.598 203.372 205.632 203.4C205.667 203.428 205.709 203.445 205.754 203.448H209.098C209.006 204.028 209.098 204.621 209.361 205.145C208.454 219.156 209.634 222.695 209.732 223.046C208.693 222.714 207.576 222.725 206.544 223.076C205.511 223.427 204.619 224.1 203.999 224.996C203.327 224.505 202.525 224.225 201.694 224.191C200.863 224.156 200.041 224.369 199.331 224.802C198.621 225.236 198.055 225.87 197.706 226.624C197.357 227.379 197.239 228.221 197.369 229.042C197.369 229.461 196.979 229.549 196.618 229.569C192.562 229.393 189.988 232.494 190.534 235.536C189.933 236.002 189.513 236.662 189.346 237.404C189.178 238.146 189.275 238.923 189.617 239.601C188.262 240.186 186.692 241.122 186.692 242.78C186.642 243.259 186.778 243.739 187.072 244.12C187.366 244.502 187.796 244.755 188.272 244.827C188.73 244.886 189.247 244.827 189.637 245.149C189.819 245.522 190.106 245.833 190.463 246.044C190.82 246.256 191.231 246.358 191.645 246.339C191.663 246.645 191.615 246.952 191.504 247.238C191.393 247.524 191.222 247.782 191.002 247.996C191.002 247.996 189.959 247.752 189.5 247.577C189.06 247.413 188.575 247.413 188.135 247.577C187.621 247.777 187.057 247.812 186.522 247.68C185.986 247.547 185.504 247.253 185.142 246.836C184.567 245.861 183.533 244.213 182.217 245.276C182.059 245.414 181.935 245.588 181.856 245.783C181.856 247.548 180.833 246.992 180.335 246.758C180.462 242.253 180.433 237.759 180.443 233.254C180.306 232.991 181.193 233.01 162.103 233.049ZM206.875 263.928C205.481 263.928 168.236 264.366 150.978 264.191C150.666 263.216 149.262 262.348 149.789 260.437C150.315 258.526 151.943 256.839 153.747 257.512C153.787 257.526 153.831 257.525 153.871 257.509C153.91 257.493 153.943 257.463 153.962 257.424C154.381 256.841 154.925 256.357 155.554 256.008C156.182 255.658 156.881 255.453 157.598 255.405C158.316 255.358 159.035 255.47 159.704 255.733C160.373 255.996 160.976 256.404 161.469 256.927C161.674 257.103 161.742 257.366 162.015 257.005C162.668 255.435 164.521 255.211 166.139 255.377C166.179 255.375 166.217 255.361 166.248 255.336C166.28 255.312 166.303 255.278 166.315 255.24C166.501 254.236 167.058 253.338 167.875 252.725C168.733 252.186 169.704 251.853 170.712 251.75C170.86 251.603 170.975 251.426 171.049 251.231C171.123 251.036 171.154 250.827 171.141 250.619C171.106 249.773 171.355 248.939 171.848 248.25C172.341 247.561 173.049 247.057 173.861 246.816C177.557 245.666 180.686 247.548 181.184 247.47C181.681 247.392 181.886 246.992 181.934 246.495C181.934 246.202 181.886 245.432 182.909 245.325C183.933 245.217 184.255 246.504 184.713 247.099C185.062 247.518 185.52 247.831 186.037 248.003C186.553 248.176 187.108 248.2 187.638 248.074C188.311 247.967 188.525 247.723 189.257 248.006C189.792 248.175 190.345 248.283 190.904 248.328C191.227 248.072 191.479 247.738 191.636 247.358C191.793 246.977 191.85 246.562 191.801 246.153C191.801 246.131 191.795 246.11 191.785 246.09C191.774 246.07 191.76 246.053 191.742 246.04C191.724 246.027 191.703 246.018 191.682 246.014C191.66 246.01 191.637 246.011 191.616 246.017C191.36 246.07 191.095 246.056 190.846 245.978C190.597 245.899 190.372 245.758 190.193 245.568C189.89 245.237 189.764 244.818 189.296 244.662C188.828 244.506 188.321 244.603 187.901 244.467C187.636 244.328 187.406 244.13 187.23 243.887C187.054 243.645 186.935 243.366 186.885 243.071C186.834 242.776 186.851 242.473 186.936 242.186C187.021 241.899 187.171 241.635 187.375 241.415C188.039 240.659 188.889 240.091 189.842 239.767C189.875 239.749 189.899 239.718 189.91 239.682C189.921 239.645 189.918 239.606 189.9 239.572C189.518 238.939 189.391 238.185 189.543 237.461C189.695 236.738 190.115 236.098 190.719 235.672C190.745 235.657 190.766 235.633 190.778 235.605C190.791 235.577 190.794 235.546 190.787 235.516C190.163 232.65 192.737 229.998 195.662 229.842C197.027 229.92 197.915 229.715 197.612 228.165C197.66 227.502 197.867 226.86 198.217 226.294C198.567 225.729 199.049 225.257 199.621 224.918C201.025 224.031 202.799 224.606 204.125 225.249C204.722 224.36 205.591 223.689 206.602 223.337C207.614 222.985 208.712 222.972 209.732 223.299C209.79 223.299 210.833 229.5 214.919 230.212C215.465 230.31 218.575 230.378 224.464 226.039C223.928 227.716 221.48 236.676 221.042 239.25C220.925 239.982 221.519 240.352 222.017 240.684C219.599 244.418 210.931 255.24 206.875 263.928ZM277.572 233.605C278.097 234.402 278.432 235.309 278.55 236.256C278.668 237.202 278.567 238.164 278.255 239.065C278.24 239.107 278.241 239.152 278.257 239.194C278.273 239.235 278.303 239.269 278.342 239.289C283.276 241.941 281.54 247.089 281.54 247.089C280.765 247.276 280.044 247.639 279.434 248.152C279.337 248.25 279.434 248.396 279.59 248.308C280.283 247.767 281.102 247.411 281.971 247.275C282.839 247.138 283.728 247.225 284.553 247.528C285.843 248.05 286.917 248.996 287.598 250.21C288.278 251.424 288.525 252.834 288.297 254.207C294.381 252.725 297.072 256.83 297.277 257.132C297.901 258.029 298.125 257.912 299.227 257.951C302.873 258.117 306.052 261.12 307.563 264.405C288.512 265.839 269.353 264.698 250.262 263.859C251.782 258.655 252.601 253.271 252.7 247.85C253.069 247.786 253.434 247.699 253.792 247.587C254.043 247.128 254.227 246.635 254.338 246.124C255.313 241.122 256.912 236.033 257.263 230.817C258.52 231.975 259.889 233.007 261.348 233.898C261.465 233.956 261.836 233.654 261.953 233.576C262.977 234.189 263.954 234.877 264.878 235.633C266.574 237.408 265.853 239.211 266.301 245.988C266.74 253.203 267.393 254.948 267.188 255.533C266.886 256.303 264.01 256.888 266.301 257.483C266.564 257.483 267.393 257.249 267.276 257.785C266.974 258.282 266.301 259.248 267.393 259.501C267.552 259.518 267.711 259.477 267.842 259.384C267.855 259.548 267.928 259.702 268.047 259.817C268.165 259.931 268.321 259.999 268.485 260.008C268.663 260.016 268.839 259.967 268.988 259.869C269.136 259.771 269.251 259.629 269.314 259.462C269.35 259.563 269.413 259.652 269.495 259.72C269.577 259.789 269.676 259.834 269.782 259.852C270.884 259.774 270.825 258.224 271.108 257.278C271.371 255.445 271.42 253.378 272.444 251.565C274.988 244.74 276.685 237.915 273.419 231.538C274.234 231.404 275.07 231.531 275.808 231.903C276.545 232.274 277.146 232.87 277.523 233.605H277.572ZM271.556 252.588C271.049 253.7 270.581 258.146 270.464 258.438C270.347 258.731 270.182 259.813 269.606 259.277C269.528 259.106 269.501 258.917 269.528 258.731C269.528 258.546 269.275 258.555 269.246 258.731C269.246 259.082 269.041 259.579 268.612 259.618C267.89 259.618 268.173 258.711 268.154 258.643C268.145 258.61 268.126 258.58 268.098 258.559C268.071 258.537 268.037 258.526 268.003 258.526C267.968 258.526 267.934 258.537 267.907 258.559C267.879 258.58 267.86 258.61 267.851 258.643C267.851 258.711 267.783 259.384 267.257 259.092C267.032 258.955 267.062 258.731 267.169 258.536C267.276 258.341 267.569 258.058 267.617 257.746C267.635 257.614 267.609 257.48 267.544 257.364C267.479 257.248 267.378 257.156 267.257 257.103C266.935 257.037 266.603 257.037 266.282 257.103C266.135 257.103 265.843 257.103 265.794 256.908C265.745 256.713 266.291 256.615 266.438 256.566C268.115 255.972 267.51 254.616 267.286 252.793C266.828 249.137 266.642 245.354 266.496 241.561V238.246C266.291 235.623 264.634 234.551 262.333 233.371C262.333 233.371 267.13 229.91 269.402 226.341C274.598 232.63 277.348 238.539 271.508 252.588H271.556ZM266.272 218.707C267.763 220.549 269.045 222.55 270.094 224.674C268.573 227.599 264.039 231.636 261.504 233.449C260.432 232.903 257.165 231.06 254.299 225.844C254.24 225.737 254.075 225.844 254.133 225.942C254.96 227.534 255.94 229.043 257.058 230.446C256.717 234.951 255.342 239.494 254.455 244.008C254.254 245.097 253.973 246.169 253.616 247.216C250.691 247.928 230.012 245.178 222.036 240.128C221.519 239.816 221.402 239.67 221.519 239.026C222.494 233.761 225.692 221.983 229.319 214.778C229.378 214.651 229.193 214.544 229.134 214.671C227.468 217.977 226.041 221.398 224.864 224.908C222.992 222.363 220.837 218.424 220.544 214.359C220.408 213.715 220.983 213.384 221.422 213.101C221.861 212.818 230.84 205.457 239.099 205.944C239.771 205.944 241.497 206.12 241.702 206.12C241.456 207.086 241.499 208.104 241.825 209.046C242.151 209.989 242.745 210.815 243.535 211.424C245.66 212.886 250.36 212.565 253.285 209.181C258.281 211.306 262.711 214.568 266.223 218.707H266.272Z" fill="white"/>
<path d="M247.357 197.93C247.379 197.925 247.399 197.913 247.416 197.898C247.432 197.882 247.444 197.862 247.45 197.84C247.456 197.818 247.456 197.795 247.45 197.773C247.444 197.751 247.432 197.731 247.415 197.715C247.23 197.55 246.762 197.559 246.762 197.218C247.426 196.347 248.142 195.516 248.907 194.732C248.995 194.634 248.858 194.478 248.761 194.576C246.694 196.653 246.284 196.955 246.499 197.501C246.582 197.651 246.708 197.772 246.861 197.848C247.015 197.925 247.187 197.953 247.357 197.93ZM246.791 194.361C246.994 194.136 247.183 193.898 247.357 193.65C247.454 193.513 247.22 193.338 247.103 193.513C246.926 193.746 246.77 193.994 246.635 194.254C246.638 194.272 246.644 194.289 246.653 194.304C246.662 194.319 246.675 194.333 246.689 194.343C246.704 194.353 246.721 194.36 246.738 194.363C246.756 194.366 246.774 194.366 246.791 194.361ZM250.526 196.399C250.662 196.399 251.744 195.648 251.501 195.424C251.47 195.393 251.427 195.376 251.384 195.376C251.34 195.376 251.298 195.393 251.267 195.424C251.13 195.658 250.409 196.058 250.418 196.399C250.435 196.408 250.453 196.413 250.472 196.413C250.491 196.413 250.509 196.408 250.526 196.399ZM248.858 201.118C249.229 201.391 249.902 200.962 250.214 200.436C250.39 200.089 250.534 199.727 250.643 199.353C250.648 199.337 250.65 199.32 250.649 199.303C250.648 199.285 250.643 199.269 250.635 199.253C250.627 199.238 250.616 199.225 250.602 199.214C250.589 199.203 250.573 199.195 250.557 199.19C250.54 199.186 250.523 199.185 250.506 199.187C250.489 199.189 250.472 199.195 250.457 199.204C250.443 199.213 250.43 199.224 250.42 199.238C250.41 199.252 250.403 199.268 250.399 199.285C250.283 199.543 250.099 199.764 249.868 199.925C249.636 200.087 249.364 200.182 249.083 200.202C248.556 200.367 248.498 200.874 248.858 201.118ZM200.723 169.431C200.702 169.418 200.677 169.413 200.653 169.419C200.629 169.424 200.609 169.439 200.596 169.46C200.583 169.481 200.579 169.505 200.584 169.529C200.59 169.553 200.604 169.574 200.625 169.587C206.202 173.74 207.45 174.296 210.687 176.967C210.794 177.055 210.95 176.909 210.843 176.802C207.648 174.109 204.266 171.646 200.723 169.431ZM218.302 182.613C218.438 182.671 218.585 182.515 218.468 182.398C218.351 182.281 215.543 180.39 214.958 180C214.821 179.902 214.694 180.117 214.831 180.214C215.396 180.624 217.98 182.466 218.302 182.613ZM157.998 149.238L156.048 149.755C159.197 154.299 164.638 158.706 168.557 163.239C169.23 163.366 163 153.041 160.592 148.127L162.22 148.02C162.261 148.02 162.301 148.008 162.335 147.986C162.369 147.964 162.396 147.931 162.412 147.894C162.428 147.856 162.432 147.814 162.423 147.774C162.415 147.734 162.395 147.697 162.366 147.669C158.786 142.938 154.622 138.679 149.974 134.994C149.857 134.75 149.496 134.994 149.613 135.198C152.021 140.083 155.609 144.5 157.998 149.238ZM161.83 147.63L160.27 147.717C160.232 147.717 160.195 147.727 160.163 147.746C160.13 147.765 160.103 147.792 160.084 147.825C160.066 147.857 160.056 147.894 160.056 147.932C160.056 147.97 160.066 148.007 160.085 148.039C162.035 152.095 167.124 160.948 167.446 161.465C164.648 158.54 157.589 150.886 156.721 149.989L158.33 149.57C158.359 149.56 158.387 149.545 158.41 149.524C158.433 149.503 158.451 149.477 158.463 149.448C158.475 149.419 158.481 149.388 158.48 149.357C158.479 149.326 158.471 149.295 158.456 149.268C156.506 145.368 150.725 136.456 150.296 135.618C154.859 138.864 161.05 146.674 161.83 147.63ZM159.714 174.169C159.762 174.178 159.811 174.173 159.855 174.153C159.899 174.133 159.936 174.1 159.961 174.058C159.985 174.017 159.997 173.968 159.993 173.92C159.988 173.872 159.97 173.826 159.938 173.789C158.628 172.08 157.101 170.55 155.395 169.236C158.573 168.768 161.81 168.787 164.989 168.261C165.203 168.261 165.164 167.919 164.989 167.861L145.226 161.445C145.178 161.425 145.124 161.424 145.075 161.443C145.027 161.462 144.988 161.5 144.967 161.548C144.947 161.596 144.946 161.65 144.965 161.698C144.984 161.747 145.022 161.785 145.07 161.806C146.984 162.968 148.693 164.437 150.13 166.155C143.324 165.511 129.265 164.975 129.148 164.975C128.875 164.877 128.758 165.306 129.031 165.404C136.792 168.231 157.481 173.584 159.714 174.169ZM130.074 165.277C136.899 165.492 143.022 166.194 150.549 166.564C150.734 166.564 150.773 166.359 150.676 166.242C149.471 164.723 148.052 163.387 146.464 162.274L164.014 167.978C160.933 168.397 157.803 168.387 154.732 168.894C154.537 168.894 154.527 169.206 154.673 169.294C156.367 170.469 157.862 171.907 159.1 173.555C149.438 171.02 139.6 168.68 130.074 165.277ZM164.199 186.074C160.133 188.092 149.438 192.645 148.238 193.104C148.19 193.119 148.148 193.151 148.121 193.193C148.094 193.236 148.083 193.288 148.09 193.338C148.097 193.388 148.121 193.435 148.159 193.468C148.197 193.502 148.246 193.522 148.297 193.523H153.016C148.784 197.423 145.772 200.348 140.77 203.273C140.633 203.351 141.17 203.614 141.316 203.546C148.465 200.094 155.382 196.183 162.025 191.836C162.337 191.007 159.1 191.641 158.534 191.466L164.384 186.405C164.638 186.24 164.394 185.976 164.199 186.074ZM157.871 191.524C157.842 191.553 157.822 191.589 157.814 191.63C157.806 191.67 157.81 191.711 157.826 191.749C157.841 191.787 157.868 191.819 157.902 191.842C157.937 191.864 157.977 191.876 158.018 191.875H161.264C155.37 195.707 149.249 199.178 142.934 202.269C146.847 199.783 150.448 196.837 153.659 193.494C153.685 193.465 153.702 193.43 153.709 193.392C153.716 193.355 153.712 193.316 153.697 193.28C153.683 193.245 153.659 193.214 153.628 193.191C153.598 193.169 153.561 193.155 153.523 193.152H149.389C153.289 191.622 162.259 187.527 162.941 187.195L157.871 191.524Z" fill="white"/>
</svg>
